<?xml version="1.0" encoding="utf-8"?>
<!-- Generator: Adobe Illustrator 27.0.1, SVG Export Plug-In . SVG Version: 6.00 Build 0)  -->
<svg version="1.1" id="Layer_1" xmlns="http://www.w3.org/2000/svg" xmlns:xlink="http://www.w3.org/1999/xlink" x="0px" y="0px"
	 viewBox="0 0 1366 768" style="enable-background:new 0 0 1366 768;" xml:space="preserve">
<style type="text/css">
	.st0{fill:#003C75;}
	.st1{fill:#B4C5D6;}
	.st2{fill:#EEF1F5;}
	.st3{fill:#FFFFFF;stroke:#181414;stroke-miterlimit:10;}
	.st4{fill:#0087CC;}
	.st5{fill:#AFB4B8;}
	.st6{fill:#ADB3B8;}
	.st7{fill:#AEB3B8;}
	.st8{fill:#ADB3B7;}
	.st9{fill:#ADB2B7;}
	.st10{fill:#ACB2B7;}
	.st11{fill:#003A74;}
	.st12{fill:#B1B6B9;}
	.st13{fill:#97A2AD;}
	.st14{fill:#003974;}
	.st15{fill:#38638A;}
	.st16{fill:#AFB5B7;}
	.st17{fill:#597996;}
	.st18{fill:#003773;}
	.st19{fill:#023973;}
	.st20{fill:#A1AAB1;}
	.st21{fill:#40688D;}
	.st22{fill:#AAB1B6;}
	.st23{fill:#63809A;}
	.st24{fill:#B3B7B8;}
	.st25{fill:#648099;}
	.st26{fill:#5D7A96;}
	.st27{fill:#B6BAB9;}
	.st28{fill:#008ACF;}
	.st29{fill:#0068A8;}
	.st30{fill:#003872;}
	.st31{fill:#003471;}
	.st32{fill:#B7B9B9;}
	.st33{fill:#004580;}
	.st34{fill:#0072B2;}
	.st35{fill:#245181;}
	.st36{fill:#A1ABB1;}
	.st37{fill:#B7BABA;}
	.st38{fill:#075483;}
	.st39{fill:#003572;}
	.st40{fill:#B3B7BA;}
	.st41{fill:#003270;}
	.st42{fill:#003873;}
	.st43{fill:#003973;}
	.st44{fill:#BCBDBC;}
	.st45{fill:#00356F;}
	.st46{fill:#BABCBB;}
	.st47{fill:#B3B8B9;}
	.st48{fill:#5A7A97;}
	.st49{fill:#003B75;}
	.st50{fill:#12477B;}
	.st51{fill:#BABBBB;}
	.st52{fill:#B4B8BA;}
	.st53{fill:#003371;}
	.st54{fill:#99A4AE;}
	.st55{fill:#8A99A8;}
	.st56{fill:#044178;}
	.st57{fill:#92A0AC;}
	.st58{fill:#00427D;}
	.st59{fill:#003672;}
	.st60{fill:#003472;}
	.st61{fill:#BBBDBC;}
	.st62{fill:#135382;}
	.st63{fill:#B8BABA;}
	.st64{fill:#003571;}
	.st65{fill:#B6B8B9;}
	.st66{fill:#B4B8B9;}
	.st67{fill:#003070;}
	.st68{fill:#B7B9BB;}
	.st69{fill:#CBD7E3;}
	.st70{fill:#919FAB;}
	.st71{fill:#CD0010;stroke:#181414;stroke-width:0.5;stroke-miterlimit:10;}
	.st72{fill:#0089CE;}
	.st73{fill:#013D75;}
	.st74{fill:#023D75;}
	.st75{fill:#B1B5B9;}
	.st76{fill:#567593;}
	.st77{fill:#A5AEB4;}
	.st78{fill:#B2B6B9;}
	.st79{fill:#B3B7B9;}
	.st80{fill:#B3B8B8;}
	.st81{fill:#8A9CAB;}
	.st82{fill:#A5ADB3;}
	.st83{fill:#B6B8BA;}
	.st84{fill:#013C75;}
	.st85{fill:#033D75;}
	.st86{fill:#A3ACB2;}
	.st87{fill:#B1B6B8;}
	.st88{fill:#B9BBBB;}
	.st89{fill:#B2B7B8;}
	.st90{fill:#B5B9BA;}
	.st91{fill:#0E457A;}
	.st92{fill:#002F6F;}
	.st93{fill:#14487C;}
	.st94{fill:#326189;}
	.st95{fill:#094178;}
	.st96{fill:#064077;}
	.st97{fill:#0D437A;}
	.st98{fill:#0B4479;}
	.st99{fill:#225382;}
	.st100{fill:#0D457A;}
	.st101{fill:#074077;}
	.st102{fill:#003170;}
	.st103{fill:#094379;}
	.st104{fill:#0D4279;}
	.st105{fill:#0A4278;}
	.st106{fill:#B8BABB;}
	.st107{fill:#B5B8BA;}
	.st108{fill:#AFB5B9;}
	.st109{fill:#B7BABB;}
	.st110{fill:#B6B9BA;}
	.st111{fill:#BABBBA;}
	.st112{fill:#B8BBBA;}
	.st113{fill:#B5B8B9;}
	.st114{fill:#BABCBA;}
	.st115{fill:#BBBCBB;}
	.st116{fill:#ABB1B6;}
	.st117{fill:#2E5985;}
	.st118{fill:#094078;}
	.st119{fill:#003673;}
	.st120{fill:#033874;}
	.st121{fill:#285583;}
	.st122{fill:#B7BBBA;}
</style>
<g>
	<g>
		<path class="st0" d="M1014.91,368.01c-1.42,0.17-1.68,1.25-2.12,2.39c-3.46,8.82-7.32,17.48-10.1,26.55
			c-2.8,9.14-8.75,15.93-16.11,21.68c-6.33,4.95-13.24,9.02-20.5,12.34c-6.99,3.2-9.44,8.88-10.23,15.82
			c-1.1,9.74-1.61,19.58-5.37,28.83c-9.5,23.37-23.66,42.17-49.53,48.74c-13.48,3.42-24.62,10.44-34.66,19.73
			c-4.03,3.73-8.25,7.28-12.65,10.55c-7.79,5.79-13.48,12.98-17.51,21.9c-4.48,9.9-13.15,16.22-21.88,22.09
			c-11.03,7.41-22.62,13.91-32.81,22.66c-6.82,5.86-15.72,5.61-24.35,4.7c-2.49-0.26-2.71-2.13-3.14-3.86
			c-1.52-6.17-3.61-12.11-6.97-17.55c-4.25-6.86-10.1-10.41-19.04-9.07c4.73,6.17,6.22,12.76,4.06,20.17
			c-3.7,12.68-14.16,20.96-26.48,20.8c-2.88-0.04-5.15-1.07-7.31-2.71c-11-8.32-17.1-19.73-20.54-32.78
			c-1.95-7.4-9.02-10.68-15.76-7.32c-2.49,1.24-3.58,2.74-2.12,5.52c1.15,2.21,2.06,4.55,2.92,6.89c2.73,7.41,0.12,13.64-7.21,16.71
			c-8.49,3.56-16.71,1.85-24.54-2.13c-6.86-3.49-12.52-8.67-15.49-15.73c-2.25-5.35-5.92-6.19-10.19-4.66
			c-12.02,4.3-21.05-1.88-27.42-9.87c-8.33-10.45-17.82-20.19-23.97-32.39c-2.72-5.4-8.78-5.51-13.94-6.06
			c-11.4-1.23-22.9-1.49-34.06-4.64c-12.91-3.65-23.4-10.29-29.42-22.75c-2.73-5.66-7.04-10.01-11.42-14.38
			c-11.48-11.45-12.93-20.61-5.35-35.01c1.63-3.09,1.15-4.15-2.18-4.35c-1.82-0.11-3.66-0.68-5.45-0.56
			c-10.96,0.75-18.95-4.1-24.7-13.03c-3.98-6.19-9.42-10.69-15.66-14.35c-18.2-10.65-23.35-27.83-18.15-49.27
			c1.79-7.38,5.53-13.88,8.82-20.6c0.82-1.67,1.6-3.11,0.43-5.08c-9.23-15.61-13.85-33.49-24-48.66c-1.64-2.46-3.23-4.96-2.87-8.14
			c-0.65-4.49-0.14-9-0.3-13.5c0.01-2.28-0.01-4.56,0.01-6.83c0.53-1.83,0.5-3.71,0.48-5.58c0.78-7.88,3-15.28,6.8-22.28
			c2.71-4.99,6.5-7.93,12.22-8c3.82-0.05,5.84-1.7,6.12-5.61c0.13-1.81,0.5-3.65,1.07-5.39c2.97-9.18,3.69-18.27,1.48-27.92
			c-1.86-8.13,0.11-16.16,5.2-23.19c4.69-6.49,9.61-12.79,14.88-18.81c2.5-2.86,2.93-4.66-0.66-7.06
			c-6.17-4.14-6.42-6.52-2.08-12.69c40.59-57.72,93.74-99.1,160.22-123.13c26.45-9.56,53.66-15.72,81.66-18.38
			c67.15-6.39,130.63,6.27,190.43,37.25c24.66,12.78,46.94,29.04,67.61,47.66c18.19,16.38,33.8,34.88,48.12,54.6
			c0.69,0.94,1.36,1.89,1.96,2.9c3.02,5.04,2.43,8.09-2.05,11.7c-2.44,1.96-6.44,2.76-7.14,5.87c-0.76,3.38,3.31,4.98,5.01,7.54
			c4.14,6.24,5.98,12.94,5.04,20.38c-0.12,0.99-0.37,1.97-0.51,2.96c-1.05,7.41-1.05,7.46,6.14,9.3c9.33,2.39,17,7.37,23.41,14.49
			c10.27,11.41,10.83,24.51,6.94,38.44c-3.27,11.71-5.8,23.62-9.81,35.13c-1.32,3.79-2.63,7.62-4.99,10.86
			c-2.3,3.16-1.51,5.18,1.25,7.55c7.8,6.72,13.51,15.1,18.39,24.11c0.97,1.79,1.04,3.84,2.07,5.56
			C1014.91,355.35,1014.91,361.68,1014.91,368.01z"/>
		<path class="st1" d="M375.98,296.99c-0.02,4.7-0.05,9.4-0.07,14.11l-0.42,0.07l-0.4-0.14c0-4.67,0-9.33,0-14
			C375.37,296.59,375.67,296.58,375.98,296.99z"/>
		<path class="st2" d="M375.98,296.99c-0.3,0-0.59,0.01-0.89,0.04c0-2.67,0-5.33,0-8c0.23-0.06,0.47-0.08,0.71-0.07
			c0.7,0.26,0.85,0.7,0.44,1.33C376.15,292.52,376.07,294.76,375.98,296.99z"/>
		<path class="st3" d="M570.31,706.09c-3.33,0-6.66,0.03-9.98-0.01c-1.28-0.02-2.8,0.24-2.98-1.75c-0.14-1.63,0.03-3.19,2.08-3.22
			c3.14-0.06,3.23-2.01,3.22-4.38c-0.06-10.82-0.05-21.63-0.01-32.45c0.01-2.44,0.16-4.72-3.34-4.68c-1.75,0.02-2-1.32-1.98-2.82
			c0.03-1.89,1.24-2.1,2.67-2.11c6.99,0,13.98,0,20.97,0c1.47,0,2.62,0.3,2.67,2.14c0.04,1.53-0.35,2.75-2.07,2.78
			c-2.93,0.05-2.94,1.94-2.87,4.07c0.08,2.33,0.29,4.7-0.04,6.98c-0.75,5.16,1.11,6.91,6.39,6.49c6.34-0.5,6.37-0.12,6.36-6.73
			c0-2.33-0.05-4.66,0.01-6.99c0.05-1.98-0.06-3.68-2.7-3.76c-2.1-0.06-2.22-1.59-2.1-3.2c0.15-1.95,1.6-1.78,2.93-1.78
			c6.82-0.01,13.65,0,20.47-0.01c1.41,0,2.66,0.12,2.77,2.01c0.11,1.79-0.46,3.03-2.39,2.99c-2.75-0.05-3.17,1.42-3.15,3.79
			c0.09,11.15,0.09,22.3,0,33.45c-0.02,2.51,0.34,4.22,3.37,4.21c2.06-0.01,2.28,1.51,2.15,3.16c-0.15,1.96-1.6,1.81-2.92,1.81
			c-6.82,0.01-13.65,0-20.47,0.01c-1.38,0-2.73,0.02-2.78-1.93c-0.03-1.39-0.08-2.91,1.75-2.99c3.19-0.15,3.08-2.24,3.07-4.52
			c-0.01-3.82,0.05-7.65,0.26-11.47c0.12-2.15-0.64-2.83-2.79-3.03c-10.19-0.92-10.19-0.99-10.19,9.14c0,2.16,0.05,4.33-0.01,6.49
			c-0.06,1.87,0.24,3.28,2.59,3.3c1.96,0.01,2.48,1.27,2.33,3.04c-0.19,2.26-1.87,1.95-3.32,1.96
			C576.97,706.11,573.64,706.09,570.31,706.09z"/>
		<path class="st3" d="M833.02,678.82c1.42,0.47,2.88,0.84,4.25,1.42c4.46,1.87,7.45,4.9,7.79,10.01c0.35,5.35-1.77,9.34-6.42,12
			c-4.91,2.82-10.34,3.66-15.85,3.79c-7.65,0.17-15.3,0.08-22.95,0.03c-1.5-0.01-3.5,0.69-3.72-2c-0.18-2.2,0.89-3.05,2.88-3.08
			c2.58-0.05,2.81-1.78,2.8-3.77c-0.02-11.31-0.03-22.62,0.01-33.92c0.01-2.1-0.45-3.59-2.97-3.57c-2.12,0.02-2.94-1.12-2.7-3.2
			c0.26-2.3,2-1.84,3.4-1.84c8.98-0.03,17.96-0.02,26.94,0.01c1.32,0.01,2.66,0.18,3.97,0.4c6.63,1.11,10.55,4.43,11.33,9.54
			c0.86,5.58-1.27,8.92-7.81,12.31c-0.9,0.7-1.97,1.1-2.98,1.68c-0.61,0.09,0.05,0.88-0.07,0.24c-0.05-0.29,0.4-0.45,0.76-0.46
			C832.18,678.39,832.64,678.45,833.02,678.82z"/>
		<path class="st3" d="M753.05,706.09c-3.82-0.01-7.65-0.01-11.47,0c-1.56,0-3.02,0.01-3.12-2.19c-0.08-1.88,0.71-2.91,2.54-2.88
			c2.92,0.05,3.02-1.76,3.01-3.96c-0.05-11.14-0.05-22.28,0-33.42c0.01-2.13,0.11-4.05-2.91-3.94c-1.77,0.07-2.71-0.84-2.63-2.78
			c0.09-2.16,1.47-2.28,3.07-2.27c8.64,0.08,17.32-0.3,25.92,0.33c12.97,0.96,21.3,9.81,22.26,22.67
			c1.03,13.75-5.74,23.73-18.31,27.18C765.34,706.51,759.18,705.97,753.05,706.09z"/>
		<path class="st3" d="M415.16,678.64c4.68-5.82,9.36-11.64,13.91-17.31c-0.13-1.84-1.45-1.32-2.28-1.56
			c-1.78-0.51-1.55-1.89-1.56-3.22c-0.01-1.6,1.02-1.89,2.31-1.89c4.66,0,9.33,0.02,13.99,0c1.68-0.01,2.33,0.79,2.34,2.45
			c0.01,1.66-0.75,2.66-2.3,2.59c-7.53-0.37-9.2,6.7-13.47,10.47c-1.41,1.25-0.37,2.45,0.21,3.57c4.28,8.27,8.6,16.52,12.89,24.79
			c0.73,1.42,1.62,2.43,3.37,2.51c1.97,0.08,2.36,1.39,2.25,3.13c-0.13,1.97-1.5,1.9-2.84,1.9c-6.16,0.02-12.32,0.02-18.49,0.01
			c-3.75-0.01-3.8-2.12-2.19-4.49c0.66-0.96,1.61-1.39,0.92-2.78c-2.42-4.88-4.75-9.8-7.16-14.81c-4.34,2.5-3.1,6.35-2.95,9.57
			c0.13,2.8-2.22,7,3.31,7.83c1.23,0.19,0.89,1.97,0.84,3.11c-0.07,1.74-1.39,1.56-2.54,1.57c-6.5,0.01-12.99,0.01-19.49,0
			c-1.33,0-2.76,0.12-2.91-1.83c-0.12-1.66,0.13-3.16,2.18-3.15c3.06,0.02,3.36-1.75,3.34-4.23c-0.08-10.99-0.07-21.98-0.01-32.98
			c0.01-2.33,0.1-4.39-3.2-4.25c-1.96,0.08-2.44-1.28-2.32-3.04c0.13-1.91,1.45-1.94,2.83-1.94c6.83,0,13.66,0.01,20.49-0.01
			c1.44,0,2.63,0.1,2.66,2.03c0.03,1.7-0.22,3.07-2.29,3.02c-2.86-0.07-3.09,1.66-3.05,3.91c0.1,4.92,0.03,9.84,0.03,14.76
			C414.38,678.47,414.77,678.56,415.16,678.64z"/>
		<path class="st3" d="M690.23,671.6c0,8.62,0.05,17.24-0.03,25.85c-0.02,2.15,0.91,3,2.93,3.1c1.33,0.06,2.65,0.27,3.98,0.4
			c1.7,0.16,2.72,0.8,2.71,2.79c-0.02,2.19-1.31,2.36-2.94,2.35c-5.33-0.02-10.66-0.03-15.99,0.01c-1.7,0.01-2.89-0.27-2.88-2.4
			c0-1.94,0.91-2.81,2.68-2.78c3.72,0.07,4.11-2.07,4.07-5.16c-0.16-10.16-0.11-20.33-0.03-30.49c0.02-3.16-0.3-5.7-4.39-5.59
			c-1.98,0.05-2.39-1.31-2.29-3.05c0.11-1.94,1.43-1.95,2.8-1.96c5.16-0.01,10.33,0.08,15.49-0.03c2.26-0.05,3.17,1.45,4.24,2.93
			c4.89,6.74,9.77,13.49,14.73,20.18c0.93,1.25,1.45,2.98,3.8,3.67c0-6.33-0.07-12.41,0.03-18.49c0.05-3.15-2.15-2.74-4.09-2.96
			c-1.63-0.18-3.52,0.25-4.74-1.03c-0.53-0.56-0.41-1.89-0.34-2.86c0.14-1.72,1.57-1.39,2.66-1.4c5.33-0.03,10.66,0,15.99-0.02
			c1.6-0.01,3.01,0.06,3.05,2.26c0.03,1.87-0.79,2.97-2.59,2.87c-4.07-0.22-4.37,2.11-4.33,5.37c0.15,11.83,0.13,23.66-0.02,35.49
			c-0.02,1.83,1.53,4.94-1.81,5.29c-2.9,0.3-6.12,1.2-8.49-2.31c-5.67-8.42-11.71-16.6-17.62-24.87c-1.82-2.55-3.69-5.07-5.54-7.6
			C690.92,671.31,690.58,671.45,690.23,671.6z"/>
		<path class="st3" d="M886.29,706.08c-3.16,0.01-6.32,0.04-9.48-0.01c-1.26-0.02-2.81,0.34-3.07-1.62
			c-0.23-1.68,0.14-2.9,2.09-3.28c1.24-0.24,3.64,0.13,2.5-2.36c-1.11-2.43,0.06-6.52-4.4-6.73c-2.32-0.11-4.7,0.28-6.97-0.09
			c-4.5-0.73-6.16,1.49-7.06,5.47c-0.47,2.1-0.4,3.23,1.91,3.37c2.37,0.14,2.5,1.69,2.37,3.49c-0.18,2.41-2.03,1.71-3.37,1.74
			c-3.49,0.08-6.98,0.01-10.48,0.03c-1.43,0.01-2.67-0.06-2.66-2.01c0-1.62,0.11-3.18,2.21-3.1c3.64,0.13,4.59-2.22,5.55-5.12
			c4.13-12.46,8.68-24.79,12.59-37.32c1.25-4.01,3.63-3.79,6.72-3.96c3.33-0.19,5.01,0.81,6.09,4.14
			c4.1,12.62,8.55,25.14,12.83,37.7c0.79,2.33,1.06,4.92,4.45,5.06c1.51,0.06,1.53,1.45,1.49,2.68c-0.05,1.56-1.03,1.91-2.33,1.91
			C893.61,706.07,889.95,706.07,886.29,706.08z"/>
		<path class="st3" d="M658.47,706.08c-3.33,0-6.66,0-9.98,0c-1.35,0-2.74,0.1-2.8-1.88c-0.04-1.42,0.01-2.65,1.81-2.98
			c1.48-0.28,3.92-0.02,2.63-2.75c-1.13-2.4-0.07-6.52-4.7-6.41c-2.33,0.06-4.66,0-6.99,0.01c-4.73,0.02-6.65,1.95-7.13,6.64
			c-0.23,2.27,1.32,1.96,2.48,2.12c1.94,0.26,2.36,1.36,2.36,3.11c0,2.33-1.56,2.15-3.07,2.15c-3.66,0.01-7.32,0-10.98,0
			c-1.39,0-2.67-0.07-2.77-2c-0.09-1.75,0.39-3.17,2.31-3.09c4.03,0.18,4.68-2.66,5.66-5.58c4.19-12.43,8.65-24.77,12.72-37.23
			c1.1-3.36,3.07-3.68,5.95-3.58c2.88,0.1,5.31-0.16,6.51,3.61c4.15,12.99,8.7,25.85,13.09,38.77c0.69,2.03,1.06,4.21,3.94,4.43
			c1.87,0.14,1.65,1.77,1.55,3.1c-0.13,1.69-1.46,1.55-2.6,1.56C665.13,706.1,661.8,706.08,658.47,706.08z"/>
		<path class="st3" d="M508.53,706.09c-5.65,0-11.31,0.02-16.96-0.02c-1.56-0.01-3.48,0.51-3.53-2.2c-0.03-1.88,0.69-2.91,2.54-2.86
			c2.68,0.07,2.79-1.6,2.78-3.61c-0.04-11.31-0.05-22.62,0.01-33.93c0.01-2.24-0.19-3.92-3.07-3.83c-2.03,0.06-2.33-1.38-2.23-3.07
			c0.11-1.95,1.48-1.9,2.83-1.9c7.48-0.01,14.97,0,22.45,0c1.46,0,2.55,0.24,2.6,2.14c0.05,1.87-0.62,2.98-2.49,2.86
			c-3.8-0.24-4.13,1.89-4.09,4.98c0.15,10.64,0.15,21.29,0,31.93c-0.05,3.23,0.55,4.78,4.31,4.69c7.33-0.16,7.64,0.11,8.79-6.98
			c0.6-3.73,2.44-4.04,5.42-3.87c3.78,0.22,2.44,2.92,2.36,4.77c-0.49,10.91-0.54,10.91-11.74,10.91
			C515.18,706.09,511.85,706.09,508.53,706.09z"/>
		<path class="st3" d="M976.1,706.09c-5.66,0-11.32,0.03-16.97-0.03c-1.34-0.01-3.16,0.64-3.4-1.75c-0.2-1.96,0.3-3.35,2.54-3.32
			c2.69,0.03,2.74-1.7,2.73-3.68c-0.03-11.31-0.07-22.62,0.02-33.93c0.02-2.38-0.47-3.8-3.19-3.75c-2.16,0.04-2.19-1.56-2.11-3.15
			c0.1-1.99,1.55-1.82,2.87-1.82c7.16-0.01,14.31-0.02,21.47,0c1.44,0,3.08-0.36,3.29,1.94c0.2,2.16-0.76,3.22-2.8,3.11
			c-3.36-0.18-3.62,1.74-3.59,4.41c0.1,10.98,0.16,21.97-0.03,32.95c-0.06,3.38,1.11,4.2,4.32,4.16c7.36-0.09,7.64,0.11,8.73-7.03
			c0.59-3.82,2.65-3.89,5.54-3.8c3.93,0.12,2.35,3.02,2.31,4.73c-0.28,10.95-0.35,10.95-11.25,10.95
			C983.09,706.09,979.59,706.09,976.1,706.09z"/>
		<path class="st3" d="M927.21,706.09c-5.66,0-11.31,0.04-16.97-0.03c-1.48-0.02-3.51,0.76-3.74-1.96c-0.18-2.14,0.76-3.11,2.8-3.14
			c2.24-0.03,2.73-1.41,2.73-3.3c-0.02-11.48-0.04-22.96,0.02-34.44c0.01-2.18-0.59-3.52-3.02-3.51c-1.88,0.01-2.58-1.01-2.54-2.86
			c0.05-2.23,1.5-2.2,3.07-2.2c7.15,0.01,14.31,0,21.46,0.01c1.48,0,3.01-0.26,3.1,2.09c0.09,2.2-0.85,3.09-2.88,2.98
			c-2.68-0.14-3.36,1.29-3.34,3.68c0.07,11.47,0.1,22.95,0.03,34.42c-0.01,2.62,1.05,3.31,3.57,3.39c7.86,0.24,8.11,0.39,9.42-7.37
			c0.62-3.69,2.78-3.34,5.33-3.46c3.42-0.16,2.57,2.11,2.53,3.99c-0.2,11.69-0.2,11.69-11.6,11.69
			C933.86,706.09,930.54,706.09,927.21,706.09z"/>
		<path class="st3" d="M466.17,706.09c-3.32,0-6.65,0.01-9.97-0.01c-1.48-0.01-3.06,0.21-3.12-2.12c-0.05-1.82,0.52-2.98,2.43-2.95
			c3.25,0.05,3.15-2.1,3.14-4.39c-0.04-10.81-0.06-21.61,0.01-32.42c0.02-2.54-0.02-4.64-3.44-4.58c-2.1,0.04-2.2-1.57-2.09-3.18
			c0.14-1.99,1.64-1.77,2.93-1.78c6.82-0.02,13.63-0.03,20.45,0c1.4,0.01,3.14-0.44,3.41,1.84c0.24,2.07-0.58,3.25-2.69,3.2
			c-2.66-0.06-2.79,1.58-2.78,3.6c0.04,11.3,0.06,22.6-0.01,33.9c-0.02,2.34,0.44,3.88,3.18,3.86c1.99-0.01,2.42,1.3,2.32,3.04
			c-0.1,1.92-1.39,1.97-2.78,1.97C473.48,706.09,469.82,706.09,466.17,706.09z"/>
		<path class="st3" d="M646.38,651.35c-5.41,0.08-8.66-2.93-8.62-7.97c0.04-4.81,3.25-7.9,8.24-7.96c5.16-0.06,8.73,3.26,8.73,8.1
			C654.74,648.2,651.44,651.28,646.38,651.35z"/>
		<path class="st1" d="M833.02,678.82c-0.78-0.11-1.56-0.22-2.33-0.33c0.8-1.15,1.87-1.71,3.28-1.54
			C833.65,677.57,833.33,678.19,833.02,678.82z"/>
		<path class="st4" d="M481.05,223.06c-0.32-3.8-5.51-6.29-2.92-10.87c1.21-1.89-0.42-4.27,1.07-6.11c1.87-1.77,3.37-0.36,4.85,0.64
			c3.31,2.22,6.59,4.49,9.87,6.76c3.23,2.24,5.7,1.69,7.96-1.62c9.81-14.33,21.21-27.31,33.96-39.09
			c27.46-25.37,59.14-43.31,95.09-53.69c25.47-7.36,51.49-10.3,77.88-8.81c28.07,1.58,55.17,7.88,81,19.23
			c29.94,13.15,56.1,31.65,78.46,55.49c7.74,8.25,14.94,16.98,21.17,26.43c2.7,4.09,5.26,4.31,9.03,1.69
			c2.25-1.56,4.2-3.91,7.33-3.89c0.6,2.94,0.85,5.89,0.11,8.84c0.24,7.2,3.18,13.51,6.5,19.69c0.77,1.44,2.41,2.69-0.89,3.27
			c-18.41,3.24-25.75,11.01-28.41,30.57c-1.55,11.39-1.62,22.8,0.66,34.19c1.34,6.72,4.5,12.48,8.36,17.92
			c1.59,2.24,1.48,3.63-0.67,5.36c-10.48,8.48-14.84,19.64-14.07,32.95c0.07,1.28-0.52,2.24-1.23,3.16
			c-2.49,3.24-3.67,7.02-4.63,12.01c-5.45-8.13-10.49-15.57-15.45-23.06c-3.95-5.96-7.86-11.95-11.65-18.01
			c-1.47-2.35-3.21-3.69-6.09-3.21c-3.94,0.65-5.97-1.59-7.88-4.71c-5.37-8.79-11.02-17.42-16.55-26.11
			c-0.44-0.4-0.95-0.63-1.54-0.68c-11.09,0.04-22.19,0.01-33.28,0.02c-2.49,0-4.98,0.07-7.25-1.22c-0.61-0.74-1.22-1.49-1.83-2.23
			c-0.74-0.44-1.44-1.05-1.6-1.85c-1.43-7.17-6.29-7.77-12.59-7.73c-40.12,0.25-80.24,0.13-120.37,0.11c-1.8,0-3.66,0.41-5.41-0.41
			c-3.18,0.73-3.11,3.94-4.53,5.99c-1.59,2.29-2.96,4.74-4.43,7.12c-0.28,0.04-0.55,0.07-0.83,0.11
			c-10.23,0.34-20.48-0.16-30.7,0.27c-0.47,0.16-0.91,0.39-1.31,0.69c-0.2,0.15-0.4,0.28-0.6,0.42c-0.23,0.09-0.46,0.18-0.69,0.27
			c-6.87,8.15-12.25,17.34-18.23,26.11c-1.75,2.56-3.48,4.33-6.8,3.88c-2.86-0.38-3.97,1.83-5.32,3.77
			c-16.82,24.13-33.68,48.24-50.52,72.36c-0.75,1.07-1.3,2.34-3.22,2.71c0.83-3.75,1.47-7.36,2.45-10.87
			c3.95-14.23,1.55-28.24-2.97-41.61c-2.88-8.49-9.68-15.07-18.03-19.15c-2.15-1.05-2.4-1.76-1.53-3.61
			c0.71-1.5,1.12-3.16,1.93-4.59c4.96-8.77,6.17-18.14,4.18-27.88c-1.38-6.72,0-13.18,0.82-19.76c0.69-5.58,1.18-11.19-1.64-16.59
			c-1.33-2.54-2.99-3.69-5.67-4.1c-5.18-0.79-6.6-2.84-5.66-8.1c1.4-7.83,2.9-15.64,4.35-23.45
			C480.49,229.06,481.33,226.06,481.05,223.06z"/>
		<path class="st5" d="M653.14,386.75c11.8,10.97,23.62,21.93,35.4,32.92c8.59,8.02,8.52,8,17.37,0
			c12.94-11.69,25.96-23.3,38.94-34.94c4.07-2.31,8.53-2.16,13.01-2.16c30.21,0.04,60.42,0.02,90.63,0.03
			c2.98,0,5.98-0.14,8.93,0.51c0.6,0.21,1.17,0.48,1.72,0.8c5.37,11.6,10.7,23.23,16.14,34.8c1.04,2.2,0.58,3.59-1.15,5.19
			c-4.78,4.41-10.64,6.8-16.59,8.88c-4.42,1.54-7.1,4.45-9.28,8.44c-4.62,8.48-5.32,17.76-5.99,27.04
			c-0.25,3.43-1.24,6.44-2.76,9.45c-4.41,8.73-9.33,17.28-10.52,27.26c0.5,0.63,0.62,1.22-0.15,1.74c-1.18,1.96-1.05,4.11-0.86,6.26
			c0.74,1.66,0.71,3.32,0.02,4.98c-0.55,4.94,1.54,9.48,2.25,14.22c1.29,8.65-1.49,15.32-8.76,20.18
			c-6.43,4.3-13.92,7.37-17.29,15.22c-0.94,2.18-2.85,0.94-4.39,0.58c-8.47-2.01-16.3-5.73-24.31-8.98
			c-8.62-3.5-17.18-7.38-26.34-9.15c-15.56-3-30.03,0.66-43.63,8.35c-13.67,7.73-10.69,9.18-25.56-0.55
			c-14.11-9.23-29.06-15.34-46.25-14.77c-10.1,0.34-19.61,3.34-29.17,6.19c-8.1,2.41-8.59,2.38-12.85-4.43
			c-3.41-5.45-9.06-7.71-14.27-10.51c-3.34-1.8-5.28-4.14-6.37-7.75c-3.34-11.01-4.62-22.48-7.75-33.52
			c-1.04-3.68-2.16-7.34-3.38-10.96c-2.93-8.66-7.87-15.32-17.43-17.44c-4.59-1.02-7.94-3.83-10.54-7.77
			c-5.67-8.59-14.6-13.48-22.65-19.3c-3.12-2.25-3.55-3.8-1.2-7.05c11.42-15.75,22.57-31.7,33.81-47.57
			c0.56-0.33,1.16-0.49,1.81-0.48c30.06,0.31,60.12,0.04,90.18,0.14C640.61,382.63,647.55,381.56,653.14,386.75z"/>
		<path class="st5" d="M695.54,20.86c90.72,1.47,168.9,32.96,233.03,97.84c11.37,11.5,21.49,24.09,31.08,37.12
			c2.4,3.26,1.61,4.49-1.38,6.4c-3.44,2.2-5.95,4.55-10,0.36c-2.83-2.94-7.34-2.17-10.73,0.13c-12.04,8.16-23.81,16.49-28.93,31.28
			c-1.83,5.29-7.83,6.9-12.17,9.8c-1.89,1.26-2.74-1.34-3.62-2.54c-16.86-22.89-37.04-42.35-60.63-58.18
			c-33.98-22.81-71.36-36.54-112.15-40.16c-72.98-6.47-136.71,15.01-190.91,64.4c-11.23,10.23-21.3,21.57-30.15,33.93
			c-1.96,2.74-3.18,2.96-6.29,1.25c-8.09-4.46-12.33-9.85-12.4-20.06c-0.16-22.6-17.8-26.62-33.99-24.46
			c-2.9,0.39-5.45,1.78-7.54,3.67c-3.03,2.76-5.24,0.72-7.38-1c-2.89-2.32,0.2-3.88,1.22-5.28
			C484.34,84.79,553.22,41.56,639.35,25.9C657.9,22.53,676.59,20.76,695.54,20.86z"/>
		<path class="st5" d="M925.86,309.13c-2.26-7.16-1.08-14.41-0.53-21.63c0.19-2.48,0.94-4.91,1.22-7.38c0.16-1.45,1.56-3.5-0.9-4.22
			c-2.23-0.65-3.23,1.05-3.98,2.87c-1.54,3.7-3.78,6.08-8.36,5.28c-1.82-0.32-3.01-1.14-4.23-2.29c-2.66-2.52-5.34-5.02-8.05-7.48
			c-1.14-1.03-2.41-1.94-4-0.87c-1.47,0.99-1.62,2.57-1.17,4.03c0.54,1.72,1.23,3.5,2.27,4.95c2.34,3.23,4.55,6.71,7.5,9.31
			c12.92,11.33,17.65,26.65,21.32,42.53c0.6,2.58,0.86,5.25,1.2,7.88c0.51,3.91-1.37,4.86-4.69,3.47
			c-4.22-1.77-8.36-3.72-13.37-5.95c0.53,4.12,2.75,6.25,4.75,8.21c4.49,4.42,5.62,9.89,6.24,15.83
			c1.28,12.19-0.53,24.71,3.82,36.58c0.23,0.61,0.49,1.21,0.74,1.82c1.3,2.62,1.13,5.25,0.07,7.89
			c-2.69,7.49-5.78,14.79-11.05,20.89c-1.5,1.74-3.25,3.3-5.06,4.72c-1.76,1.38-3.92,2.17-6,0.88c-2.35-1.45-1.61-3.65-0.82-5.72
			c0.89,0.81,0.75,1.76,0.61,2.08c-0.19-0.84,0.49-2.35-0.44-3.81c2.38-3.72,4.15-7.55,2.06-12.04c-0.2-6.99,0.04-13.98-0.12-20.97
			c3.41-10.59,6.82-21.18,10.22-31.78c1.95-6.09,1.43-6.93-4.95-7.34c-2.78-0.18-5.18-1.06-7.34-2.74
			c-1.31-1.02-2.59-2.08-3.89-3.13c-2.23-1.81-4.42-2.02-6.72-0.05c-2.5,2.14-0.63,3.94,0.47,5.62c3.9,5.97,8.18,11.72,10.08,18.76
			c1,1.12,0.98,2.24,0.01,3.37c-1.61,3.47-1.02,7.59-3.23,10.96c-2.27-0.44-3.02-2.46-4.22-3.96c-1.97-2.47-3.76-5.09-5.82-7.48
			c-0.99-1.15-2.15-2.95-4.11-1.35c-1.63,1.33-1.13,3.04-0.34,4.55c1.32,2.5,2.72,4.96,4.24,7.35c5.01,7.93,7.15,16.78,8.26,25.93
			c0.4,3.3,0.75,7.44-2.5,9.04c-2.78,1.37-5.64-1.5-7.8-3.44c-10.47-9.38-13.42-21.88-10.54-34.65c2.75-12.25,5.56-24.52,8.3-36.8
			c0.5-2.23,1.61-4.37,2.68-6.43c3.56-6.92,4.34-7.24,11.92-5.96c2.04,0.34,4.73,1.65,5.96-0.23c1.06-1.61-1.22-3.56-2.13-5.27
			c-2.66-4.99-5.57-9.86-8.3-14.81c-2.09-3.79-3.99-7.68-4.11-12.15c0.69-7.98,0.72-15.96-0.02-23.94
			c-0.6-11.76,2.06-22.09,12.29-29.39c3.23-2.31,6.01-2.93,9.48-0.42c3.36,2.44,6.86,4.94,10.69,6.39
			c9.39,3.56,14.75,10.34,18.65,19.33c3.3,7.59,7.89,14.64,12.26,21.71c1.95,3.16,2.94,6.27,2.42,9.89
			c-1.77,12.17-5.43,23.69-12.41,33.91c-1.86,2.72-3.81,6.86-7.98,5.53c-4.29-1.37-3.77-5.84-3.73-9.42
			c0.1-8.73,3.85-16.42,7.22-24.22c1.18-2.74,2.29-5.54,3.09-8.4c0.47-1.68,0.88-3.88-1.35-4.78c-1.93-0.77-3.5,0.26-4.75,1.83
			c-2.35,2.94-3.76,6.23-4.08,10.01c-0.17,1.97-0.56,3.93-0.98,6.71c-2.24-3.64-4.87-6.12-5.99-9.61c1.49-6.15-0.05-12.45,0.4-15.57
			C926.01,296.69,927.13,302.97,925.86,309.13z"/>
		<path class="st5" d="M430.17,196.95c-5-2.65-5.38,1.65-5.75,4.37c-0.82,5.99-0.11,11.99,2.17,17.66
			c3.8,9.47,6.95,19.04,7.11,29.41c0.1,6.68-0.16,13.31-1.92,19.77c-0.55,2.04-1.23,4.35-3.75,4.87c-2.77,0.57-4.25-1.44-5.69-3.29
			c-4.13-5.34-7.54-11.45-8.74-17.8c-1.13-5.98,1.38-12.38,3.69-18.24c0.88-2.24,1.66-4.07,0.35-6.54
			c-5.5-10.32-4.15-20.62,2.18-29.78c6.32-9.14,13.41-17.83,20.95-25.99c5.86-6.34,13.89-7.1,21.75-3.86
			c7.41,3.04,11.09,9.29,10.54,17.11c-0.72,10.28-2.33,20.49-3.6,30.73c-0.39,3.1-1.17,5.99,2.37,8.24
			c2.11,1.35,1.77,4.38,1.02,6.54c-3.45,9.89-4.69,20.02-4.18,30.44c0.07,1.33-0.39,2.63-1.56,3.52c-1.12-4.07-0.27-8.21-0.48-12.3
			c1.88-2.16,0.25-4.96,1.23-7.29c-0.77,2.06,0.25,4.35-0.7,6.4c-1,4.39-0.96,8.79-0.03,13.18c-5.94,8.55-14.14,13.79-24.08,16.47
			c-2.23,0.6-4.5,0.26-6.12-1.21c-1.99-1.79-0.05-3.74,0.65-5.43c2.65-6.44,5.1-12.95,7.96-19.32c2.08-4.62,1.85-10.13,1.49-15.24
			c-0.98-13.73,2.93-25.47,12.66-35.39c3.69-3.77,7.1-8,8.38-13.37c0.41-1.72,1.08-3.88-0.76-5.06c-1.9-1.22-3.44,0.36-4.77,1.61
			c-10.68,9.98-20.15,20.77-23.84,35.46c-0.15,0.61-0.6,1.15-1.01,1.9c-5.31-3.45-6.43-8.67-6.84-14.28
			c-0.32-4.43,0.81-8.93-0.69-13.29L430.17,196.95z"/>
		<path class="st5" d="M422.86,373.12c-8.95-4.92-15.4-11.6-17.81-20.71c-3.84-14.52-11.64-26.77-19.85-38.89
			c-2.06-3.04-2.54-6.1-1.88-9.45c1.79-9.14,3.65-18.27,5.61-27.38c1.48-6.85,5.28-9.83,12.32-9.97
			c12.44-0.25,22.44,8.14,24.32,20.47c1.08,7.04,0.88,14.25,3.99,20.98c2.27,4.91,6.27,8.11,9.79,11.84
			c1.36,1.44,2.86,2.63,2.49,5.07c-1.73,11.51-3.24,23.06-5.01,34.57c-0.31,2.04-0.34,5.13-2.39,5.68
			c-2.14,0.57-3.35-2.26-4.69-3.87c-2.68-3.23-4.63-6.82-5.85-10.91c-2.93-9.89-5.8-19.82-9.3-29.52
			c-3.16-8.76-2.3-17.74-2.74-26.67c-0.13-2.66-0.29-5.31-0.42-7.97c-0.09-1.82,0.17-3.88-2.56-3.98c-2.71-0.1-4.08,1.6-4.3,3.94
			c-0.54,5.63-0.83,11.28-1.17,16.92c-0.37,5.95-0.33,5.89-6,4.41c-1.64-0.43-3.8-1.76-4.94,0.38c-1.06,1.99,1.28,2.76,2.42,3.79
			c14.34,12.93,21.51,29.78,26.19,47.95C422.14,363.91,423.91,368.01,422.86,373.12z"/>
		<path class="st5" d="M960.83,352.89c-1.45,3.18-0.67,6.55-0.62,9.8c0.08,5.39-0.54,10.62-2.36,15.68
			c-4.04,11.25-7.98,22.53-11.76,33.88c-3.01,9.04-10.66,14.1-19.15,17.77c-0.82-0.85-0.3-2.11-0.77-3.06
			c-0.33-0.59-0.68,0.51-0.17,0.08c0.79,1.04,0.54,2.05-0.09,3.05c-2.17-6.07,1.32-10.52,4.71-14.66c1.66-2.03,2.39-3.71,2-6.18
			c-0.86-5.41-0.55-10.98-2.27-16.26c-0.73-2.25,0.38-3.89,1.63-5.46c5.29-6.62,8.68-14.09,10.25-22.42
			c0.68-3.63,3.04-6.22,5.72-8.54c9.57-8.31,20.04-15.43,30.4-22.67c4.48-3.13,11.14-1.85,15.8,3.07c6.77,7.15,9.92,16,11.02,25.66
			c0.25,2.18-0.73,3.89-2.03,5.45c-5.76,6.89-9.45,14.82-11.83,23.41c-1.37,4.95-4.45,8.86-7.48,12.85
			c-2.04,2.69-4.2,2.81-6.89,1.26c-3.52-2.04-6.43-4.78-8.88-7.94c-2.09-2.7-1.93-5.51,0.72-8.02c8.35-7.9,14.77-17.59,23.32-25.32
			c1.26-1.14,3.26-2.28,1.9-4.53c-1.46-2.41-3.54-1.83-5.72-1.05c-4.92,1.77-9.41,4.21-13.01,8.09c-1.04,1.12-2.01,2.47-3.73,1.85
			c-1.78-0.64-1.46-2.4-1.59-3.85c-0.31-3.63,0.26-7.35-1.14-10.87c-0.68-1.7-1.25-3.57-3.39-3.94c-2.31-0.39-3.79,0.76-4.61,2.87
			L960.83,352.89z"/>
		<path class="st5" d="M739.91,369.05c-0.9-1.23-0.86-2.63-0.69-4.04c0.83-1.08,1.06-2.1-0.31-2.96c-0.91-1.24-0.89-2.65-0.71-4.08
			c0.43-1.02,1.15-2.06-0.29-2.89l-0.03,0.04c-0.48-0.83-0.34-1.75-0.39-2.65c-0.02-1.02,0.24-1.97,0.68-2.88
			c0.23-0.48,0.26-0.66,0.23-0.44c-0.16-0.09-0.39,0.01-0.71,0.33c-0.61,0.13-1.11-0.01-1.54-0.42c-0.55-2,0.8-4.35-1.12-6.11
			l0.01,0.02c1.26-1.67,3.07-0.89,4.6-0.9c27.92-0.05,55.85,0.02,83.77-0.11c3.24-0.02,5.11,1.07,6.88,3.7
			c5.75,8.55,11.76,16.92,17.67,25.36c-0.29,2.42-2.08,1.78-3.57,1.74c-2.64-0.51-5.3-0.32-7.96-0.32
			c-29.25-0.02-58.5-0.02-87.76,0.01C745.26,372.44,742,372.32,739.91,369.05z"/>
		<path class="st5" d="M549.76,370.91c5.95-8.61,11.93-17.2,17.81-25.85c1.31-1.94,3.01-2.26,5.13-2.26
			c27.94,0.04,55.88,0.09,83.82-0.05c3.55-0.02,4.09,1.13,3.58,4.32c-0.94,5.89-1.47,11.86-2.16,17.79
			c-0.7,0.95-0.24,2.13-0.63,3.14c-0.31,0.25-0.68,0.36-1.04,0.35c-1.25,0.75-0.69,2.86-2.41,3.3c-2.55,1.11-5.24,0.75-7.88,0.76
			c-28.71,0.09-57.43-0.1-86.13,0.11c-0.53,0.1-1.08,0.17-1.62,0.23c-2.68-0.14-5.25-0.99-7.89-1.41
			C550.14,371.2,549.95,371.05,549.76,370.91z"/>
		<path class="st5" d="M559.96,522.94c-0.49,2.15-1.78,4.05-3.98,3.55c-2.17-0.48-1.02-2.82-0.93-4.31
			c0.15-2.56-0.95-4.52-2.48-6.31c-4.32-5.07-6.91-10.87-7.7-17.5c-0.6-5.07-3.59-9.56-3.67-14.77c-0.02-1.27-0.77-1.72-1.94-1.63
			c-1.1,0.09-1.87,0.66-2.16,1.72c-0.43,1.59,0.68,2.85,0.98,4.29c0.63,3.33,0.94,6.65-0.17,9.95c-4.97,0.02-11.22-5.17-13.46-11.38
			c-3-8.27-4.86-16.98-9.76-24.49c-0.45-0.7-0.8-1.46-1.29-2.14c-0.54-0.75-0.97-1.97-2.24-1.28c-0.83,0.45-0.79,1.39-0.6,2.23
			c0.67,3.09,1.14,6.23,2.07,9.24c1.21,3.9-0.12,4.6-3.81,4.07c-7.69-1.11-13.74-4.71-18.33-10.9c-0.86-1.16-1.58-2.89-3.44-2.23
			c-1.9,0.68-1.22,2.53-1.16,3.92c0.22,5,2.12,8.75,7.04,11.05c10.09,4.7,20.46,9.04,28.91,16.57c2.56,2.28,6.14,4.12,6.17,8.36
			c-0.61,0.21-0.93,0.45-1.14,0.37c-1.96-0.75-4.42-2.9-5.88-1c-1.62,2.1,1.23,4.06,2.45,5.83c2.75,3.96,7.51,4.74,11.53,6.58
			c3.84,1.76,7.43,3.74,10.32,6.83c0.73,0.78,2.21,1.46,1.42,2.82c-0.68,1.17-2.11,0.7-3.21,0.64c-2.37-0.13-4.56-1.02-6.6-2.14
			c-16.93-9.34-33.26-19.6-48.15-32.01c-5.54-4.62-9.21-10.45-11.08-17.41c-1.35-5.02-1.15-9.9,1.52-14.49
			c1.47-2.53,3.42-4.28,6.52-4.91c6.19-1.24,12.38-2.59,18.45-4.34c6.84-1.97,12.65-0.12,16.32,5.43
			c5.86,8.86,12.44,15.98,22.5,20.69c8.88,4.16,12.06,13.93,14.01,23.19c1.05,4.96,3.31,9.72,3.02,14.96
			C559.68,515.62,560.26,519.28,559.96,522.94z"/>
		<path class="st5" d="M912.86,206.03c2-12.09,9.69-20.6,18.34-28.27c10.16-9,13.48-8.54,22.16,2.11
			c9.2,11.29,11.62,23.65,5.49,37.22c-5.6,12.4-9.13,25.26-9.07,38.98c0.01,2.31,0.17,5.42-1.6,6.51c-2.21,1.37-3.87-1.77-5.88-2.73
			c-0.89-0.42-1.65-1.11-2.47-1.69c-10.08-7.17-10.84-10.16-4.04-20.74c5.34-8.31,9.65-17.07,12.99-26.33
			c0.39-1.09,0.75-2.21,0.96-3.35c0.27-1.43,1.12-3.45-0.2-4.2c-1.82-1.05-2.9,1.09-3.88,2.28c-4.05,4.9-7.27,10.32-9.84,16.13
			c-0.58,1.31-0.7,3.1-2.82,2.87c-2.16-0.23-1.83-2.02-2.06-3.42c-1.04-6.38-2.06-12.77-3.16-19.59c-3.91,2.11-4.34,5.66-4.84,8.93
			c-0.99,6.55,0.46,12.95,2.16,19.2c1.1,4.02,0.74,7.89,0.21,11.84c-0.1,0.78,0.02,1.81-0.94,2.08c-1.19,0.34-1.82-0.68-2.33-1.48
			c-0.9-1.39-1.82-2.82-2.42-4.35c-3.19-8.06-5.81-16.28-6.79-24.94C912.81,210.75,913.34,208.39,912.86,206.03z"/>
		<path class="st5" d="M965.99,279.01c0.12,2.32,0.13,4.65,0.39,6.95c0.23,2.04,0.59,4.02-1.59,5.28c-2.31,1.34-4.56,0.94-6.54-0.56
			c-5.21-3.99-7.66-9.46-6.34-15.8c2.67-12.84,5.44-25.7,9.04-38.31c2.85-9.96,10.04-12.31,19.08-7.3c1.6,0.88,3.13,1.91,4.61,2.97
			c12.98,9.31,15.76,16.97,10.65,32.07c-2.75,8.12-3.91,16.25-4.63,24.77c-1.32,15.83-10.04,27.46-23.94,35.13
			c-0.98,0.54-2.04,1.42-3.17,0.41c-1.05-0.93-0.57-2.12-0.29-3.26c3.68-15.17,8.13-30.14,11.18-45.49
			c1.66-8.37,7.71-14.99,12.57-21.94c1.2-1.72,3.88-3.47,1.5-5.99c-2.14-2.28-4.32-0.58-6.3,0.56c-6.06,3.48-12.05,7.06-18.11,10.54
			c-1.79,1.03-2.76,2.1-1.97,4.38c1.36,3.9,2.44,7.9,3.64,11.86C966.85,276.45,966.5,277.73,965.99,279.01z"/>
		<path class="st5" d="M481.13,320.05c-0.84,6.58-3.88,12.31-6.98,18c-5.75,10.58-12.5,20.44-21.16,28.89
			c-1.07,1.04-2.15,2.11-3.34,2.99c-1.44,1.07-3.08,2.69-4.89,1.71c-1.86-1-1.3-3.18-1.08-5c0.47-3.79,0.56-7.74,2.69-11.05
			c6.99-10.82,10.1-23.08,13.3-35.3c2.95-11.29,6.01-22.5,12.35-32.5c0.82-1.3,2.29-3.02,0.29-4.35c-1.52-1-2.8,0.46-3.89,1.42
			c-4.33,3.79-7.08,8.78-10.21,13.48c-0.71,1.06-1.19,2.7-2.78,2.53c-1.74-0.19-1.25-2.11-1.84-3.2c-0.47-0.87-0.66-1.9-1.17-2.74
			c-1.27-2.07-3.17-4.29-5.51-3.23c-2.06,0.93-0.05,3.33,0.39,4.87c2.93,10.09,5.64,20.19,5.12,30.85
			c-0.23,4.71-0.88,9.23-5.19,12.66c-1.44-2.7-0.96-5.41-0.92-7.9c0.15-9.98-1.23-19.57-6.4-28.3c-2.68-4.53-1.81-8.71,1.26-12.47
			c8.32-10.17,19.28-16.23,31.89-19.15c5.89-1.36,9.45,2.75,8.36,9.5c-1.68,10.44-2.1,20.82-0.32,31.26
			C480.89,315.35,480.82,317.7,481.13,320.05z"/>
		<path class="st5" d="M863.04,483.17c-0.11,4.56-1.98,8.61-4.05,12.5c-1.57,2.96-3.28,6.62-7.65,2.63
			c-1.29-1.18-2.74-0.02-3.53,1.45l0,0.04c-2.1,5.78-0.49,11.76-0.88,17.64c-0.18,2.68-0.2,5.32-1.52,7.73
			c-1.05,1.91-2.2,4.05-4.72,3.87c-2.86-0.2-3.62-2.49-3.8-4.99c0.67-0.66,0.59-1.49,0.56-2.31c-0.03,0.81,0.07,1.65-0.55,2.33
			c-1.17-1.89-1.08-3.98-0.95-6.08c0.47-3.35,0.27-6.69-0.07-10.04c-0.14-3.64,1.38-6.81,2.98-9.9
			c7.15-13.71,11.82-28.14,13.06-43.63c0.57-7.14,4.1-12.05,11.01-14.52c5.96-2.13,11.4-5.39,16.99-8.32
			c7.55-3.96,15.81,0.14,17.11,8.41c0.95,6.06,2.69,11.99,2.8,18.19c0.05,3.1-1.35,5.13-4.43,4.45c-5.02-1.11-7.79,1.59-10.42,5.04
			c-2.31,3.03-4.68,6.02-9.52,6c0.37-2.62,0.29-5.21,1.16-7.42c1.18-2.97,1.65-5.59-1.36-7.41c-3.21-1.95-6.61-4.22-10.34-0.85
			c-0.15,0.15-0.3,0.3-0.44,0.46c-0.37,0.19-0.76,0.34-1.15,0.46c-0.35,0.17-0.67,0.4-0.87,0.73c1.59,3.45,0.58,7.06,0.8,10.59
			c0.15,2.43-0.05,4.88,0.72,7.25C864.31,479.46,863.49,481.29,863.04,483.17z"/>
		<path class="st5" d="M471.07,384.99c-3.81-0.81-6.43-4.91-11.18-4.07c-0.29,2.13,1.29,3.35,2.18,4.77
			c4.16,6.63,8.65,13.06,11.78,20.28c0.49,1.12,1.64,2.48,0.49,3.65c-1,1.01-2.55,0.5-3.84,0.29c-2.37-0.39-4.37-1.61-6.07-3.25
			c-6.62-6.39-10.1-14.33-11.3-23.35c-0.53-3.97,0.47-7.51,2.84-10.8c5.48-7.59,11.28-14.88,18.71-20.67
			c5.67-4.42,10.73-3.88,15.09,1.9c6.29,8.33,8.87,18.12,10.22,28.29c-0.8,0.97-0.21,2.18-0.57,3.29c0.38-0.5,0.11-1.24,0.75-1.54
			c1.38,3.68,1.84,7.69,0.6,11.2c-4.62,13.04-6.39,26.72-9.54,40.08c-0.53,2.24-0.82,4.23-3.9,3.94c-3.14-0.29-2.37-2.57-2.52-4.43
			c-0.32-4.26,0.7-8.59-0.65-12.8c-0.73-0.55-0.65-1.15-0.1-1.77c0.22-2.87-0.11-5.97-1.44-8.23c-5.67-9.65-3.34-19.89-3.07-30.05
			c0.17-6.62,2.07-12.68,4.47-18.71c0.59-1.49,2.39-3.55-0.13-4.72c-2.22-1.03-4.21,0.08-5.43,2.21c-1.92,3.36-2.58,7.15-3.58,10.83
			c-1.21,4.44-1.02,9.18-2.84,13.49c-0.84-1.01-0.27-2.4-0.72-3.52c-0.32-0.6-0.69,0.56-0.18,0.12
			C471.91,382.62,471.66,383.81,471.07,384.99z"/>
		<path class="st5" d="M805.89,311.09c5.21,7.27,10.42,14.54,15.54,21.69c-1.03,1.71-2.33,1.1-3.36,1.1
			c-26.44,0.04-52.88-0.05-79.32,0.13c-3.68,0.02-4.93-1.13-5.25-4.63c-0.57-6.11-1.55-12.18-2.35-18.26
			c0.73-0.73,1.63-0.89,2.61-0.72c23.46,0.45,46.92,0.17,70.38,0.14C804.78,310.52,805.36,310.7,805.89,311.09z"/>
		<path class="st5" d="M652,564.93c-7.16,0.36-13.52,3.24-19.75,6.4c-6.68,3.39-12.89,7.58-18.97,11.96
			c-3.1,2.23-6.22,4.51-9.61,6.23c-7.88,4.01-14.51,4.29-18.83-5.44c-1.57-3.55-4.25-6.32-6.92-9.06c-1.47-1.51-2.3-2.95,0.34-4.21
			c19.54-9.26,38.83-19.17,61.46-18.23c12.85,0.53,24.36,4.85,35.22,11.25c2.54,1.5,6.63,3.94,4.46,7.06
			c-1.65,2.37-5.79,0.42-8.52-1.37c-3.62-2.37-7.24-4.78-11.86-4.61C656.68,565.29,654.34,565.27,652,564.93z"/>
		<path class="st5" d="M664.85,311.14c-0.75,6.43-1.49,12.86-2.26,19.29c-0.24,1.98-0.86,3.37-3.37,3.36
			c-27.27-0.13-54.54-0.18-81.81-0.27c-0.14,0-0.28-0.15-1.19-0.68c4.92-6.99,9.81-13.95,14.7-20.91c0.54-0.31,1.11-0.55,1.7-0.75
			c3.1-0.7,6.26-0.54,9.4-0.55c20.37-0.04,40.74,0.06,61.1-0.06C663.77,310.54,664.34,310.73,664.85,311.14z"/>
		<path class="st5" d="M908.91,450.97c1.33-7.32,5.93-11.35,13.01-10.9c4.8,0.3,9.62,0.88,14.34,1.81
			c8.49,1.68,10.52,5.04,8.21,13.59c-2.48,9.16-5.91,18-10.03,26.56c-4.07,8.45-8.78,16.46-15.68,22.95c-3.39,3.19-6.91,6.29-11.8,7
			c-1.69-0.66-3.36,0.27-5.04,0.06c-1.87-0.18-2.78-1.28-2.97-3.08c-0.08-2,0.9-3.99,0.03-6c0.25-3.45,1.63-6.41,4.12-8.77
			c9.62-9.12,15.64-21.45,26.44-29.56c2.27-1.71,3.06-4.67,3.95-7.36c0.51-1.54,1.51-3.31-0.23-4.54c-1.84-1.29-3.8-0.72-5.49,0.62
			c-3.11,2.45-5.78,5.5-9.58,7.04c-4.98,2.02-7.66,0.76-9.26-4.4C909.77,454.32,909.77,452.65,908.91,450.97z"/>
		<path class="st5" d="M720.95,568.85c-4.96-0.31-9.49,1.33-14,3.1c-1.07,0.42-2.3,2.13-3.41,0.39c-0.76-1.2-0.12-2.66,0.88-3.63
			c1.31-1.26,2.63-2.63,4.21-3.46c14.31-7.55,29.42-10.41,45.37-6.94c7.03,1.53,13.19,5.07,17.09,11.28
			c4.64,7.4,10.84,11.71,19.62,12.46c4.6,0.4,8.32,3.03,12.14,5.48c3.96,2.54,3.16,4.91,0.42,7.5c-5.5,5.2-12.17,5.69-19.13,4.34
			c-6.04-1.17-11.03-4.33-15.51-8.54c-6.9-6.47-13.48-13.41-22.39-17.3c-6.14-2.68-12.39-4.86-19.22-4.69
			C725,569.78,722.98,569.78,720.95,568.85z"/>
		<path class="st5" d="M427.98,399.97c-0.76,15.78,0.17,12.62-11.59,7.03c-3.14-1.49-6.07-3.46-8.94-5.43
			c-6.9-4.72-7.02-12.34-0.91-18.22c8.77-8.45,39.86-5.39,45.16,13.23c0.91,3.21,0.98,6.16-1.33,9.35
			c-4.37,6.03-3.43,13.36,1.71,19.22c5.59,6.38,11.33,12.64,16.82,19.11c1.26,1.49,4.59,2.86,1.97,5.6
			c-2.11,2.2-5.37,2.14-7.35,0.48c-7.51-6.32-14.94-12.97-18.43-22.49c-3.08-8.41-5.39-17.11-8.05-25.67
			c-1.36-4.39-0.53-8.92-0.91-13.37c-0.12-1.46,0.85-3.57-1.81-3.88c-2.47-0.28-3.02,1.43-3.51,3.32c-0.8,3.04-1.7,6.05-2.57,9.07
			c-0.59-0.42-0.84-0.87-0.11-1.4c-0.67,0.15-0.58,0.7-0.56,1.16C427.62,398.06,427.32,399.09,427.98,399.97z"/>
		<path class="st5" d="M893.97,471.1c-0.25,7.76,0.17,15.19,0.42,22.64c0.21,6.28-2.81,11.89-6.67,16.86
			c-10.53,13.57-24.76,22.43-39.49,31.48c-0.74-4.21,1.5-6.55,3.73-8.62c5.12-4.75,10.51-9.22,15.68-13.92
			c1.38-1.25,3.88-2.55,2.88-4.65c-0.81-1.71-3.44-1.15-5.05-0.65c-4.53,1.41-4.88-1.19-4.51-4.4c0.21-1.79,0.62-3.68,1.45-5.24
			C869.88,490.68,881.83,480.91,893.97,471.1z"/>
		<path class="st5" d="M730.98,575.96c17.6,4.13,30.89,14.27,40.54,29.33c0.86,1.35,3.44,3.47,0.65,4.97
			c-2.8,1.51-6.02,4.7-9.39,1.13c-3.42-3.62-6.41-7.65-9.71-11.39c-6.82-7.72-14.41-14.38-24.95-16.43
			c-9.44-1.84-17.82,0.85-25.17,6.75c-5.3,4.25-6.53,9.88-4.22,16.17c1.26,3.43,2.8,6.77,4.43,10.04c1.77,3.57-0.11,4.15-2.98,3.83
			c-1.98-0.22-3.85-0.84-5.52-2.12c-6.41-4.91-8.54-18.79-2.89-24.5c7.49-7.57,16.05-13.96,26.19-17.82
			c0.82-0.74,1.79-0.94,2.85-0.8c2.44,0.66,4.88,0.67,7.32,0C729.21,574.99,730.18,575.18,730.98,575.96z"/>
		<path class="st5" d="M730.11,378.16c-9.95,9.92-19.91,19.84-29.86,29.75c-1.06-0.59-0.67-1.47-0.47-2.32
			c0.42-9.94,0.26-19.88,0.09-29.82c-0.18-0.57-0.23-1.14-0.13-1.73c9.01-7.31,18.03-14.62,27.95-22.68
			c1.23,8.99,2.37,17.09,3.41,25.21c0.06,0.47-0.64,1.05-0.99,1.57c-1.07-1.37-0.4-2.98-0.6-4.47c-0.75-1.87-1.49-3.74-1-5.09
			c0.1,1.08-0.44,2.92,0.84,4.56C729.84,374.78,728.85,376.64,730.11,378.16z"/>
		<path class="st5" d="M665.97,364.94c0.52-4.09,1.05-8.19,1.73-13.54c9.63,7.92,18.96,14.62,27.24,22.64
			c0.96,9.53,0.31,19.09,0.38,28.63c0.01,1.33-0.25,2.64-1.4,3.55c-9.97-9.05-19.54-18.52-28.96-28.15
			c-0.32-0.43-0.37-0.88-0.15-1.36c1.55-2.34,0.43-5.45,2.19-7.73c1.21-2.1-0.04-4.5,0.77-6.64c1.24-1.58,0.53-3.31,0.6-3.81
			c-0.31-1.85-0.99-0.9-0.4-1.21c0.28-0.15,0.45-0.08,0.45,0.21c-0.01,1.46,0.34,2.95-0.34,4.37c-1.41,2.16,0.06,4.71-0.95,6.92
			c-0.41,0.51-0.87,0.55-1.38,0.14C665.48,367.6,665.24,366.25,665.97,364.94z"/>
		<path class="st5" d="M642.84,603.03c-1.12-2.36-0.35-4.94-0.82-7.36c-0.36-1.84,0.14-4.31-2.49-4.84c-3-0.61-4.1,1.66-4.95,3.88
			c-0.77,2.01-1.25,4.13-1.98,6.16c-0.61,1.7-0.05,4.24-3.14,4.23c-2.93-0.01-4.79-1.36-5.51-4.08c-1.76-6.69-0.84-12.89,4-18.12
			c9.46-10.24,34.5-12.32,45.55-3.82c0.49,0.38,0.86,0.93,1.63,1.8c-4.41,1.82-8.57,3.38-12.58,5.25c-3.15,1.47-6.28,3.1-9.15,5.04
			c-7.16,4.86-8.51,8.47-6.62,16.89c0.3,1.32,0.58,2.49-0.55,3.91c-1.6-0.9-2.29-2.19-2.23-3.96
			C642.61,606.57,644.9,604.29,642.84,603.03z"/>
		<path class="st5" d="M693.9,350.25c-7.03-6.78-14.03-13.6-21.12-20.32c-1.64-1.55-1.96-3.21-1.75-5.35
			c1.42-13.86,1.39-13.87,15.41-13.62c0.83,0.01,1.65,0.11,2.48,0.17c0.51,0.36,1.07,0.63,1.67,0.79c2.64,0.06,4.59,1.05,4.65,3.99
			c0.25,10.59,0.29,21.18-0.03,31.77C695.19,348.69,694.75,349.6,693.9,350.25z"/>
		<path class="st5" d="M707.99,311.02c2.15-0.02,4.3-0.1,6.45-0.06c10.01,0.2,7.08-1.42,9.53,8.29c1.59,6.3-0.25,10.47-4.97,14.56
			c-5.99,5.19-11.4,11.06-17.06,16.64c-0.47-0.44-0.81-0.97-1.01-1.58c-0.33-12.1-1.05-24.21,0.36-36.29
			C703.14,310.35,705.98,312.49,707.99,311.02z"/>
		<path class="st5" d="M483.07,510.96c-9.73-2.44-18.25-11.18-19.33-19.81c-0.51-4.07,0.15-7.92,4.11-9.79
			c3.76-1.78,7.08,0.07,9.82,2.84c0.92,0.94,1.98,1.91,2.46,3.08c2.86,6.92,5.82,13.73,12.03,18.48c0.91,0.7,1.14,1.99,0.9,3.22
			C490.34,512.77,486.36,510.11,483.07,510.96z"/>
		<path class="st6" d="M554.49,541.17c-16.73,10.23-63.64-3.04-68.99-19.48c3.99-0.74,7.04,1.51,10.15,3.24
			c13.03,7.24,26.71,12.62,41.56,14.59C542.88,540.27,548.62,540.62,554.49,541.17z"/>
		<path class="st7" d="M420.91,436.07c-4.1-0.25-7.32-1.46-10-3.87c-5.29-4.78-7.92-10.92-8.83-17.87
			c-0.14-1.06-0.56-2.45,0.73-3.12c1.2-0.62,2.21,0.07,3.06,0.97c5.46,5.81,11.33,11.15,18.08,15.46c2.19,1.4,1.55,3.46,0.93,5.35
			C424.19,435.08,422.82,436.38,420.91,436.07z"/>
		<path class="st8" d="M471.24,432.91c-7.11-3.66-10.46-10.27-13.46-17.15c-1.2-2.74-0.31-4.02,2.72-4.01
			c2.53,0.02,4.95,0.05,6.87,2.07c4.29,4.53,7.12,9.89,9.04,15.78c0.4,1.22,0.18,2.27-0.54,3.27
			C474.34,433.84,472.79,433.76,471.24,432.91z"/>
		<path class="st7" d="M450.51,459.66c-4.58-0.6-8.79-0.75-12.15-3.71c-2.39-2.1-3.35-4.66-1.99-7.57c1.38-2.97,4.03-3.86,7.12-3.06
			c6.01,1.55,11.26,4.28,14.36,10.02c0.91,1.68-0.21,2.62-1.5,3.03C454.3,459.02,452.16,459.32,450.51,459.66z"/>
		<path class="st8" d="M831.8,567.72c-0.98,1.51-1.74,3.24-2.99,4.48c-3.32,3.33-8.77,2.97-11.93-0.56
			c-3.12-3.5-2.65-9.01,1.01-11.91c3.69-2.92,9.07-2.28,11.9,1.53c0.87,1.17,1.38,2.6,2.05,3.92
			C832.68,566.04,832.75,566.89,831.8,567.72z"/>
		<path class="st8" d="M582.34,561.12c-2.1,4.23-5.76,4.8-9.7,3.66c-3.5-1.01-5.37-3.73-5.52-7.46c-0.16-4.01,1.83-6.84,5.48-7.97
			c3.9-1.21,7.59-0.65,9.73,3.56C581.48,555.65,582.43,558.38,582.34,561.12z"/>
		<path class="st9" d="M964.5,421.91c-4.79,3.61-9.85,6.81-15.56,8.69c-2.23,0.74-5.36,1.7-6.81-0.94
			c-1.56-2.84,1.22-4.51,3.21-5.89c5.77-3.99,11.65-7.8,19.22-6.7C965.85,418.7,965.94,420.31,964.5,421.91z"/>
		<path class="st10" d="M528.75,528.58c-10.42,0.96-18.16-1.09-22.98-9.65c-0.69-1.23-2.02-2.51-0.72-4.03
			c1-1.17,2.49-0.95,3.74-0.54C516.53,516.9,522.83,521.45,528.75,528.58z"/>
		<path class="st11" d="M630.04,288.08c44.11-0.03,88.22-0.05,132.33-0.16c2.78-0.01,4.37,0.98,5.24,3.52
			c0.75,2.19,1.6,4.35,2.4,6.53c-2.76,1.68-2.64-1.15-2.9-2.21c-1.32-5.49-4.61-6.89-10.13-6.86c-40.42,0.24-80.83,0.14-121.25,0.09
			C633.83,288.99,631.72,289.74,630.04,288.08z"/>
		<path class="st12" d="M857.96,383.98c-34.66,0.01-69.32,0.12-103.98-0.15c-3.18-0.02-5.96,2.27-9.14,0.91
			c0.63-0.62,1.26-1.24,1.89-1.86c2.31-1.07,4.75-1.3,7.28-1.3c32.39,0.02,64.79-0.01,97.18,0.08
			C853.58,381.66,856.65,380.5,857.96,383.98z"/>
		<path class="st12" d="M653.14,386.75c-0.64,1.11-1.66,1.38-2.37,0.37c-2.55-3.6-6.24-3.13-9.89-3.13
			c-30.71,0.03-61.42,0.03-92.14-0.02c-1.9,0-4.02,0.74-5.68-0.93c1.72-1.81,3.99-1.43,6.1-1.43c31.09-0.04,62.19-0.02,93.28-0.04
			c2.37,0,4.64,0.28,6.77,1.33C650.52,384.18,651.83,385.47,653.14,386.75z"/>
		<path class="st13" d="M857.96,383.98c-1.66-1.69-3.77-0.93-5.67-0.94c-35.18-0.09-70.36-0.12-105.55-0.17
			c0.38-0.35,0.76-0.7,1.15-1.05c1.83-1.13,3.87-0.8,5.85-0.8c32.95-0.02,65.91-0.03,98.86,0.02c2.08,0,4.38-0.68,6.13,1.2
			c0.13,0.56,0.27,1.12,0.41,1.67C858.74,383.94,858.35,383.96,857.96,383.98z"/>
		<path class="st14" d="M747.97,381c0.45-2.07,2.06-0.94,3.06-0.94c34.43-0.06,68.86-0.06,103.29-0.03c1.57,0,3.39-0.63,4.58,1.11
			c-1.1,0.52-2.28,0.35-3.44,0.35c-34.53,0.01-69.07,0.01-103.6-0.01C750.55,381.48,749.18,381.8,747.97,381z"/>
		<path class="st15" d="M747.97,381c36.97,0.05,73.95,0.09,110.92,0.14c-0.05,0.37-0.11,0.74-0.16,1.1
			c-14.81-0.08-29.62-0.18-44.43-0.23c-22.14-0.08-44.27-0.13-66.41-0.19C747.92,381.55,747.94,381.27,747.97,381z"/>
		<path class="st16" d="M739.91,369.05c6.63,3.41,13.77,1.85,20.68,1.89c26.22,0.17,52.44,0.05,78.66,0.1c1.91,0,4.01-0.7,5.72,0.87
			c-1.48,1.54-3.42,1.07-5.2,1.07c-31.47,0.03-62.95,0.03-94.42,0.01c-1.79,0-3.71,0.37-5.22-1.08
			C740.05,370.95,739.98,370,739.91,369.05z"/>
		<path class="st17" d="M740.12,371.9c34.95,0,69.89,0,104.84,0.01c1.13,0.1,2.29,0.34,3.01-0.91c0.84,0.31,0.87,1.06,0.95,1.78
			c-0.9,1.09-2.15,0.69-3.26,0.7c-34.11,0.02-68.22,0.02-102.32,0c-1.13,0-2.35,0.32-3.33-0.61
			C740,372.54,740.04,372.22,740.12,371.9z"/>
		<path class="st18" d="M740,372.87c36.3-0.03,72.61-0.06,108.91-0.09c-1.29,1.98-3.31,1.19-5.02,1.19
			c-32.94,0.05-65.88,0.05-98.81,0C743.37,373.97,741.37,374.72,740,372.87z"/>
		<path class="st19" d="M656.01,374.01c0.08,1.89-1.38,0.95-2.04,0.95c-34.31,0.05-68.61,0.05-102.92,0.04
			c-0.64,0-1.28-0.11-1.92-0.2c-0.09-0.01-0.2-0.25-0.2-0.37c0.01-0.15,0.13-0.3,0.2-0.45c3.94-2.79,8.46-1.18,12.59-1.22
			c29.55-0.29,59.1-0.17,88.64-0.14C652.35,372.61,654.39,372.5,656.01,374.01z"/>
		<path class="st20" d="M557.02,371.97c0.35,0,0.69,0.01,1.04,0.01c1.74-0.87,3.6-0.43,5.39-0.44c30.57-0.09,61.13,0.09,91.7-0.11
			c0.77,0.2,1.03,0.67,0.79,1.43l0.14,0.23c-1.09,0.58-2.27,0.39-3.42,0.39c-33.23,0.01-66.47,0.01-99.7-0.01
			c-1.3,0-2.67,0.36-3.86-0.53c-0.25-0.84-0.11-1.54,0.67-2.04c0,0,0.43,0.11,0.43,0.11C552.39,371.91,554.83,371.01,557.02,371.97z
			"/>
		<path class="st13" d="M649.21,382.9c-35.39,0.05-70.77,0.09-106.16,0.14c-0.37-0.03-0.75-0.07-1.12-0.1
			c-0.01-0.3,0.05-0.58,0.2-0.84c1.52-1.43,3.43-1.08,5.22-1.08c31.97-0.02,63.94-0.02,95.91-0.01c1.65,0,3.35-0.17,4.84,0.83
			C648.47,382.2,648.84,382.55,649.21,382.9z"/>
		<path class="st14" d="M542.09,381.11c0.61-0.98,1.58-1.1,2.61-1.1c34.09,0,68.19-0.01,102.28-0.01c0.31,0,0.7,0.02,0.91,0.2
			c0.16,0.13,0.09,0.53,0.12,0.8c-1.05,0.72-2.25,0.48-3.39,0.48c-33.2,0.01-66.41,0.01-99.61,0.01
			C544.03,381.49,543.02,381.61,542.09,381.11z"/>
		<path class="st21" d="M549.09,372.95c35.66,0.05,71.32,0.1,106.99,0.15c0,0.31-0.02,0.61-0.06,0.91
			c-35.63-0.01-71.26-0.02-106.88-0.04C549.12,373.63,549.11,373.29,549.09,372.95z"/>
		<path class="st15" d="M542.09,381.11c35.31-0.03,70.62-0.07,105.92-0.1c0.03,0.28,0.06,0.56,0.09,0.84
			c-30.35,0.05-60.7,0.1-91.05,0.16c-4.97,0.01-9.95,0.07-14.92,0.1C542.12,381.78,542.1,381.44,542.09,381.11z"/>
		<path class="st22" d="M713.05,593.83c2.9,0.12,5.09,0.09,3.33,3.32c-1.35,2.46-1.75,5.39-3.66,7.59
			c-1.63,1.87-3.44,2.48-5.69,1.04c-2.21-1.42-2.71-3.4-1.6-5.59C707.16,596.78,709.96,594.58,713.05,593.83z"/>
		<path class="st11" d="M697,313.02c0.67-0.67,1.33-1.33,2-2c1.75,1.94,1.37,4.35,1.38,6.64c0.06,10.78-0.03,21.56,0.06,32.33
			c0.01,0.62-0.05,1.24-0.17,1.86c-1.69,0.45-2.22-1.15-3.27-1.83c-1.38-1.26-1.37-2.95-1.38-4.6c-0.06-9.26-0.06-18.53,0-27.79
			C695.63,315.98,695.62,314.28,697,313.02z"/>
		<path class="st23" d="M733.04,311.11c-0.63,0-1.27,0.01-1.9,0.01c-0.1-0.32-0.14-0.64-0.13-0.98c0.82-0.8,1.86-0.6,2.83-0.6
			c23.1-0.01,46.2-0.01,69.3,0c0.97,0,2.02-0.22,2.8,0.65c0.01,0.3-0.01,0.59-0.06,0.89c-0.33,0.03-0.67,0.06-1,0.09
			c-6.97,0.75-13.96,0.27-20.94,0.31c-15.33,0.09-30.65,0.04-45.98,0.01C736.32,311.49,734.63,311.84,733.04,311.11z"/>
		<path class="st23" d="M591.92,311.86c-0.33,0.02-0.67,0.04-1,0.07c0.05-0.53,0.11-1.05,0.16-1.58c0.8-1.28,2.09-0.78,3.18-0.78
			c22.63-0.03,45.26-0.02,67.89-0.01c0.98,0,2.02-0.19,2.85,0.58c-0.05,0.34-0.1,0.68-0.15,1.01c-0.31,0.02-0.62,0.04-0.94,0.07
			c-14.56,0.71-29.13,0.08-43.69,0.32C610.79,311.67,601.35,311.09,591.92,311.86z"/>
		<path class="st18" d="M805.94,310.2c-24.98-0.02-49.96-0.03-74.94-0.05c1.21-1.7,3.01-1.09,4.59-1.1
			c21.93-0.04,43.86-0.04,65.79,0C802.96,309.05,804.78,308.43,805.94,310.2z"/>
		<path class="st18" d="M665,310.12c-24.64,0.07-49.28,0.15-73.91,0.22c0.86-1.78,2.53-1.3,3.94-1.3
			c22.12-0.02,44.24-0.02,66.36-0.01C662.68,309.03,664.09,308.76,665,310.12z"/>
		<path class="st24" d="M693.92,406.22c0.03-8.99,0.02-17.98,0.11-26.97c0.02-1.75-0.66-3.7,0.91-5.21
			c0.38,0.33,0.77,0.65,1.15,0.98c0.84,10.73,0.26,21.48,0.27,32.22c0,0.21-0.47,0.42-0.73,0.63
			C695.06,407.31,694.49,406.77,693.92,406.22z"/>
		<path class="st25" d="M700.27,351.85c-0.09-0.29-0.2-0.58-0.32-0.86c-0.57-13.3-1.03-26.6,0.25-39.89c2.6-0.03,5.2-0.05,7.8-0.08
			c-1.77,1.7-4.01,0.57-5.99,0.98c-1.18,10.58-0.25,21.2-0.48,31.8c-0.04,1.93-0.63,3.98,0.52,5.83c0.05,0.28,0.02,0.55-0.09,0.82
			C701.8,351.4,700.92,351.49,700.27,351.85z"/>
		<path class="st26" d="M689.01,311.96c-0.02-0.28-0.05-0.56-0.08-0.83c2.28-0.02,4.55-0.03,6.83-0.05
			c1.13,0.88,0.71,2.14,0.71,3.24c0.03,11.46,0.03,22.92,0,34.38c0,1.12,0.37,2.35-0.66,3.28c-0.74-0.09-1.5-0.15-1.71-1.08
			c0.94-11.92,0.17-23.87,0.42-35.8C694.61,310.65,690.5,313.61,689.01,311.96z"/>
		<path class="st27" d="M689.01,311.96c4.76-0.9,6.32,0.9,6.11,5.83c-0.4,9.46-0.09,18.94-0.15,28.42
			c-0.01,1.58,0.63,3.36-0.88,4.69c-0.16-0.19-0.22-0.41-0.2-0.65c0.03-10.08-0.1-20.17,0.18-30.25
			C694.2,315.88,693.78,312.71,689.01,311.96z"/>
		<path class="st28" d="M771.85,300.2c13.32-0.05,26.64-0.12,39.96-0.11c0.72,0,1.43,0.64,2.15,0.97c-1.19,0.67-2.47,0.94-3.83,0.94
			c-11.63,0.02-23.26,0.04-34.89-0.01c-1.19,0-2.32-0.18-3.27-0.96C771.89,300.76,771.85,300.48,771.85,300.2z"/>
		<path class="st29" d="M771.97,301.04c13.99,0.01,27.99,0.02,41.98,0.03c-0.01,0.34-0.02,0.68-0.03,1.02
			c-0.34,0.01-0.67,0.02-1.01,0.04c-13.65,0.59-27.29,0.79-40.93-0.11C771.96,301.68,771.96,301.36,771.97,301.04z"/>
		<path class="st30" d="M771.98,302.01c13.64,0.04,27.29,0.07,40.93,0.11c-0.71,0.87-1.69,0.91-2.69,0.91c-11.7,0-23.4,0-35.1,0
			C773.96,303.03,772.78,303.1,771.98,302.01z"/>
		<path class="st31" d="M695.8,351.98c-0.02-13.63-0.03-27.27-0.05-40.9c1.02,0.26,1.21,1.06,1.25,1.95c0,12.33,0,24.66,0,36.99
			C696.96,350.89,696.79,351.68,695.8,351.98z"/>
		<path class="st18" d="M700.2,311.1c-0.08,13.3-0.17,26.59-0.25,39.89c-1.57-1.5-0.91-3.43-0.92-5.18
			c-0.06-11.6-0.03-23.19-0.03-34.79C699.4,311.05,699.8,311.07,700.2,311.1z"/>
		<path class="st32" d="M904.9,395.99c1.73,6.98,1.55,13.97,0.12,20.97C903.24,409.98,903.54,402.99,904.9,395.99z"/>
		<path class="st11" d="M621.02,303.03c-1.99,1.86-4.43,0.9-6.65,0.96c-8.61,0.2-17.23,0.19-25.84,0.35
			c-1.18,0.02-1.37-0.56-1.57-1.39c0,0-0.02,0-0.02,0c0.94-0.72,1.99-1.2,3.19-1.22c9.25-0.18,18.5-0.2,27.75,0.01
			C619.07,301.76,620.12,302.24,621.02,303.03z"/>
		<path class="st33" d="M621.02,303.03c-11.36-0.02-22.72-0.05-34.08-0.07c0-0.31,0.03-0.62,0.09-0.93
			c1.26-1.06,2.78-0.98,4.28-0.98c8.49-0.02,16.97-0.02,25.46,0c1.5,0,3.02-0.07,4.27,1.01
			C621.03,302.37,621.02,302.7,621.02,303.03z"/>
		<path class="st34" d="M621.03,302.05c-11.33-0.01-22.67-0.02-34-0.02c0-0.33,0-0.66,0-0.99c11.31-0.87,22.62-0.68,33.93-0.11
			c0,0,0.12,0.26,0.12,0.26C621.09,301.48,621.07,301.76,621.03,302.05z"/>
		<path class="st35" d="M699.91,406.05c0.11,0.62,0.23,1.24,0.34,1.86c-1.2-0.37-1.31-1.36-1.31-2.37c0-9.91-0.01-19.83,0.05-29.74
			c0-0.59,0.49-1.17,0.75-1.75c0.04,0.32,0.12,0.63,0.22,0.94C700.8,385.34,700.88,395.7,699.91,406.05z"/>
		<path class="st35" d="M695.63,407.86c0.15-10.95,0.31-21.9,0.46-32.85c1.84,3.07,0.76,6.44,0.85,9.66
			c0.19,6.28,0.11,12.57,0.02,18.86C696.94,405.04,697.75,406.94,695.63,407.86z"/>
		<path class="st18" d="M864.93,457.96c0.42,0.2,1.22,0.4,1.22,0.6c-0.02,7.67-0.12,15.35-0.22,23.02c0,0.11-0.19,0.21-0.28,0.32
			c-0.23-0.31-0.47-0.63-0.7-0.94c-1.95-7.68-2.37-15.36-0.04-23.05L864.93,457.96z"/>
		<path class="st36" d="M862.96,457.99c0.37,0.02,0.74,0.03,1.12,0.05c0.52,7.65,0.73,15.3-0.11,22.94
			c-0.31,0.73-0.62,1.46-0.93,2.2c-0.04-2.07-0.08-4.15-0.12-6.22C862.19,470.63,862.13,464.31,862.96,457.99z"/>
		<path class="st37" d="M891.01,280.06c1.55,7.98,1.52,15.96,0.02,23.94C890.15,296.02,890.67,288.04,891.01,280.06z"/>
		<path class="st38" d="M863.97,480.97c0.04-7.65,0.07-15.29,0.11-22.94c0.27-0.08,0.54-0.12,0.82-0.13
			c0.01,7.68,0.03,15.36,0.04,23.05C864.62,480.97,864.29,480.97,863.97,480.97z"/>
		<path class="st39" d="M847.81,499.75c2.55,6.93,0.42,14.03,1.2,21.02c-0.4,0.01-0.8,0.02-1.21,0.03c0-7,0-14,0-21.01
			C847.8,499.79,847.81,499.75,847.81,499.75z"/>
		<path class="st12" d="M582.34,561.12c-2.46-2.35-0.66-5.68-1.9-8.31c0.63,0.03,1.25,0.07,1.88,0.1
			C584.34,555.64,584.3,558.37,582.34,561.12z"/>
		<path class="st40" d="M483.07,510.96c2.99-2.34,6.97,0.26,9.98-1.98c0.55,2.29-0.61,2.98-2.67,2.9
			C487.91,511.78,485.4,512.1,483.07,510.96z"/>
		<path class="st37" d="M559.96,522.94c-1.45-3.67-1.57-7.32,0.07-10.97C561.1,515.63,561.64,519.29,559.96,522.94z"/>
		<path class="st41" d="M484.07,420c0.03,0.59,0.07,1.18,0.1,1.77c0,5.38,0,10.77,0,16.16C483.71,431.94,481.79,425.91,484.07,420z"
			/>
		<path class="st42" d="M960.82,352.89c2.35,5.22,0.47,10.63,0.01,15.97c0-5.32,0-10.64,0-15.96
			C960.83,352.89,960.82,352.89,960.82,352.89z"/>
		<path class="st43" d="M430.15,196.95c0,4.94,0,9.88,0,14.82c-0.51-4.95-2.37-9.94,0.01-14.82
			C430.17,196.95,430.15,196.95,430.15,196.95z"/>
		<path class="st42" d="M718.15,575.02c1.86-1.09,9.65-1.58,12.78-0.78c0.07,0.02,0.14,0.27,0.11,0.39
			c-0.03,0.15-0.16,0.28-0.25,0.41C726.58,576.23,722.36,576.21,718.15,575.02z"/>
		<path class="st44" d="M835.88,507.93c1.72,3.33,1.62,6.68,0.07,10.04C835.27,514.63,834.8,511.29,835.88,507.93z"/>
		<path class="st45" d="M481.05,223.06c1.64,3,0.8,6,0.03,9C479.44,229.06,479.48,226.06,481.05,223.06z"/>
		<path class="st46" d="M912.86,206.03c1.68,2.37,1.71,4.73-0.04,7.09C911.69,210.74,912.03,208.38,912.86,206.03z"/>
		<path class="st47" d="M666.08,369.02c0.31,0,0.62-0.01,0.93-0.01c-0.5,2.7,1.38,5.98-1.95,7.99c-0.83-1.33-0.72-2.69-0.09-4.05
			c0.04-0.33-0.01-0.65-0.14-0.95c-0.24-0.34-0.32-0.72-0.24-1.13C664.87,370.07,665.34,369.44,666.08,369.02z"/>
		<path class="st48" d="M718.15,575.02c4.22,0.01,8.44,0.01,12.65,0.02c0.09,0.3,0.15,0.61,0.18,0.92
			c-1.02,0.04-2.04,0.09-3.06,0.13c-2.3,0.51-4.59,0.6-6.88-0.05c-1.02-0.04-2.04-0.07-3.07-0.11
			C718.01,575.62,718.06,575.32,718.15,575.02z"/>
		<path class="st46" d="M481.13,320.05c-1.68-2.34-1.65-4.69-0.02-7.04C482.16,315.35,482.04,317.7,481.13,320.05z"/>
		<path class="st49" d="M905.92,218.06c-0.33-2.94-0.73-5.89-0.11-8.84C907.93,212.14,907.3,215.09,905.92,218.06z"/>
		<path class="st42" d="M451.35,385.91c0-2.94,0-5.87,0-8.81c0.15,0,0.29,0.01,0.44,0.01c0,2.94,0,5.88,0,8.81
			C451.64,385.91,451.5,385.91,451.35,385.91z"/>
		<path class="st42" d="M963.2,206.96c0-2.94,0-5.88,0-8.83c0.15,0,0.3,0,0.45,0.01c0,2.94,0,5.88,0,8.83
			C963.5,206.97,963.35,206.97,963.2,206.96z"/>
		<path class="st50" d="M537.91,497.94c0.06-3.32,0.12-6.64,0.17-9.95C539.55,491.33,539.86,494.65,537.91,497.94z"/>
		<path class="st18" d="M652,564.93c2.34-0.74,4.68-0.84,7.02-0.01C656.69,566.55,654.35,566.54,652,564.93z"/>
		<path class="st51" d="M898.96,502.98c1.48,2.01,1.51,4.01-0.03,6C897.9,506.97,898.29,504.97,898.96,502.98z"/>
		<path class="st52" d="M901.9,512.05c1.66-1.6,3.34-1.58,5.04-0.06C905.27,512.76,903.6,513.07,901.9,512.05z"/>
		<path class="st53" d="M902.78,378.69c0-1.12-0.01-2.25-0.01-3.37c0.35-0.28,0.48-2.11,0.97-0.69c0.65,1.88,0.16,4.16-0.63,6.29
			C903,380.18,902.89,379.44,902.78,378.69z"/>
		<path class="st54" d="M738.04,351.97c-0.06,1.05-0.11,2.1-0.17,3.15c-1.12-0.79-0.38-2.63-1.85-3.22c-0.81-0.91-0.55-1.9-0.24-2.9
			c0,0,0.36,0.05,0.36,0.05c0.61-0.01,1.22-0.01,1.82-0.02C738.69,350,738.62,350.98,738.04,351.97z"/>
		<path class="st18" d="M471.24,432.91c1.54-0.01,3.09-0.03,4.63-0.04c-1.71,2.05-3.78,0.98-5.76,0.68c0.06-0.12,0.1-0.32,0.19-0.36
			C470.6,433.07,470.93,433,471.24,432.91z"/>
		<path class="st55" d="M666.08,369.02c-0.12,0.85-0.32,1.65-1.24,2.01c-1.57-0.1-1.48-0.89-0.79-1.92c1.7-0.9,0.57-3.1,1.92-4.16
			C666,366.3,666.04,367.66,666.08,369.02z"/>
		<path class="st42" d="M400.27,396.75c0-1.87,0-3.74,0-5.61c0.17,0,0.33-0.01,0.5-0.01c0,1.9,0,3.8,0,5.7
			C400.6,396.8,400.44,396.78,400.27,396.75z"/>
		<path class="st56" d="M925.73,409.95c-0.02-2.63-0.05-5.26-0.07-7.89C927.66,404.67,927.54,407.31,925.73,409.95z"/>
		<path class="st57" d="M642.84,603.03c4.05,0.81,0.07,3.47,1.15,4.96C642.73,606.54,642.91,604.76,642.84,603.03z"/>
		<path class="st16" d="M738.91,362.05c0.68-0.11,1.61-0.94,1.94,0.21c0.38,1.31,0.09,2.53-1.63,2.74
			C739.11,364.02,739.01,363.03,738.91,362.05z"/>
		<path class="st18" d="M813.37,564.12c0.64,1.64,0.85,3.21,0.19,4.96C812.4,567.29,813.28,565.65,813.37,564.12z"/>
		<path class="st39" d="M664.05,369.11c-0.01,0.75-0.15,1.56,0.79,1.92c0.14,0.33,0.13,0.65,0,0.98c-3.05-0.93-1.49-3.18-1.74-5.19
			C664.33,367.49,663.87,368.39,664.05,369.11z"/>
		<path class="st58" d="M479.2,206.08c-0.25,2.05,0.46,4.28-1.07,6.11C478.39,210.14,477.14,207.82,479.2,206.08z"/>
		<path class="st59" d="M930.04,335.8c-0.17,2.81-0.25,4.05-0.37,6.13C928.77,339.69,928.65,338.32,930.04,335.8z"/>
		<path class="st39" d="M736.45,361.78c-0.53-2.26-0.7-3.51-0.05-4.9C737.33,358.3,737.07,359.62,736.45,361.78z"/>
		<path class="st59" d="M664.27,326.14c0.95,2.15,0.81,3.41,0.44,4.88C663.45,329.75,664.17,328.45,664.27,326.14z"/>
		<path class="st59" d="M665.3,319.16c0.93,1.13,0.79,2.39,0.45,3.71C664.15,321.78,665.6,320.39,665.3,319.16z"/>
		<path class="st39" d="M730.28,356.44c1.07,1.93,0.66,3.25,0.43,5.15C729.64,359.66,730.04,358.34,730.28,356.44z"/>
		<path class="st60" d="M737.83,363.28c0.08,2.33,0.54,3.62-0.41,4.89C736.82,366.68,736.71,365.31,737.83,363.28z"/>
		<path class="st39" d="M729.25,310.14c0.95,2.16,0.82,3.41,0.45,4.88C728.43,313.75,729.15,312.45,729.25,310.14z"/>
		<path class="st61" d="M902.97,429c1.5,1.55,1.08,3.27,0.36,5.94c-0.25-2-0.39-3.11-0.53-4.21
			C902.86,430.15,902.91,429.58,902.97,429z"/>
		<path class="st16" d="M737.9,355.08c0.68-0.13,1.59-1.06,1.94,0.2c0.35,1.29-0.63,2.07-1.64,2.69
			C738.1,357,738,356.04,737.9,355.08z"/>
		<path class="st41" d="M831.8,567.72c0.02-0.85,0.03-1.69,0.05-2.54c0.18-0.4,0.36-0.8,0.54-1.2c1.08,1.3,0.68,2.67,0.19,4.04
			c-0.02,0.05-0.29,0.05-0.42,0C832.02,567.96,831.92,567.82,831.8,567.72z"/>
		<path class="st39" d="M735.79,349c0.08,0.97,0.16,1.94,0.24,2.9c-0.06,0.64-0.11,1.28-0.17,1.92
			C735.05,352.21,734.54,350.6,735.79,349z"/>
		<path class="st62" d="M656.94,367.99c0.33-1.04,0.66-2.08,0.99-3.12c0.06,1.07,0.11,2.14,0.17,3.2c0.52,0.99,0.62,1.97-0.1,2.92
			c-0.3,0.01-0.6,0.03-0.89,0.05C656.11,370.07,656.24,369.05,656.94,367.99z"/>
		<path class="st59" d="M720.95,568.85c2.02,0,4.05,0,6.07,0C725,570.52,722.98,570.51,720.95,568.85z"/>
		<path class="st63" d="M471.07,384.99c0-1.27,0-2.55,0-4.14c1.67,1.31,0.64,2.77,0.98,3.96
			C471.72,384.87,471.39,384.93,471.07,384.99z"/>
		<path class="st64" d="M735.03,342.94c0,1.31,0,2.62,0,5.29c-1.26-2.75-1.4-4.08,0.01-5.27
			C735.05,342.96,735.03,342.94,735.03,342.94z"/>
		<path class="st65" d="M500.16,383.78c-0.08,0.75-0.17,1.5-0.39,3.45c-0.87-2.63-1.11-3.98,0.21-5.2
			C500.04,382.61,500.1,383.2,500.16,383.78z"/>
		<path class="st59" d="M666.98,312.21c-0.08,0.89-0.07,2.51-0.26,2.54c-1.23,0.16-0.55-0.93-0.66-1.49
			c-0.08-0.39,0.17-0.85,0.27-1.28C666.55,312.05,666.76,312.13,666.98,312.21z"/>
		<path class="st55" d="M664.97,372.95c0.03,1.35,0.06,2.7,0.09,4.05c-0.03,0.36-0.06,0.71-0.09,1.07
			C663.28,376.36,663.81,374.66,664.97,372.95z"/>
		<path class="st66" d="M427.98,399.97c-1.08-0.8-0.91-1.96-0.88-3.07c0.01-0.36-0.09-1.08,0.6-0.81c0.29,0.12,0.36,0.8,0.54,1.23
			C428.16,398.2,428.07,399.09,427.98,399.97z"/>
		<path class="st67" d="M827.99,517.95c-0.01-1.66-0.01-3.32-0.02-4.98C829.44,514.63,829.43,516.29,827.99,517.95z"/>
		<path class="st60" d="M964.5,421.91c0.02-1.61,0.03-3.23,0.05-4.84C966.6,418.71,966.65,420.32,964.5,421.91z"/>
		<path class="st53" d="M828.84,506.71c0.05-0.58,0.1-1.16,0.15-1.74c1.32,1.1,1.08,2.47,0.55,4.72
			C829.18,508.21,829.01,507.46,828.84,506.71z"/>
		<path class="st61" d="M908.91,450.97c1.53,1.67,1.53,3.35,0,5.02C908.47,454.32,908.48,452.65,908.91,450.97z"/>
		<path class="st39" d="M965.99,279.01c-0.07-1.25-0.15-2.5-0.22-3.74C968.09,276.38,966.87,277.7,965.99,279.01z"/>
		<path class="st68" d="M925.9,430.09c0.07-1.07,0.14-2.13,0.23-3.48c1.19,1.21,0.63,2.37,0.8,3.41
			C926.63,430.61,926.3,430.81,925.9,430.09z"/>
		<path class="st69" d="M376.24,290.29c-0.15-0.44-0.29-0.88-0.44-1.33c0.37-1.32-0.09-2.88,1.17-3.94
			C377.17,286.84,377.14,288.62,376.24,290.29z"/>
		<path class="st64" d="M658,370.99c0.03-0.97,0.07-1.95,0.1-2.92c1.26,1,1.3,2.61,0.71,3.6C658.19,372.73,658.23,371.33,658,370.99
			z"/>
		<path class="st70" d="M656.94,367.99c0.06,1.02,0.11,2.03,0.17,3.05c-0.24,0.71-0.21,1.58-1.17,1.83c0-0.31-0.02-0.61-0.04-0.92
			c-0.29-0.38-0.47-0.8-0.54-1.27c0.29-0.86-0.08-1.9,0.67-2.64C656.33,368.02,656.63,368,656.94,367.99z"/>
		<path class="st71" d="M817.19,691.09c0-1.49-0.01-2.99,0-4.48c0.02-5.1,1.39-6.11,6.18-4.59c4.25,1.35,6.46,6.02,5.44,11.51
			c-0.84,4.55-4.93,7.74-9.22,7.46c-2.08-0.14-2.45-1.2-2.41-2.91C817.22,695.74,817.19,693.41,817.19,691.09z"/>
		<path class="st71" d="M826.83,667.36c-0.25,3.03-0.62,5.65-2.82,7.53c-1.7,1.45-3.78,2.55-5.89,1.68
			c-1.88-0.78-0.82-2.93-0.91-4.46c-0.15-2.64-0.14-5.29,0-7.93c0.08-1.52-0.9-3.68,1.18-4.35c1.68-0.55,3.56-0.02,5.2,0.98
			C826.2,662.42,826.32,665.13,826.83,667.36z"/>
		<path class="st71" d="M759.97,679.82c0-5.48,0.24-10.98-0.08-16.44c-0.23-3.97,1.62-4.15,4.44-3.15c3.31,1.16,5.66,3.51,6.94,6.73
			c3.53,8.87,3.55,17.78-0.03,26.67c-0.69,1.72-1.76,3.18-3.12,4.45c-2.03,1.89-4.51,3.66-7.1,2.54c-2.22-0.96-0.95-3.84-1.01-5.85
			C759.87,689.79,759.97,684.8,759.97,679.82z"/>
		<path class="st71" d="M869.71,670.88c1.42,4.48,2.86,8.96,4.26,13.45c0.51,1.63-0.08,2.24-1.86,2.49
			c-8.03,1.13-8.81,0.28-6.36-7.48c0.88-2.78,1.74-5.57,2.61-8.36C868.81,670.95,869.26,670.92,869.71,670.88z"/>
		<path class="st71" d="M641.54,670.52c1.33,4.27,2.56,8.57,4.04,12.79c0.94,2.68,0.26,3.44-2.56,3.53
			c-7.98,0.26-7.98,0.37-5.58-7.11c1-3.11,2.02-6.2,3.02-9.3C640.83,670.46,641.18,670.49,641.54,670.52z"/>
		<path class="st71" d="M649.99,643.35c-0.22,2.51-1.43,3.81-3.85,3.82c-2.47,0.01-3.77-1.48-3.72-3.73
			c0.04-2.21,1.34-3.79,3.79-3.74C648.61,639.74,649.71,641.24,649.99,643.35z"/>
		<path class="st72" d="M620.97,300.93c-11.31,0.04-22.62,0.07-33.93,0.11c0.81-1.08,1.98-1,3.13-1c9.37,0,18.74,0,28.11,0
			C619.27,300.03,620.25,300.07,620.97,300.93z"/>
		<path class="st0" d="M683.95,465.96c-0.89,3.45-4.36,4.27-6.8,6.27c8.48,4.51,10.93,9.06,9.16,16.66
			c-1.5,6.43-7.39,10.74-15.37,11.06c-5.78,0.24-11.32-0.56-15.69-4.91c-7.05-7.01-4.12-18.13,6.23-22.54
			c-2.93-2.1-6.41-3.32-8.02-6.65c0.61-3.27,0.72-6.53-0.09-9.79c4.81-10.17,21.95-9.62,27.77-4.5c1.37,1.2,2.74,2.4,2.97,4.37
			C683.94,459.28,683.99,462.62,683.95,465.96z"/>
		<path class="st0" d="M700.05,492.06c3.67-2.78,6.69-2.59,9.79,1.24c2.61,3.22,5.87,2.66,8.13-0.88c1.85-2.9,2.2-6.3,2.43-9.59
			c0.26-3.71-2.47-1.64-3.81-1.45c-7.95,1.15-14.8-3.47-16.62-11.38c0.14-3.01,0.16-6.01-0.01-9.02c1.19-8.21,7.48-10.8,14.22-12.9
			c1.54-0.88,3.08-0.91,4.61,0.02c9.63,2.66,13.92,9.32,14.6,18.97c0.6,8.5-0.39,16.58-5.31,23.76c-5,7.3-12.11,9.9-20.76,9.05
			c-3.08-0.3-5.02-2.35-7.29-3.94C699.76,494.63,699.8,493.34,700.05,492.06z"/>
		<path class="st73" d="M776.92,465c-3.75,10.25-12.61,16.8-19.43,26.14c5.82,0,10.73,0.17,15.63-0.06
			c3.42-0.16,4.61,1.03,3.68,4.34c-0.31,1.12-0.44,2.29-0.69,3.42c-0.89,4.11-2.65,4.25-5.11,1.11l0.01,0.01
			c-2.01-1.84-4.44-0.8-6.66-0.87c-5.15-0.17-10.32,0-15.48-0.09c-1.36-0.02-3.2,0.76-3.86-1.24c-0.61-1.82,0.45-3.1,1.67-4.37
			c2.99-3.12,6.04-6.21,8.76-9.56c4.57-5.62,7.93-11.86,8.97-19.2c0.37-2.59,0.05-5.02-0.89-7.33c-1.26-3.08-3.58-5.06-7.05-3.94
			c-3.47,1.12-5.43,4.01-3.86,7.41c2.22,4.83-1.62,5.16-4.05,5.76c-3.88,0.96-3.48-2.56-3.77-4.81c-0.59-4.59,1.37-7.99,5.18-10.56
			c2.27-1.53,4.97-1.82,7.34-3.01c2.14-1.08,4.28-0.98,6.44-0.05c6.06,1.62,11.22,4.31,13.21,10.88
			C777.74,460.99,777.79,463,776.92,465z"/>
		<path class="st74" d="M619.72,457.99c-0.52-0.31-1.01-0.8-1.57-0.9c-1.71-0.31-3.98,0.1-3.9-2.58c0.08-2.7,2.44-2.15,4.09-2.33
			c3.47-0.38,6.69-1.42,9.71-3.15c0.53-0.34,1.07-0.37,1.63-0.08c3.04,1.22,2.65,3.95,2.67,6.39c0.08,10,0.01,19.99,0.05,29.99
			c0.01,1.98-0.31,4,0.48,5.91c0.35,0.32,0.72,0.65,1.1,0.93c0.8,0.52,1.43,1.19,1.94,2c1.11,1.16,4.16-0.26,3.84,2.76
			c-0.34,3.22-2.94,2-4.65,2.05c-5.28,0.14-10.57,0.12-15.86,0.01c-1.61-0.03-3.92,0.89-4.27-1.97c-0.33-2.74,1.93-2.03,3.35-2.42
			c0.85-0.24,1.45-0.74,1.71-1.6c0.15-0.53,0.29-1.07,0.41-1.61c0.22-10.35,0.42-20.69-0.12-31.03
			C620.05,459.59,619.64,458.85,619.72,457.99z"/>
		<path class="st75" d="M619.72,457.99c0.35,0.36,0.7,0.73,1.05,1.09c1.5,2.1,0.74,4.5,0.67,6.71c-0.31,9.03,1.01,18.1-0.66,27.09
			c-0.24,0.03-0.48,0.07-0.72,0.11c-1.67-1.44-0.99-3.38-1.01-5.11c-0.07-8.25-0.05-16.5-0.02-24.76c0.01-2.24,0.18-4.47-3.4-4.25
			C617.11,457.48,618.5,458.21,619.72,457.99z"/>
		<path class="st76" d="M634.04,492.95c-0.31-0.03-0.61-0.07-0.92-0.13c-1.64-1.63-1.07-3.73-1.08-5.65
			c-0.06-10.91-0.03-21.81-0.03-32.72c0-2.31,0.35-4.81-2.93-5.3c-0.34-0.04-0.69-0.08-1.03-0.12c1.65-1.88,3.77-0.9,5.73-0.94
			c1.18,0.96,1.2,2.31,1.2,3.65c0.03,12.65,0.04,25.3-0.01,37.94C634.98,490.86,634.98,492.04,634.04,492.95z"/>
		<path class="st77" d="M634.04,492.95c-0.08-14.95-0.16-29.9-0.25-44.85c0.41-0.04,0.81-0.08,1.22-0.11
			c1.09,9.72,0.15,19.48,0.51,29.21c0.19,5.26-0.62,10.55,0.5,15.78c-0.03,0.4-0.05,0.79-0.08,1.19
			C635.3,493.76,634.67,493.35,634.04,492.95z"/>
		<path class="st12" d="M636.02,492.98c-1.63-1.47-0.96-3.42-0.97-5.16c-0.05-13.28-0.03-26.55-0.03-39.83
			c1.64,1.47,0.97,3.42,0.97,5.16C636.04,466.42,636.02,479.7,636.02,492.98z"/>
		<path class="st78" d="M771,499.95c-0.44,0.47-0.87,1.34-1.32,1.34c-8.19,0.08-16.39,0.06-24.58,0.06c0-0.46,0-0.93,0-1.39
			C753.73,499.96,762.37,499.96,771,499.95C771,499.96,771,499.95,771,499.95z"/>
		<path class="st78" d="M638.72,500.7c-7.87,0-15.74,0-23.61,0c0-0.17,0-0.33,0-0.5c7.91,0,15.82,0,23.73,0
			C638.8,500.37,638.76,500.53,638.72,500.7z"/>
		<path class="st59" d="M683.95,465.96c-1.41-3.36-1.63-6.71,0.15-10.02C685.83,459.31,685.78,462.65,683.95,465.96z"/>
		<path class="st31" d="M653.36,456.07c2.65,3.24,2.53,6.5,0.09,9.79c-0.16-0.63-0.33-1.25-0.49-1.88c-0.69-2-0.64-4-0.04-6
			C653.07,457.35,653.21,456.71,653.36,456.07z"/>
		<path class="st31" d="M699.95,460.97c1.68,3,1.66,6.01,0.01,9.02C698.85,466.98,698.86,463.98,699.95,460.97z"/>
		<path class="st79" d="M763.74,448.1c-2.15,0.02-4.29,0.03-6.44,0.05c-0.53-0.2-1.38-0.91-1.19-0.92c2.88-0.19,5.78-0.15,8.68-0.14
			c0.04,0,0.13,0.37,0.09,0.39C764.52,447.71,764.12,447.9,763.74,448.1z"/>
		<path class="st79" d="M718.78,448.09c-1.54-0.01-3.07-0.01-4.61-0.02c-0.65-0.07-1.3-0.14-1.95-0.22
			c-0.02-0.26-0.04-0.53-0.07-0.79c2.53,0,5.06,0,7.59,0.02c0.06,0,0.17,0.34,0.16,0.35C719.54,447.66,719.16,447.87,718.78,448.09z
			"/>
		<path class="st80" d="M700.05,492.06c1.09,1.3,0.97,2.59-0.02,3.87c-2.22-0.95-0.74-2.63-0.78-4c0-0.04,0.28-0.14,0.41-0.12
			C699.79,491.83,699.92,491.97,700.05,492.06z"/>
		<path class="st81" d="M652.92,457.98c0.01,2,0.03,4,0.04,6C651.51,461.99,651.53,459.99,652.92,457.98z"/>
		<path class="st82" d="M776.92,465c0.01-2.01,0.02-4.01,0.03-6.02C778.51,460.99,778.53,463,776.92,465z"/>
		<path class="st83" d="M612.05,455.8c0.08-0.89,0.07-2.51,0.26-2.54c1.23-0.15,0.55,0.93,0.65,1.49c0.08,0.39-0.17,0.85-0.27,1.28
			C612.48,455.96,612.27,455.88,612.05,455.8z"/>
		<path class="st84" d="M492.36,154c1.59,1.46,3.16,2.94,4.78,4.36c0.87,0.76,1.78,1.67,3.05,1.43c1.42-0.26,3.12-2.48,4.06,0.17
			c0.67,1.88-1.61,2.65-2.65,3.8c-2.34,2.59-4.83,5.05-7.29,7.53c-0.68,0.68-1.38,1.64-2.52,0.99c-1.08-0.61-1.09-1.65-0.45-2.57
			c1.76-2.52-0.04-4.01-1.57-5.53c-3.9-3.87-7.76-7.78-11.8-11.5c-2.04-1.88-3.93-5.1-7.48-2.1c-0.53,0.45-1.25,0.15-1.75-0.43
			c-0.69-0.81-0.42-1.53,0.2-2.18c3.46-3.6,6.93-7.18,10.41-10.77c0.46-0.47,1.01-1.06,1.68-0.56c0.47,0.35,1.12,1.21,0.99,1.5
			c-3.23,6.68,4.07,7.58,6.1,12.49c1.57-3.52,0.96-6.08,0.89-8.59c-0.71-1.98-0.67-3.97-0.02-5.96c0.01-0.91-0.27-1.65-1.26-1.85
			c-1.26-0.26-3.15,1.66-3.71-0.75c-0.38-1.65,1.45-2.45,2.42-3.52c1.68-1.84,3.42-3.64,5.21-5.37c0.88-0.86,1.74-2.45,3.26-1.25
			c1.24,0.98,0.25,2.07-0.33,3.07c-0.33,0.57-0.54,1.21-0.76,1.84c-3.16,9.04-1.46,12.38,7.74,13.59c5.55,0.73,11.18,4.14,16.9,0.36
			c0.32-0.21,1.27,0.19,1.72,0.56c0.85,0.71,0.37,1.49-0.23,2.11c-3.69,3.83-7.39,7.66-11.1,11.47c-0.74,0.76-1.62,1.26-2.61,0.42
			c-0.76-0.64-0.72-1.42-0.17-2.19c1-1.38,0.92-2.73-0.87-2.98c-4.35-0.61-8.56-2.6-13.09-1.45
			C491.23,151.51,491.12,152.8,492.36,154z"/>
		<path class="st84" d="M855.85,112.12c0.07,2.61,0.13,5.21,0.2,7.82c1.1,1.92-0.44,4.25,0.95,6.12c0.72,1.09,1.89,2.23,0.48,3.47
			c-1.19,1.04-2.09-0.34-3.09-0.76c-5.2-2.19-7.63-5.8-6.49-11.67c0.5-2.57,0.23-5.3,0.2-7.95c-0.02-1.64-0.95-2.98-2.4-3.51
			c-1.75-0.64-2.19,1.17-2.79,2.2c-1.66,2.82-4.89,5.46-1.55,9.16c0.52,0.57,0.36,1.26-0.03,1.83c-0.6,0.87-1.46,0.73-2.19,0.27
			c-4.23-2.64-8.44-5.31-12.63-8c-0.69-0.45-1.32-1.07-0.86-2.06c0.42-0.89,1.23-1.25,2.05-0.84c3.3,1.67,4.49-0.85,5.82-2.9
			c2.99-4.6,5.89-9.25,8.82-13.88c1.5-2.36,3.66-4.66,0.34-7.29c-0.79-0.63-0.5-1.5,0.16-2.15c0.77-0.76,1.54-0.3,2.23,0.15
			c6.12,3.99,12.54,7.6,18.25,12.12c5.57,4.41,4.7,10.58-1.32,14.88c-2.2,1.41-6.2-1.35-7.11,3.06c-0.99,3.68-0.16,7.4-0.38,11.1
			c0.25,0.66,1.01-0.19,0.4,0.07c-0.93-3.52-0.3-7.09-0.35-10.64C854.8,112.11,855.23,111.92,855.85,112.12z"/>
		<path class="st84" d="M543.13,122.11c-1.71,9.81-12.35,17.54-22.3,16.21c-9.27-1.24-15.86-10-14.9-19.79
			c0.84-8.64,10.48-17.21,19.67-17.51c8.69-0.28,16.41,6.31,17.57,15C543.22,118.05,542.58,120.07,543.13,122.11z"/>
		<path class="st73" d="M610.21,82.99c-0.31-0.56-0.5-1.25-0.94-1.65c-1.23-1.1-4.42,0.09-3.98-2.65c0.31-1.94,3-1.69,4.6-2.46
			c1.34-0.65,2.78-1.1,4.22-1.51c1.87-0.53,3.83-2.43,5.59-1.3c2.35,1.51-0.98,3.05-0.66,4.77c0.12,0.65,0.01,1.44,0.34,1.95
			c3.82,5.89,0.76,8.53-4.53,10.9c-4.52,2.03-8.53,5.14-13.82,5.24c-10.07,0.19-18.37-8.37-17.92-18.61
			c0.45-10.33,9.27-18.28,19.23-17.31c1.59,0.15,3.45,1.64,4.04-1.62c0.41-2.28,1.95-1.85,2.97-0.05c0.41,0.72,0.78,1.5,0.96,2.3
			c0.55,2.47,3.58,5.38,1.55,7.19c-2.54,2.27-3.65-2.17-5.77-3.1c-3.5-1.54-6.78-1.72-9.97,0.32c-3.32,2.12-4.32,5.38-3.62,9.13
			c0.82,4.44,2.26,8.7,4.5,12.64c3.29,5.8,7.71,6.42,12.97,1.92C610.13,87.04,609.89,85.01,610.21,82.99z"/>
		<path class="st73" d="M789.97,66.09c-0.76-1.07-1.4-2.26-2.3-3.2c-3.65-3.82-10.06-5.35-13.81,0.58
			c-2.22,3.5-3.79,7.31-4.01,11.55c0.22,2.68,0.07,5.37,0.12,8.06c3.74,5.04,9.27,5.79,11.65,1.53c1.07-1.92,1.99-4-0.22-5.85
			c-0.96-0.8-1.75-1.69-0.87-2.94c0.75-1.07,1.76-0.43,2.69-0.15c3.66,1.11,7.32,2.2,10.98,3.28c1.73,0.51,2.44,2.16,0.88,2.72
			c-4.01,1.45-3.96,4.99-5.03,7.99c-0.54,1.51-1.12,2.73-3.13,2.42c-4.76-0.73-9.62-0.98-14.28-2.11
			c-9.12-2.21-14.15-10.32-12.75-19.74c1.33-8.92,9.25-15.57,18.15-15.28c3.6,0.12,6.54,1.73,9.35,3.82
			c1.73,1.29,3.07,4.6,5.99,1.45c0.41-0.44,1.15-0.24,1.57,0.54c1.17,2.14-1.46,8.91-3.97,10.06
			C789.78,69.45,791.2,67.49,789.97,66.09z"/>
		<path class="st84" d="M828.81,79.31c-0.79-0.84-1.43-1.96-2.39-2.47c-2.29-1.19-5.15-4.01-7-2.59c-2.23,1.72-3.04,5.34-4.32,8.21
			c-0.52,1.17,0.47,1.89,1.4,2.25c1.49,0.57,3.07,1.58,4.55-0.11c0.75-0.86,1.48-2.06,2.84-1.08c1.57,1.14,0.38,2.39-0.09,3.54
			c-0.57,1.38-1.17,2.76-1.91,4.06c-0.68,1.2-0.77,3.29-2.8,2.92c-2-0.36-0.87-2.15-1.05-3.32c-0.32-2-1.95-2.61-3.48-3.18
			c-2.21-0.82-2.28,1.28-2.98,2.44c-0.42,0.71-0.79,1.47-1.06,2.25c-0.82,2.36-3.38,4.86-0.37,7.15c3.12,2.37,6.57,3.93,10.56,1.38
			c1.65-1.05,3.1-4.38,5.25-2.34c2.05,1.94-1.09,4.01-1.64,6.12c-1.02,3.9-3.23,4.12-6.67,2.41c-6.69-3.33-13.6-6.22-20.38-9.37
			c-1.26-0.58-3.34-0.76-3.05-2.71c0.3-2.02,2.05-0.95,3.26-0.94c2.08,0.03,2.79-1.59,3.48-3.09c2.71-5.88,5.33-11.81,8.06-17.68
			c0.96-2.05,1.18-3.78-1-5.18c-0.73-0.47-1.28-1.16-0.75-2.07c0.63-1.08,1.6-0.98,2.59-0.52c7.55,3.46,15.28,6.58,22.57,10.51
			c4.04,2.18,0.04,5.24-0.7,7.66c-0.73,2.41-2.1,1.3-2.78-0.49C829.46,81.81,830.15,80.52,828.81,79.31z"/>
		<path class="st73" d="M576.16,92.83c1.69,2.6,3.49,5.15,5.02,7.84c0.66,1.17,2.31,2.41,1.1,3.97c-1.42,1.82-3.28,0.95-5.01,0.32
			c-5.77-2.1-11.55-4.19-17.33-6.28c-1.87-0.68-3.76-1.33-5.63-2.02c-1.26-0.46-2.75-1.17-3.74-0.08c-1.32,1.46,0.42,2.72,0.98,3.95
			c0.67,1.48,2.03,2.67,2.61,4.17c1.76,4.55,3.72,8.65,11.22,6.98c-3.83,4.11-7.76,4.99-10.71,7.28c-0.74,0.57-1.62,0.15-2.11-0.65
			c-0.76-1.25,0.27-1.74,1.07-2.3c2-2.12,0.78-4.02-0.4-5.92c-2.49-4.67-4.96-9.34-7.47-14c-1.29-2.38-2.59-4.79-5.99-4.17
			c-1.13,0.21-2.03-0.24-2.29-1.36c-0.29-1.28,0.94-1.57,1.71-2.12c4.69-3.35,9.32-4.73,15.1-1.89c5.63,2.76,11.81,4.4,17.74,6.53
			c0.69-0.1,1.32-0.53,2.05-0.42C574.77,92.78,575.44,93.05,576.16,92.83z"/>
		<path class="st73" d="M721.89,61.84c0.17-2.15,0.18-4.32,0.54-6.43c0.54-3.09,0.95-5.99-2.46-7.8c-0.78-0.41-1.28-1.09-0.87-2.04
			c0.4-0.92,1.21-0.97,2.09-0.9c5.33,0.42,10.26,0.78,13.3,6.68c2.98,5.77,7.27,10.87,11.08,16.42c1.84-1.96,0.9-3.98,1.55-5.63
			c3.68,1.98,1,5.54,2.02,8.18c-0.32,3.27-0.6,6.55-0.99,9.82c-0.15,1.22,0.08,2.81-1.81,3.02c-1.53,0.17-2.42-0.71-3.2-1.88
			c-4.03-6.04-8.07-12.08-12.14-18.09c-0.54-0.8-1.27-1.48-1.91-2.22c0,0,0.03,0.07,0.03,0.07c-0.35-1.61-1.12-3.3-2.66-3.57
			c-1.2-0.21-0.98,1.69-1.44,2.63c-1.28,1.94,0.11,4.27-0.92,6.25c-0.04,0.59-0.08,1.17-0.12,1.76c-0.89,2.3-0.63,4.63-0.13,6.96
			c0.65,1.29,1.73,1.97,3.12,2.22c-0.13,2.57-0.26,2.63-4.27,1.93c-1.24-0.08-2.49-0.17-3.73-0.25c-1.01-0.93-4.35,0.54-2.97-2.87
			c4.05-1.17,4.64-4.5,4.99-7.98C722.24,66.15,720.87,63.82,721.89,61.84z"/>
		<path class="st73" d="M624.89,56.72c0.68-3.85,4.09-4.41,6.88-5.72c1.79-1.09,3.58-1.13,5.37,0l-0.1-0.03
			c1.59,1.21,2.87,0.75,3.97-0.73c4.32,1.16,3.04,5.05,3.3,7.79c0.15,1.5-1.86,1.32-2.93,0.05c-1.38-1.64-2.66-3.28-4.86-4.04
			c-2.72-0.95-4.95-0.63-6.27,2.02c-1.43,2.9,0.94,4.3,2.91,5.13c2.73,1.14,5.73,1.62,8.6,2.43c7.43,2.09,10.74,6.89,9.31,13.44
			c-1.19,5.45-7.67,9.11-14.22,7.96c-1.97-0.35-3.93-1.95-5.61,0.79c-0.49,0.8-2.02,0.39-2.33-0.79c-0.75-2.88-1.36-5.81-1.92-8.74
			c-0.19-0.96,0.56-1.55,1.41-1.75c1.22-0.28,1.8,0.66,2.3,1.51c1.48,2.51,3.36,4.56,6.2,5.49c3.04,1,5.87,0.54,7.04-2.67
			c1.19-3.23-1.05-4.91-3.87-5.78c-2.85-0.88-5.78-1.5-8.59-2.49c-2.76-0.98-5.68-1.94-6.55-5.32
			C624.22,62.43,624.38,59.58,624.89,56.72z"/>
		<path class="st84" d="M907.63,171c1-0.18,1.64-0.36,2.3-0.41c1.63-0.13,3.69-2.42,4.78,0.05c0.92,2.08-1.74,2.89-2.97,4.03
			c-4.64,4.34-4.7,4.3-9.02-0.46c-4.91-5.42-9.8-10.84-14.66-16.3c-0.71-0.79-2.11-1.53-1.3-2.88c1.05-1.74,2.24-0.64,3.31,0.15
			c1.64,1.21,2.89,0.13,3.98-0.82c5.11-4.5,10.16-9.07,15.22-13.63c1.48-1.33,2.3-2.85,1.07-4.82c-0.61-0.97-0.61-1.9,0.49-2.53
			c0.91-0.53,1.54,0.04,2.12,0.69c3.21,3.59,6.44,7.17,9.63,10.78c0.65,0.74,1.36,1.59,0.27,2.55c-0.76,0.67-1.53,0.49-2.2-0.14
			c-2.49-2.34-4.27-0.42-5.99,1.09c-4,3.5-8,7.01-11.82,10.71c-1.63,1.58-4.87,2.7-3.36,5.87
			C901.11,168.37,903.91,170.63,907.63,171z"/>
		<path class="st73" d="M676.9,65.84c0.17-4.31,2.44-8.04,3.32-12.19c0.59-2.76,1.64-4.97-2.19-6.02c-1.04-0.29-1.73-1.62-0.18-2.61
			c2.92-0.82,5.94-0.83,8.92-1.12c1.72-0.12,2.62,0.56,2.33,2.4c-2.81,0.79-4.04,2.73-4.92,5.49c-2.59,8.09-5.5,16.07-7.52,24.34
			c-0.38,1.57-0.32,3.92-2.91,4.07c-2.4,0.14-2.92-1.92-3.78-3.44c-3.92-6.96-7.73-13.99-11.66-20.94c-1.36-2.4-2.26-5.29-5.6-5.91
			c-0.84-0.15-1.44-0.87-1.22-1.86c0.24-1.05,1.19-1.03,1.98-1.11c4.47-0.44,8.94-0.84,13.41-1.29c1.03-0.1,2.07-0.25,2.57,0.9
			c0.55,1.24-0.35,1.87-1.29,2.27c-2.96,1.25-1.66,3.08-0.71,4.86c2.19,4.1,4.39,8.19,6.59,12.28
			C675.1,67.89,676.05,67.99,676.9,65.84z"/>
		<path class="st73" d="M882.02,151.95c-0.58-0.41-1.3-0.82-1.9-1.36c-3.12-2.75-6.24-5.51-9.3-8.33c-0.78-0.72-2.14-1.34-1.41-2.82
			c0.74-1.51,1.8-1.05,2.89-0.36c2.16,1.36,3.38-0.2,4.62-1.56c4.25-4.69,8.5-9.37,12.7-14.11c1.43-1.62,3.04-3.3,0.89-5.59
			c-0.64-0.68-0.58-1.49,0.17-2.18c1.04-0.96,1.85-0.27,2.59,0.38c3.49,3.09,6.96,6.2,10.43,9.32c0.63,0.57,1.26,1.24,0.71,2.13
			c-0.48,0.78-1.38,1.09-2.17,0.58c-3.03-1.95-4.52,0.25-6.2,2.13c-3.76,4.23-7.6,8.39-11.33,12.65c-1.59,1.82-3.82,3.56-1.41,6.4
			C884.36,150.49,883.43,151.32,882.02,151.95z"/>
		<path class="st85" d="M707.09,56.34c-0.06,3.59-0.11,7.18-0.17,10.77c-0.69,1.99-0.73,3.98,0.03,5.97
			c0.16,0.29,0.4,0.57,0.47,0.88c0.44,2.03,4.69,1.37,3.43,3.95c-1.04,2.12-3.92,0.91-5.96,0.93c-2.98,0.04-5.96-0.27-8.94-0.45
			c-0.96-0.06-2.13,0.12-2.4-1.18c-0.26-1.23,0.56-1.81,1.65-2.01c1.78-0.32,2.61-1.53,2.64-3.15c0.16-7.47,0.24-14.94,0.26-22.41
			c0-0.52-0.69-1.04-1.06-1.57c-1.11-0.93-3.67,0.08-3.47-2.56c0.2-2.62,2.29-1.92,3.75-1.86c4.56,0.18,9.17-0.68,13.69,0.49
			c3.67,4.65-3.5,2.46-3.16,5C706.9,51.47,708.07,54.02,707.09,56.34z"/>
		<path class="st18" d="M576.16,92.83c-0.59,1.07-1.27,1.41-2.12,0.26c-1.53-0.35-1.06-2.38-2.41-2.88
			c-3.1-3.64-3.31-9.74-9.29-10.93c-1.84,0.11-1.93-0.81-1.29-2.17c2.75-2.35,5.75-4.06,9.53-4.12
			C567.16,81.37,574.1,86.4,576.16,92.83z"/>
		<path class="st31" d="M749.13,70.3c-2.57-2.26,0.17-5.82-2.02-8.18c-0.39-3.59,2.66-7.57-1.22-10.77
			c-0.65-0.98-2.03-2.29,0.3-2.63c1.8-0.26,3.79-0.62,5.58,0.4c1.02,1.42,3.28,0.09,4.4,2.21c-2.39,1.28-5.69,1.97-5.12,5.75
			c-1.28,1.6-0.09,3.59-0.84,5.27c-1.43,2.46-0.16,5.31-1.14,7.83L749.13,70.3z"/>
		<path class="st86" d="M711.01,44.15c-4.24,0-8.48-0.06-12.72,0.03c-1.37,0.03-3.3-0.75-3.91,1.04c-0.71,2.08,2.04,1.63,2.66,2.87
			c-1.95-0.01-4.2,0.41-3.99-2.74c0.19-2.82,2.39-2.35,4.04-2.2C701.73,43.54,706.51,41.94,711.01,44.15z"/>
		<path class="st87" d="M856.81,120.36c1.03-3.01-1.66-7.13,2.6-9.22c-4.05,4.41,0.45,9.23-0.7,14.07c-1.39-1.2-0.1-3.42-1.85-4.12
			l-0.35-0.34L856.81,120.36z"/>
		<path class="st88" d="M769.97,83.09c-1.66-2.66-1.21-5.36-0.12-8.06C771.62,77.69,771.49,80.38,769.97,83.09z"/>
		<path class="st89" d="M729.08,60.96c-1.79,1.64-2.31,3.84-2.5,6.19c-1.06-7.54-1.06-7.54,2.53-6.12
			C729.11,61.03,729.08,60.96,729.08,60.96z"/>
		<path class="st86" d="M689.11,46.31c-0.1-1.31-0.89-1.95-2.11-2.17c-2,0.7-3.99,0.72-5.99-0.01c5.68-2.13,8.6-1.5,8.89,1.93
			c0.01,0.11-0.18,0.29-0.31,0.33C689.45,46.42,689.27,46.34,689.11,46.31z"/>
		<path class="st90" d="M610.21,82.99c1.19,2.07,1.91,4.13-0.25,6.06C608.55,86.97,608.42,84.94,610.21,82.99z"/>
		<path class="st91" d="M751.77,49.13c-1.77,1.25-5.44-2.52-5.88,2.23c-0.95-0.33-1.85-0.77-1.75-1.96c0.11-1.27,1.11-1.55,2.1-1.38
			C748.09,48.35,750.15,47.7,751.77,49.13z"/>
		<path class="st92" d="M543.13,122.11c-1.65-2.04-1.65-4.07,0.04-6.09C544.11,118.05,543.87,120.08,543.13,122.11z"/>
		<path class="st52" d="M632.25,50.21c-0.49-0.19-1.41-0.82-1.05-0.87c2.19-0.26,4.43-0.14,6.65-0.12c0.03,0,0.12,0.35,0.09,0.37
			c-0.37,0.22-0.75,0.41-1.13,0.61C635.28,50.79,633.77,50.78,632.25,50.21z"/>
		<path class="st93" d="M681.01,44.12c2,0,3.99,0.01,5.99,0.01c-2.89,1.91-6.08,0.7-9.14,0.9
			C678.91,44.73,679.96,44.42,681.01,44.12z"/>
		<path class="st94" d="M854.95,112.08c0.49-5.43,4.65-2.09,7.05-2.96c-1.45,2.23-5.49-0.84-6.15,3
			C855.55,112.12,855.25,112.1,854.95,112.08L854.95,112.08z"/>
		<path class="st95" d="M624.89,56.72c0.02,2.85,0.04,5.7,0.06,8.55C623.45,62.43,623.13,59.59,624.89,56.72z"/>
		<path class="st73" d="M749.07,70.2c0.18-2.72-0.91-5.55,0.76-8.13c0.77,0.66,0.65,1.42,0.27,2.21
			C749.91,66.28,750.3,68.38,749.07,70.2z"/>
		<path class="st96" d="M553.23,110.08c2.95,1.78,2.57,3.79,0.4,5.92C555.22,113.91,553.21,112.06,553.23,110.08z"/>
		<path class="st40" d="M709.4,50.26c0.65,1.64,0.85,3.21,0.19,4.96C708.43,53.43,709.32,51.79,709.4,50.26z"/>
		<path class="st97" d="M707.09,56.34c0.14-2.41-0.94-4.95,0.75-7.19C707.46,51.53,708.28,54.04,707.09,56.34z"/>
		<path class="st98" d="M722.7,79.2c1.5-0.47,3.77,0.76,4.27-1.93c1.27,0.62,1.07,1.72,0.28,2.29
			C725.76,80.66,724.16,80.06,722.7,79.2z"/>
		<path class="st88" d="M622.21,62.85c0-1.55,0-3.1,0-5.13C623.6,59.73,622.62,61.38,622.21,62.85z"/>
		<path class="st99" d="M750.1,64.29c-0.09-0.74-0.18-1.47-0.26-2.21c0.45-1.65-0.57-3.66,1.22-4.98
			C751.07,59.54,751.29,62.01,750.1,64.29z"/>
		<path class="st100" d="M723.85,75.06c-1.35-2.35-1.45-4.67,0.13-6.96C723.93,70.42,723.89,72.74,723.85,75.06z"/>
		<path class="st44" d="M489,136.1c0.45,1.98,0.43,3.97,0.02,5.96C487.56,140.08,487.58,138.09,489,136.1z"/>
		<path class="st94" d="M856.81,120.36c-0.07,0.25-0.05,0.49,0.05,0.72c0.05,1.66,0.09,3.32,0.14,4.99
			c-1.92-1.79-0.97-4.03-0.95-6.12C856.31,120.07,856.56,120.21,856.81,120.36z"/>
		<path class="st98" d="M715.99,76.08c-0.18,2.16,2.18,1.7,2.97,2.87C717.43,78.56,713.87,80.26,715.99,76.08z"/>
		<path class="st97" d="M706.95,73.08c-1.46-1.98-1.44-3.97-0.03-5.97C706.94,69.1,706.95,71.09,706.95,73.08z"/>
		<path class="st100" d="M721.89,61.84c-0.12,2.11,0.91,4.39-0.91,6.26C720.92,65.96,720.75,63.8,721.89,61.84z"/>
		<path class="st100" d="M724.09,66.34c0.11-2.11-0.9-4.39,0.92-6.25C725.11,62.23,725.23,64.38,724.09,66.34z"/>
		<path class="st95" d="M632.25,50.21c1.52,0,3.03,0,4.55-0.01c0.14,0.26,0.26,0.52,0.35,0.8c-1.79,0-3.58,0-5.37,0
			C631.94,50.74,632.1,50.48,632.25,50.21z"/>
		<path class="st101" d="M571.62,90.21c1.58,0.31,1.76,1.79,2.41,2.88c-0.67,0.08-1.34,1.13-2-0.01
			C571.9,92.12,571.76,91.16,571.62,90.21z"/>
		<path class="st41" d="M828.81,79.31c2.38,1.16,1.05,2.48,0.15,3.78C828.92,81.83,828.86,80.57,828.81,79.31z"/>
		<path class="st102" d="M492.36,154c-1.57-1.19-2.1-2.44-0.24-3.84C492.2,151.44,492.28,152.72,492.36,154z"/>
		<path class="st103" d="M561.04,77.1c0.03,0.96,0.36,1.74,1.29,2.17c-1.28,1.07-2.09,0.49-2.53-0.82
			C559.44,77.38,560.02,76.99,561.04,77.1z"/>
		<path class="st104" d="M676.9,65.84c0.03,1.01-0.1,2.02-1.34,2.08c-1.25,0.06-1.48-0.93-1.51-1.95
			C675.05,66.95,676,66.96,676.9,65.84z"/>
		<path class="st95" d="M641.02,50.25c-0.88,2.64-2.32,2.31-3.97,0.73C638.45,51.17,639.8,51.06,641.02,50.25z"/>
		<path class="st105" d="M789.97,66.09c1.64,1.31,0.81,3.14,1.02,4.75C789.6,69.48,790.21,67.7,789.97,66.09z"/>
		<path class="st52" d="M925.86,309.13c0-6.6,0-13.21,0-19.81c0.38,6.61,2.45,13.25-0.01,19.8
			C925.85,309.13,925.86,309.13,925.86,309.13z"/>
		<path class="st79" d="M467.07,251.04c0.01,4.36,0.03,8.71,0.04,13.07c0,0,0.01-0.01,0.01-0.01
			C465.38,259.75,465.46,255.4,467.07,251.04L467.07,251.04z"/>
		<path class="st88" d="M467.07,251.04c0-2.25,0-4.51,0-6.76C467.76,246.56,468.84,248.86,467.07,251.04
			C467.07,251.04,467.07,251.04,467.07,251.04z"/>
		<path class="st106" d="M467.91,216.32c0.07,2.33,0.52,3.62-0.41,4.89C466.9,219.72,466.79,218.35,467.91,216.32z"/>
		<path class="st107" d="M738.04,351.97c-0.02-0.98-0.05-1.96-0.07-2.94c0.24-0.34,0.18-1.75,0.82-0.67
			C739.38,349.36,739.34,350.98,738.04,351.97z"/>
		<path class="st108" d="M655.92,370.96c0.02,0.33,0.02,0.66-0.02,0.98c-32.61,0.01-65.23,0.02-97.84,0.04
			c1.67-1.69,3.79-0.93,5.7-0.94c28.32-0.05,56.63-0.04,84.95-0.03c2.16,0,4.35,0.23,6.31-1
			C655.41,370.24,655.72,370.55,655.92,370.96z"/>
		<path class="st108" d="M557.02,371.97c-2.27-0.35-4.78,0.96-6.83-0.95C552.59,370.46,554.89,370.62,557.02,371.97z"/>
		<path class="st109" d="M655.92,370.96c-0.3-0.32-0.61-0.63-0.91-0.95c0-1.34,0-2.68,0-4.23c1.34,0.66,0.84,1.56,1.01,2.25
			C655.99,369.01,655.95,369.98,655.92,370.96z"/>
		<path class="st110" d="M656.21,361.78c0-1.25,0-2.49,0-4.22C657.36,359.3,657.08,360.62,656.21,361.78z"/>
		<path class="st37" d="M658.23,348.03c0-1.01,0-2.02,0-3.3C659.37,345.86,658.99,346.87,658.23,348.03z"/>
		<path class="st88" d="M484.5,468.24c-0.48-3.07-0.68-4.63,0.08-6.67C485.21,463.66,485.16,465.27,484.5,468.24z"/>
		<path class="st111" d="M478.91,292.36c0,4.11,0,8.22,0,12.33c-0.16,0.01-0.33,0.01-0.49,0.02c0-4.18,0-8.36,0-12.54
			C478.58,292.24,478.75,292.3,478.91,292.36z"/>
		<path class="st12" d="M844.18,522.86c0-7.24,0-14.49,0-21.73c0.16,0,0.32,0,0.48,0c0,7.24,0,14.49,0,21.73
			C844.5,522.86,844.34,522.86,844.18,522.86z"/>
		<path class="st24" d="M862.96,457.99c-0.01,6.32-0.03,12.64-0.04,18.96c-2.08-6.22-0.61-12.58-0.78-18.88
			c0-0.08,0.22-0.22,0.35-0.23C862.64,457.83,862.8,457.94,862.96,457.99z"/>
		<path class="st112" d="M836.9,524.05c0.06-1.32,0.12-2.63,0.21-4.37c1.33,1.85,1.04,3.15-0.21,4.36
			C836.89,524.04,836.9,524.05,836.9,524.05z"/>
		<path class="st66" d="M733.04,311.11c23.95,0.02,47.9,0.04,71.85,0.06c-1.22,1.28-2.8,0.83-4.25,0.84
			c-21.13,0.02-42.26,0.02-63.38,0C735.81,312.01,734.22,312.45,733.04,311.11z"/>
		<path class="st37" d="M733.5,315.86c0.71,1.04,0.62,2.05,0.04,3.42C732.81,317.98,732.76,316.97,733.5,315.86z"/>
		<path class="st66" d="M591.92,311.86c0.76-0.82,1.76-0.83,2.76-0.83c23.08,0.06,46.15,0.12,69.23,0.17
			c-0.59,0.26-1.18,0.76-1.77,0.76C638.73,311.96,615.33,311.9,591.92,311.86z"/>
		<path class="st113" d="M721.04,576.04c2.29,0.02,4.59,0.03,6.88,0.05C725.62,577.39,723.32,577.45,721.04,576.04z"/>
		<path class="st114" d="M699.91,406.05c0.02-10.35,0.03-20.71,0.05-31.06c1.56,1.27,1.01,3.04,1.02,4.63
			c0.05,7.28,0.05,14.55,0,21.83C700.97,403.03,701.51,404.81,699.91,406.05z"/>
		<path class="st87" d="M728.99,373.01c-1.75-1.86-0.87-3.96-0.81-6.84c1.25,2.71,0.44,5.05,1.75,6.86
			C729.61,373.51,729.29,373.48,728.99,373.01z"/>
		<path class="st90" d="M728.99,373.01c0.31,0,0.63,0.01,0.94,0.02c0.06,1.7,0.11,3.41,0.17,5.11c0,0,0.01,0.01,0.01,0.01
			C728.35,376.74,729.2,374.76,728.99,373.01z"/>
		<path class="st47" d="M668.01,362.01c-0.39,2.33,0.92,4.89-1,7C667.4,366.68,666.09,364.12,668.01,362.01L668.01,362.01z"/>
		<path class="st90" d="M668.01,362.01c0-1.61,0-3.22,0-4.83C669.08,358.85,669.51,360.48,668.01,362.01L668.01,362.01z"/>
		<path class="st115" d="M702.05,349.63c-1.04-0.27-1.04-1.12-1.04-1.94c0-11.2,0-22.39,0.01-33.59c0-0.85,0.18-1.63,0.99-2.1
			C702.02,324.54,702.03,337.09,702.05,349.63z"/>
		<path class="st9" d="M674.38,485.53c-0.2,1.98-0.19,4.36-0.74,6.59c-0.56,2.27-2.23,3.7-4.76,3.6c-2.3-0.09-3.76-1.47-4.24-3.58
			c-1.05-4.59-1.02-9.26-0.14-13.86c0.47-2.46,2.29-3.53,4.8-3.38c2.48,0.15,4.13,1.36,4.51,3.83
			C674.14,480.85,674.18,483.02,674.38,485.53z"/>
		<path class="st116" d="M665.38,454.08c4.69-2.78,6.7-1.97,7.93,2.94c0.84,3.33,0.08,6.53-0.33,9.78
			c-0.23,1.79-1.15,3.18-2.98,3.49c-1.86,0.32-3.66,0.08-4.23-2.25C665.75,463.38,666.42,458.7,665.38,454.08z"/>
		<path class="st110" d="M665.38,454.08c0.39,1,2.89-0.52,2.17,2.09c-0.99,3.6-0.83,7.32,0.02,11.02c0.47,2.03-1.12,0.7-1.79,0.85
			c-0.26-0.35-0.52-0.7-0.78-1.06c-0.83-3.66-0.64-7.32-0.11-11C665.06,455.35,665.22,454.71,665.38,454.08z"/>
		<path class="st117" d="M664.9,455.98c0.04,3.67,0.07,7.33,0.11,11C663.32,463.33,663.43,459.66,664.9,455.98z"/>
		<path class="st116" d="M711.92,457.01c0.15-2.88,2.05-4.02,4.55-4.12c2.64-0.11,3.85,1.95,4.23,4.1c0.8,4.53,1.53,9.09,0.61,13.74
			c-0.52,2.66-0.79,5.54-4.03,6.07c-3.47,0.57-4.22-2.45-5.3-4.83C711.2,466.99,711.28,462,711.92,457.01z"/>
		<path class="st118" d="M711.92,457.01c0.02,4.99,0.04,9.98,0.05,14.96C710.31,466.99,710.43,462,711.92,457.01z"/>
		<path class="st119" d="M723.17,469.77c0-2.86,0-5.71,0-8.57c0.17,0,0.33-0.01,0.5-0.01c0,2.86,0,5.71,0,8.57
			C723.5,469.76,723.33,469.76,723.17,469.77z"/>
		<path class="st120" d="M629.09,449.15c3.79-1.04,3.98,1.22,3.97,4.07c-0.04,13.2,0.03,26.4,0.07,39.6
			c-3.38,0.1-2.02-2.55-2.04-3.97c-0.12-11.48-0.1-22.95-0.04-34.43C631.06,452.35,631.02,450.44,629.09,449.15z"/>
		<path class="st121" d="M620.78,492.88c0.51-11.27,0.52-22.53-0.01-33.8c1.11,0.47,1.27,1.43,1.27,2.46c0,9.63,0,19.25,0,28.88
			C622.04,491.44,621.89,492.41,620.78,492.88z"/>
		<path class="st39" d="M491.79,132.12c0,2.64,0,5.27,0,7.91c-0.15,0-0.31,0-0.46,0c0-2.64,0-5.27,0-7.91
			C491.48,132.12,491.63,132.12,491.79,132.12z"/>
		<path class="st116" d="M858.69,97.84c-0.77,2.92-2.21,5.42-5.3,6.57c-2.19,0.82-3.91-0.44-5.4-1.68c-1.97-1.64,0.15-2.91,0.8-4.23
			c0.58-1.18,1.29-2.32,2.13-3.33c1.03-1.24,1.3-3.93,3.86-2.73C856.92,93.45,858.57,95.09,858.69,97.84z"/>
		<path class="st42" d="M854.95,112.08c0,3.9,0,7.81,0,11.71C854.45,119.88,852.87,115.93,854.95,112.08
			C854.95,112.08,854.95,112.08,854.95,112.08z"/>
		<path class="st5" d="M536.62,125.26c-0.14,5.18-6.17,9.16-10.71,6.67c-6.35-3.48-10.57-9.09-12.6-15.95
			c-1.53-5.17,3.5-10,8.73-8.96C527.38,108.08,536.77,119.83,536.62,125.26z"/>
		<path class="st122" d="M665.27,487.95c0-2.31,0-4.63,0-6.94c0.16,0,0.32,0,0.48,0c0,2.31,0,4.63,0,6.94
			C665.6,487.95,665.43,487.95,665.27,487.95z"/>
	</g>
</g>
</svg>
