<?xml version="1.0" encoding="utf-8"?>
<!-- Generator: Adobe Illustrator 27.0.1, SVG Export Plug-In . SVG Version: 6.00 Build 0)  -->
<svg version="1.1" id="Layer_1" xmlns="http://www.w3.org/2000/svg" xmlns:xlink="http://www.w3.org/1999/xlink" x="0px" y="0px"
	 viewBox="0 0 1366 768" style="enable-background:new 0 0 1366 768;" xml:space="preserve">
<style type="text/css">
	.st0{fill:#FFFFFF;}
	.st1{fill:#EFF1F5;}
	.st2{fill:#BBC6D6;}
	.st3{fill:#FFFFFF;stroke:#181414;stroke-miterlimit:10;}
	.st4{fill:#BBC6D5;}
	.st5{fill:#0088CD;}
	.st6{fill:#B0B6B9;}
	.st7{fill:#CD0010;}
	.st8{fill:#0B376F;}
	.st9{fill:#CD0010;stroke:#181414;stroke-miterlimit:10;}
	.st10{fill:#07356E;}
</style>
<g>
	<g>
		<path class="st0" d="M1002.66,375.42c-4.04,8.54-8.08,17.17-10.52,26.25c-4.07,15.15-14.07,24.94-26.92,32.56
			c-3.72,2.21-7.46,4.48-11.42,6.18c-7.09,3.04-9.88,8.88-10.12,15.83c-0.78,22.61-9.36,41.92-23.6,59.15
			c-5.4,6.53-12.39,10.5-19.82,13.94c-6.96,3.23-14.23,5.66-21.57,7.83c-5.39,1.6-10.03,4.22-14.29,7.85
			c-10.14,8.65-20.42,17.12-30.64,25.67c-2.31,1.94-4.43,4.04-5.56,6.94c-5.75,14.89-16.9,24.86-30.08,32.95
			c-9.64,5.92-19.24,11.82-27.83,19.35c-7.27,6.38-16.47,6.43-25.63,5.41c-2.5-0.28-2.59-2.3-3.02-4
			c-1.67-6.66-3.92-13.07-7.87-18.78c-4.26-6.15-9.98-8.93-17.55-7.71c7.39,16.31,3.25,30.56-11.15,38.76
			c-6.54,3.72-14.68,3.23-20.51-1.51c-10.38-8.44-16.14-19.69-19.36-32.45c-1.22-4.83-5.62-8.13-10.54-7.98
			c-6.76,0.21-8.69,3.19-6.09,9.43c0.7,1.69,1.53,3.34,2.1,5.07c2.25,6.82-0.18,12.65-6.79,15.68c-8.59,3.95-16.97,2.29-25-1.72
			c-7.05-3.53-12.84-8.83-15.81-16.08c-2.19-5.36-5.94-5.92-9.86-4.41c-11.39,4.38-20.17-1.38-26.52-8.63
			c-8.46-9.66-17.43-19.36-23.31-30.97c-3.48-6.88-9.31-8.04-15.55-8.72c-10.75-1.16-21.6-1.36-32.16-4.06
			c-13.82-3.53-25.28-10.2-31.68-23.65c-2.63-5.53-6.88-9.72-11.14-13.97c-11.56-11.52-13.09-20.74-5.49-35
			c1.94-3.65,0.69-4.31-2.53-4.51c-1.33-0.08-2.66-0.54-3.97-0.43c-12.18,0.96-20.77-4.65-26.94-14.64
			c-3.83-6.2-9.91-9.72-15.69-13.63c-15.87-10.73-21.7-25.25-18.02-44.04c1.69-8.64,5.3-16.45,9.45-24.06
			c1.51-2.78,1.55-4.94-0.08-7.78c-8.7-15.13-13.33-32.28-23.07-46.91c-1.64-2.46-3.23-4.97-2.87-8.14
			c-0.66-4.52-0.14-9.07-0.3-13.6c-0.31-4.88,0.53-9.72,0.55-14.58c1.57-7.33,3.4-14.52,7.39-21.09c2.59-4.27,5.98-6.77,10.83-6.78
			c4.87-0.02,6.83-2.36,7.12-6.93c0.14-2.14,0.72-4.27,1.31-6.35c2.14-7.57,3.4-14.9,1.31-23c-2.75-10.7,0.07-20.71,7.28-29.38
			c4.26-5.12,8.13-10.57,12.57-15.53c2.36-2.64,2.74-4.46-0.56-6.78c-6.43-4.53-6.63-6.64-2.14-13.06
			c34.78-49.71,79.6-87.52,134.78-112.75c33.88-15.5,69.51-24.91,106.64-28.53c60.72-5.93,118.82,4.08,174.29,29.11
			c30.88,13.93,58.58,32.81,83.78,55.53c18.05,16.27,33.64,34.56,47.87,54.13c0.98,1.35,1.99,2.68,2.81,4.13
			c2.6,4.61,1.99,7.56-2.02,10.94c-2.52,2.12-6.82,2.92-7.48,6.2c-0.7,3.48,3.6,5.17,5.34,7.93c3.9,6.17,5.63,12.73,4.71,19.98
			c-0.13,0.99-0.37,1.96-0.51,2.95c-1.03,7.36-1.03,7.37,6.2,9.26c11.27,2.96,20.05,9.33,26.67,18.92
			c5.33,7.72,7.11,16.16,5.33,25.19c-3.13,15.86-7.26,31.48-12.51,46.78c-0.76,2.21-1.8,4.3-2.93,6.34
			c-3.21,5.77-3.23,5.78,1.69,10.57c8.32,8.1,14.98,17.32,18.97,28.32C1002.66,364.09,1002.66,369.75,1002.66,375.42z"/>
		<path class="st1" d="M363.09,299.03c2.11-1.46-0.25-4.61,2.23-5.93c-0.45,4.96-0.89,9.93-1.34,14.89
			c-0.28,0.47-0.57,0.51-0.89,0.04C363.09,305.03,363.09,302.03,363.09,299.03z"/>
		<path class="st2" d="M363.09,308.03c0.29-0.03,0.59-0.04,0.89-0.04c-0.02,4.7-0.04,9.4-0.07,14.1c0,0-0.42,0.06-0.42,0.06
			l-0.4-0.14C363.09,317.36,363.09,312.69,363.09,308.03z"/>
		<path class="st3" d="M558.51,717.08c-3.5,0-6.99,0-10.49,0c-1.42,0-2.66-0.17-2.7-2.08c-0.03-1.49,0.21-2.84,1.95-2.87
			c3.43-0.05,3.4-2.25,3.39-4.76c-0.06-10.82-0.05-21.64,0-32.47c0.01-2.34,0.02-4.38-3.22-4.29c-1.69,0.05-2.12-1.16-2.12-2.72
			c0.01-1.85,1.08-2.22,2.58-2.22c6.99,0,13.99,0,20.98-0.01c1.43,0,2.68,0.18,2.76,2.05c0.06,1.48-0.22,2.81-1.98,2.85
			c-2.86,0.07-3.05,1.82-2.94,4.03c0.11,2.33,0.29,4.7-0.03,6.98c-0.7,5.07,0.96,7,6.35,6.56c6.36-0.52,6.39-0.12,6.39-6.72
			c0-2.33-0.05-4.66,0.01-6.99c0.05-1.98-0.07-3.67-2.7-3.77c-2.1-0.07-2.21-1.62-2.07-3.22c0.17-1.95,1.65-1.75,2.96-1.75
			c6.66-0.01,13.32-0.01,19.98,0c1.49,0,3.09-0.18,3.22,2.08c0.1,1.84-0.6,2.98-2.48,2.93c-3.36-0.09-3.05,2.15-3.04,4.37
			c0.03,10.82,0.06,21.64-0.02,32.47c-0.02,2.59,0.1,4.66,3.49,4.62c1.73-0.02,2.07,1.26,2.06,2.78c-0.01,1.85-1.11,2.18-2.6,2.18
			c-6.99-0.01-13.99-0.02-20.98,0.01c-1.51,0.01-2.62-0.26-2.63-2.12c0-1.45,0.18-2.78,1.96-2.86c2.91-0.13,2.9-2.08,2.86-4.19
			c-0.05-3.16,0.07-6.33-0.03-9.49c-0.06-1.77,1.63-4.59-1.26-5.01c-3.53-0.51-7.28-0.84-10.8,0.4c-0.47,0.17-0.57,1.78-0.59,2.73
			c-0.07,3.5-0.02,6.99-0.03,10.49c-0.01,2.45-0.62,5.17,3.33,5.21c1.48,0.01,1.59,1.4,1.57,2.65c-0.02,1.81-1.14,2.19-2.64,2.19
			C565.5,717.08,562,717.08,558.51,717.08z"/>
		<path class="st3" d="M821.02,689.82c5.77,1.69,11.18,3.8,11.97,10.93c0.59,5.3-1.32,9.42-5.91,12.24
			c-4.54,2.78-9.6,3.8-14.77,3.95c-8.3,0.24-16.62,0.13-24.93,0.14c-1.45,0-3.11,0.3-3.23-2.01c-0.1-1.78,0.45-3,2.38-3.01
			c2.64-0.03,3.33-1.47,3.32-3.85c-0.06-11.3-0.04-22.61-0.01-33.91c0.01-2.09-0.45-3.59-2.97-3.57c-2.11,0.02-2.94-1.13-2.7-3.21
			c0.27-2.29,2.01-1.82,3.41-1.83c8.98-0.03,17.95-0.02,26.93,0.01c1.32,0.01,2.66,0.17,3.96,0.39c6.62,1.11,10.54,4.44,11.32,9.55
			c0.85,5.57-1.28,8.92-7.81,12.3c-0.9,0.7-1.97,1.1-2.98,1.68c-0.61,0.09,0.05,0.88-0.07,0.24c-0.05-0.29,0.4-0.45,0.76-0.46
			C820.18,689.39,820.64,689.45,821.02,689.82z"/>
		<path class="st3" d="M743.04,665.67c5.12,0.27,11.3-0.64,17.34,1.17c10.88,3.25,17.08,11.51,17.38,23.36
			c0.31,12.44-5.56,21.55-16.5,25.04c-10.71,3.42-21.79,1.34-32.7,1.81c-1.45,0.06-2.02-0.8-2.09-2.18
			c-0.07-1.54,0.39-2.79,2.07-2.76c3.41,0.07,3.49-2,3.47-4.59c-0.09-10.8-0.08-21.61,0-32.41c0.02-2.57-0.05-4.62-3.47-4.49
			c-1.7,0.06-2.14-1.19-2.08-2.73c0.07-1.76,1.09-2.22,2.62-2.22C733.4,665.68,737.73,665.67,743.04,665.67z"/>
		<path class="st3" d="M403.08,689.74c4.34-5.4,8.65-10.83,13.02-16.2c1.36-1.67,1.28-2.51-1.05-2.77
			c-2.17-0.24-1.89-1.99-1.78-3.46c0.15-2.02,1.79-1.61,3.03-1.63c4.16-0.05,8.32-0.03,12.48-0.01c1.53,0.01,3-0.06,3.1,2.2
			c0.1,2.31-1.18,2.92-3.05,2.95c-7.35,0.11-8.94,7.11-13.12,10.99c-1.06,0.99,0.23,2.19,0.72,3.14
			c4.17,8.13,8.43,16.22,12.65,24.32c0.71,1.36,1.38,2.65,3.21,2.72c2.21,0.08,2.74,1.44,2.5,3.4c-0.25,1.99-1.79,1.67-3.04,1.67
			c-6.16,0.04-12.31,0.02-18.47,0.02c-3.53,0-3.69-2.78-2.14-4.21c2.07-1.9,1.04-3.03,0.29-4.59c-2.07-4.33-4.14-8.66-6.29-13.16
			c-2.54,1.11-3.58,2.97-3.08,5.17c0.97,4.26-3.14,10.02,3.81,12.72c0.83,0.32,1.56,4.02-1.9,4.05c-6.65,0.06-13.31,0.02-19.97,0.02
			c-1.43,0-2.67-0.18-2.7-2.07c-0.03-1.46,0.17-2.9,1.93-2.86c3.81,0.07,3.61-2.39,3.6-5.02c-0.05-10.65-0.06-21.3,0.01-31.95
			c0.02-2.5,0.08-4.68-3.4-4.57c-1.67,0.05-2.16-1.15-2.14-2.71c0.02-1.81,1.05-2.23,2.57-2.23c6.99,0.01,13.98,0.03,20.96-0.01
			c1.63-0.01,2.5,0.48,2.46,2.25c-0.03,1.45-0.17,2.8-2.01,2.76c-3.06-0.08-3.4,1.69-3.33,4.19c0.13,4.8,0.04,9.6,0.04,14.4
			C402.35,689.41,402.72,689.58,403.08,689.74z"/>
		<path class="st3" d="M707.1,692.09c0-5.95-0.07-11.9,0.04-17.84c0.04-2.43-1.06-3.24-3.28-3.24c-1.33,0-2.65-0.22-3.98-0.32
			c-1.78-0.14-2.01-1.31-2.03-2.79c-0.03-1.8,0.87-2.25,2.48-2.23c5.49,0.05,10.99,0.02,16.48,0.01c1.4,0,2.71,0.05,2.84,1.94
			c0.11,1.71-0.31,3.23-2.26,3.12c-4.77-0.26-4.66,2.69-4.62,6.13c0.13,11.65,0.11,23.31-0.01,34.97c-0.02,1.76,1.28,4.7-1.51,5.05
			c-2.86,0.36-6.18,1.45-8.59-2.01c-6.73-9.71-13.68-19.27-20.58-28.87c-0.93-1.29-1.51-2.93-3.81-3.86c0,9.2,0.01,18.09-0.01,26.98
			c0,1.77,1.08,2.24,2.55,2.39c1.49,0.15,2.98,0.33,4.47,0.47c1.8,0.17,2.6,1.04,2.54,2.94c-0.06,1.87-1.13,2.18-2.61,2.18
			c-5.49,0-10.99,0-16.48,0c-1.43,0-2.64-0.16-2.69-2.07c-0.04-1.73,0.35-3.12,2.34-3.04c4.47,0.17,4.41-2.65,4.37-5.9
			c-0.12-9.82-0.09-19.65-0.02-29.47c0.02-3.26-0.1-6.13-4.55-5.96c-1.66,0.06-2.16-1.11-2.15-2.69c0.01-1.78,0.92-2.29,2.5-2.28
			c5.33,0.02,10.66,0.07,15.98-0.02c2.28-0.04,3.1,1.62,4.16,3.07c5.78,7.91,11.55,15.82,17.33,23.73
			C706.35,692.32,706.72,692.21,707.1,692.09z"/>
		<path class="st3" d="M874.3,717.09c-3.16,0-6.33,0.03-9.49-0.01c-1.27-0.02-2.8,0.31-3.07-1.65c-0.23-1.71,0.19-2.9,2.13-3.26
			c1.29-0.24,3.59,0.03,2.44-2.42c-1.14-2.42,0.03-6.54-4.47-6.67c-3.16-0.09-6.33,0.05-9.49-0.03c-4.38-0.11-3.43,3.77-4.51,6.04
			c-1.27,2.66,1.08,2.56,2.6,2.85c1.86,0.35,1.71,1.69,1.76,3.04c0.07,1.87-1.04,2.14-2.57,2.12c-3.83-0.05-7.66-0.06-11.49,0
			c-1.62,0.03-2.51-0.48-2.47-2.24c0.03-1.42,0.12-2.92,1.95-2.83c4.26,0.22,5-2.8,6.04-5.9c4.07-12.15,8.49-24.19,12.32-36.41
			c1.21-3.86,3.38-4.07,6.6-4.14c3.21-0.07,5.1,0.56,6.22,4.01c4.1,12.65,8.55,25.18,12.84,37.77c0.79,2.31,0.99,4.98,4.42,5.12
			c1.49,0.06,1.6,1.39,1.55,2.65c-0.06,1.54-0.99,1.95-2.31,1.95c-3.66,0-7.33,0-10.99,0C874.3,717.08,874.3,717.08,874.3,717.09z"
			/>
		<path class="st3" d="M646.19,717.09c-3.16,0-6.32,0.02-9.48-0.01c-1.27-0.01-2.8,0.32-3-1.67c-0.16-1.63,0.01-2.96,2.08-3.24
			c1.38-0.18,3.52-0.16,2.39-2.51c-1.11-2.31-0.03-6.23-4.07-6.52c-3.47-0.25-6.99-0.2-10.47-0.02c-4.12,0.22-3.08,4.14-4.13,6.44
			c-1.13,2.48,1.34,2.07,2.57,2.31c2.06,0.4,2.08,1.79,2.01,3.37c-0.08,2-1.53,1.83-2.85,1.84c-3.66,0.02-7.32,0-10.97,0.01
			c-1.61,0.01-2.96-0.13-2.98-2.32c-0.02-1.94,0.92-2.86,2.65-2.82c3.42,0.07,4.27-2.16,5.17-4.86c4.21-12.59,8.76-25.06,12.82-37.7
			c1.17-3.65,3.35-3.72,6.33-3.78c3.13-0.07,5.2,0.4,6.33,3.91c4.18,12.97,8.68,25.84,13.06,38.74c0.64,1.87,0.97,3.92,3.63,4.1
			c1.78,0.12,1.9,1.51,1.79,2.95c-0.15,1.99-1.62,1.77-2.92,1.79C652.84,717.11,649.51,717.09,646.19,717.09z"/>
		<path class="st3" d="M497.01,717.09c-5.83,0-11.66,0.03-17.49-0.02c-1.37-0.01-3.17,0.57-3.44-1.77
			c-0.23-1.98,0.35-3.34,2.57-3.31c2.75,0.05,2.7-1.77,2.69-3.7c-0.02-11.33-0.08-22.65,0.04-33.98c0.03-2.5-0.67-3.7-3.27-3.69
			c-1.74,0.01-2.06-1.23-2.07-2.75c-0.01-1.86,1.07-2.2,2.57-2.2c7.5,0.01,14.99-0.01,22.49,0c1.34,0,2.71-0.07,2.81,1.91
			c0.09,1.72-0.25,3.16-2.26,3.04c-4.09-0.24-4.33,2.11-4.29,5.33c0.15,10.49,0.2,20.99-0.02,31.48c-0.08,3.67,0.95,4.69,4.72,4.89
			c5.43,0.29,8.61-1,8.51-6.96c-0.06-3.69,2.15-4.23,5.26-4.01c3.73,0.27,2.49,2.9,2.41,4.78c-0.47,10.96-0.51,10.95-11.75,10.95
			C503.34,717.09,500.18,717.09,497.01,717.09z"/>
		<path class="st3" d="M964.17,717.09c-5.65,0-11.31,0.04-16.96-0.03c-1.33-0.02-3.19,0.69-3.47-1.67
			c-0.22-1.89,0.16-3.39,2.46-3.38c2.62,0.02,2.81-1.59,2.8-3.64c-0.05-11.47-0.05-22.94,0-34.41c0.01-1.91-0.28-3.28-2.61-3.23
			c-2.16,0.05-2.87-1.13-2.68-3.19c0.22-2.34,1.95-1.86,3.34-1.86c6.99-0.04,13.97-0.03,20.96-0.01c1.42,0.01,3.1-0.4,3.33,1.9
			c0.22,2.13-0.68,3.25-2.76,3.14c-3.32-0.17-3.65,1.68-3.62,4.39c0.11,10.98,0.11,21.95,0,32.93c-0.03,2.8,0.45,4.19,3.76,4.21
			c7.67,0.04,7.89,0.27,9.34-7.51c0.68-3.66,2.89-3.32,5.43-3.38c3.54-0.08,2.41,2.5,2.39,4.21c-0.17,11.53-0.21,11.53-11.73,11.53
			C970.83,717.09,967.5,717.09,964.17,717.09z"/>
		<path class="st3" d="M915.28,717.09c-5.65,0-11.31,0.05-16.96-0.03c-1.47-0.02-3.51,0.78-3.79-1.9c-0.22-2.1,0.66-3.16,2.74-3.19
			c2.61-0.04,2.78-1.8,2.78-3.77c-0.02-11.31-0.03-22.61,0.01-33.92c0.01-2.13-0.48-3.58-2.96-3.56c-1.85,0.01-2.63-0.94-2.59-2.82
			c0.05-2.19,1.43-2.25,3.04-2.24c7.31,0.02,14.63,0.02,21.95,0c1.46,0,2.6,0.16,2.63,2.07c0.02,1.72-0.3,3.1-2.34,2.94
			c-3.68-0.3-3.93,2.05-3.93,4.73c0.02,10.81-0.01,21.61,0.08,32.42c0.02,2-0.39,5.04,3.04,4.24c3.15-0.74,8.09,3.14,9.24-3.25
			c0.3-1.63,0.68-3.25,0.95-4.89c0.6-3.63,3.43-2.32,5.53-2.48c2.69-0.2,2.15,1.76,2.15,3.4c0.02,12.26,0.03,12.26-12.08,12.26
			C921.59,717.09,918.44,717.09,915.28,717.09z"/>
		<path class="st3" d="M454.93,665.67c3.33,0,6.66,0.01,10-0.01c1.62-0.01,3.01,0.12,3.01,2.31c0,1.59-0.55,2.71-2.2,2.66
			c-3.13-0.1-3.34,1.73-3.32,4.18c0.08,10.99,0.07,21.98,0.01,32.98c-0.01,2.39,0.11,4.33,3.26,4.31c2.02-0.01,2.35,1.44,2.22,3.13
			c-0.14,1.94-1.55,1.86-2.9,1.86c-7,0.01-13.99,0.01-20.99,0c-1.31,0-2.78,0.17-2.9-1.82c-0.1-1.63,0.02-3.2,2.11-3.19
			c3.46,0.03,3.44-2.16,3.43-4.69c-0.06-10.83-0.07-21.66,0-32.49c0.02-2.42-0.13-4.32-3.29-4.24c-2.01,0.05-2.36-1.35-2.26-3.07
			c0.12-1.96,1.48-1.91,2.83-1.92C447.6,665.66,451.26,665.67,454.93,665.67z"/>
		<path class="st3" d="M634.23,662.35c-5.2,0.02-8.35-2.81-8.46-7.61c-0.12-5.05,3.17-8.32,8.38-8.31c5.14,0.01,8.67,3.4,8.58,8.25
			C642.65,659.35,639.35,662.33,634.23,662.35z"/>
		<path class="st4" d="M821.02,689.82c-0.78-0.11-1.55-0.22-2.33-0.33c0.79-1.16,1.87-1.69,3.28-1.54
			C821.65,688.57,821.33,689.19,821.02,689.82z"/>
		<path class="st5" d="M490.93,422.86c0.68-3.05,1.18-6.15,2.06-9.15c4.29-14.68,2.08-29.2-2.51-43.13
			c-2.83-8.58-9.63-15.21-17.89-19.33c-2.84-1.42-2.44-2.35-1.52-4.36c1.32-2.87,2.39-5.86,3.82-8.68
			c3.83-7.54,3.26-15.53,1.93-23.36c-1.13-6.6,0.07-12.87,0.84-19.28c0.68-5.6,1.23-11.18-1.47-16.61c-1.36-2.73-3.15-4-6-4.41
			c-4.79-0.68-6.17-2.87-5.56-7.8c1.01-8.27,3.26-16.27,4.89-24.41c0.96-4.83,0.54-9.22-2.94-13.02
			c-1.11-1.21,0.24-11.67,1.51-12.64c1.46-1.11,2.54,0.11,3.56,0.78c3.48,2.27,6.88,4.66,10.3,7.02c3.24,2.23,5.71,1.66,7.97-1.64
			c9.72-14.19,21.01-27.06,33.62-38.75c27.42-25.45,59.09-43.49,95.03-53.91c25.62-7.43,51.83-10.45,78.41-8.91
			c27.91,1.62,54.86,7.86,80.57,19.09c30.14,13.17,56.4,31.83,78.91,55.78c7.63,8.12,14.57,16.85,20.94,26
			c3.3,4.73,4.38,4.96,9.26,1.77c6.52-4.26,6.83-4.27,7.08,3.18c0.26,7.93,3.05,14.92,6.74,21.69c0.82,1.51,2.24,2.61-0.96,3.25
			c-20.22,4.03-25.64,11.89-28.35,30.63c-1.64,11.37-1.57,22.81,0.66,34.21c1.25,6.39,4.18,11.93,7.83,17.09
			c1.91,2.69,2.14,4.31-0.6,6.53c-10.21,8.26-14.29,19.28-13.66,32.16c0.12,2.56-1.73,3.85-2.68,5.71
			c-1.44,2.84-2.46,5.79-3.09,10.07c-5.89-8.95-11.23-17.07-16.58-25.2c-3.48-5.28-7.05-10.5-10.4-15.86
			c-1.57-2.5-3.38-3.97-6.46-3.47c-3.72,0.61-5.73-1.48-7.53-4.45c-4.83-7.96-9.94-15.76-14.83-23.68c-1.41-2.3-3.27-2.93-5.84-2.9
			c-10.83,0.1-21.66-0.16-32.48,0.15c-3.98,0.11-6.56-0.98-7.38-4.83c-1.8-8.4-7.2-9.48-14.97-9.4
			c-40.31,0.42-80.63,0.25-120.95,0.11c-3.97-0.01-6.74,0.73-8.01,4.77c-2.38,7.6-7.33,10.46-15.4,9.47
			c-6.24-0.77-12.65,0-18.97-0.22c-3.36-0.12-5.47,0.92-7.35,3.85c-5.21,8.11-10.83,15.97-16.25,23.95
			c-1.05,1.54-2.02,3.47-4.12,3.11c-4.6-0.78-6.45,2.27-8.59,5.36c-16.69,24.04-33.45,48.03-50.19,72.03c-0.46,0.66-1,1.28-1.5,1.92
			C491.52,423.04,491.22,422.95,490.93,422.86z"/>
		<path class="st6" d="M816,528.95c-0.57,5.12,1.65,9.8,2.29,14.74c1.08,8.26-1.58,14.69-8.43,19.4
			c-6.51,4.47-14.25,7.52-17.7,15.54c-0.82,1.91-2.5,0.98-3.94,0.64c-8.64-2.05-16.64-5.82-24.81-9.14
			c-8.48-3.44-16.89-7.24-25.89-9.05c-15.76-3.17-30.39,0.57-44.15,8.36c-13.41,7.6-10.56,9.08-25.59-0.73
			c-14.13-9.23-29.11-15.33-46.32-14.67c-9.93,0.38-19.3,3.35-28.71,6.12c-8.36,2.46-8.78,2.48-13.25-4.6
			c-3.34-5.31-8.86-7.46-13.93-10.17c-3.53-1.89-5.71-4.32-6.58-8.17c-2.53-11.2-5.1-22.39-7.78-33.55
			c-0.81-3.39-2.02-6.69-3.08-10.02c-2.9-9.13-8.14-15.92-18.02-18.17c-4.27-0.97-7.43-3.51-9.81-7.17
			c-5.73-8.79-14.75-13.81-22.95-19.72c-3.06-2.21-3.62-3.75-1.24-7.06c10.79-15.01,21.35-30.18,31.83-45.41
			c1.75-2.54,3.7-3.31,6.63-3.3c32.66,0.08,65.31,0.07,97.97,0.01c2.68-0.01,4.68,0.72,6.66,2.6
			c14.13,13.42,28.46,26.62,42.49,40.14c2.8,2.69,4.36,2.34,6.9,0c14.59-13.41,29.34-26.65,43.93-40.05c2.13-1.95,4.3-2.71,7.15-2.7
			c34.15,0.08,68.31,0.11,102.46-0.04c3.44-0.01,5,1.24,6.3,4.21c4.67,10.68,9.49,21.29,14.48,31.82c1.41,2.99,0.83,4.64-1.63,6.75
			c-4.43,3.8-9.6,6.11-14.94,7.85c-5.45,1.77-8.52,5.34-10.79,10.26c-3.27,7.09-5,14.44-4.64,22.26c0.31,0.21,0.4,0.4,0.27,0.56
			c-0.12,0.15-0.24,0.22-0.36,0.22c-0.37,7.53-4.3,13.73-7.48,20.21c-4.19,8.53-7.32,17.35-7.38,27.01"/>
		<path class="st7" d="M468.16,192.02c-1.02-19.47-23.62-30.9-40.15-20.33c-1.49,0.96-2.72,2.63-4.78,2.35
			c-4.08-0.57-5.46-3.87-2.99-7.28C458.79,113.46,508.7,75,570.43,52.12c41.9-15.53,85.31-22.36,129.87-19.83
			c73.09,4.15,138.19,29.21,194.25,76.78c20.03,17,37.52,36.33,52.95,57.58c2.15,2.96,2.39,4.38-1,6.45
			c-3.63,2.21-6.28,4.65-10.45,0.33c-2.66-2.76-7.07-2-10.3,0.16c-12.08,8.11-23.86,16.45-29.03,31.18
			c-1.95,5.55-8.01,7.19-12.55,10.07c-1.58,1-2.61-1.6-3.53-2.85c-16.3-22.01-35.66-40.84-58.23-56.38
			c-34.46-23.73-72.48-37.82-114.12-41.71c-63.94-5.97-121.72,10.27-173.02,49.02c-18.31,13.84-34.26,30.12-47.77,48.68
			c-2.7,3.71-4.68,4.1-7.7,1c-0.11-0.12-0.26-0.21-0.41-0.29c-7.42-3.55-12.33-8.59-10.61-17.66c0.11-0.57-0.37-1.25-0.57-1.87
			c-0.36-0.15-0.48-0.32-0.38-0.5C467.94,192.11,468.05,192.02,468.16,192.02z"/>
		<path class="st7" d="M892.91,406.99c3.4-10.6,6.81-21.2,10.2-31.8c1.94-6.06,1.42-6.9-5-7.31c-3.16-0.21-5.75-1.45-8.13-3.38
			c-1.29-1.05-2.54-2.16-3.92-3.09c-2.08-1.4-4.01-1.02-5.89,0.61c-1.98,1.71-0.91,3.3,0.06,4.83c2.04,3.23,4.17,6.41,6.3,9.59
			c5.28,7.84,4.49,15.9,1.03,24.41c-4.09-2.46-5.49-6.87-8.48-9.87c-1.49-1.49-2.58-4.83-5.33-3.21c-3.13,1.84-0.92,4.52,0.35,6.47
			c5.89,9.06,9.95,18.76,11.23,29.56c0.46,3.85,1.38,8.83-2.03,10.6c-3.83,1.99-7.44-2-9.95-4.88
			c-10.54-12.07-11.92-26.23-6.86-40.68c2.3-6.56,3.29-13.1,4.37-19.76c1.04-6.45,2.72-12.66,6.25-18.27
			c2.01-3.2,4.37-5.39,8.5-3.71c0.75,0.31,1.62,0.39,2.44,0.47c1.89,0.18,4.34,1.43,5.5-0.36c1.03-1.58-1.08-3.28-1.91-4.84
			c-2.66-4.99-5.51-9.87-8.28-14.8c-2.21-3.93-4.1-7.97-4.35-12.58c0.7-7.98,0.73-15.96-0.02-23.94
			c-0.57-11.74,1.98-22.12,12.29-29.38c3.24-2.28,6.01-2.96,9.48-0.44c3.35,2.44,6.86,4.95,10.69,6.41
			c9.39,3.57,14.75,10.35,18.66,19.33c3.3,7.59,7.87,14.66,12.28,21.71c2.09,3.34,2.94,6.64,2.35,10.4
			c-1.8,11.46-5.14,22.41-11.54,32.18c-2.09,3.19-4.14,8.13-8.81,6.63c-4.87-1.56-3.78-6.85-3.59-10.87
			c0.38-8.34,4.12-15.7,7.35-23.18c1.19-2.74,2.74-5.36,2.96-8.43c0.11-1.63,0.52-3.56-1.56-4.25c-1.72-0.57-3.24,0.11-4.42,1.55
			c-2.26,2.78-3.74,5.88-4.2,9.45c-0.3,2.3-0.65,4.59-0.99,6.92c-9.74-8.38-7.2-19.34-6.76-29.8c0.1-2.31,0.82-4.59,1.1-6.9
			c0.23-1.82,1.89-4.25-0.48-5.31c-2.75-1.24-3.69,1.48-4.49,3.43c-1.58,3.84-4.31,5.11-8.33,4.51c-1.66-0.25-2.69-1.12-3.78-2.15
			c-2.67-2.51-5.35-5-8.07-7.46c-1.12-1.01-2.36-2.05-3.98-1.01c-1.7,1.08-1.82,2.85-1.21,4.44c0.76,2,1.67,4.06,2.98,5.72
			c3.29,4.18,6.54,8.48,10.36,12.15c6.09,5.84,9.94,12.84,12.56,20.7c2.57,7.75,5.12,15.51,6.14,23.64
			c0.81,6.51-0.38,7.29-6.35,4.83c-3.62-1.49-6.88-3.89-11.52-4.74c0.63,3.78,2.99,6.03,5.07,8.1c4.22,4.21,5.34,9.36,5.86,14.95
			c1.24,13.53,0.02,27.31,4.66,40.5c1.31,3.72-0.4,7.6-1.82,11.16c-2.68,6.68-5.97,13.03-11.17,18.18
			c-1.55,1.53-3.14,3.04-5.27,3.69c-3.4,1.04-5.53-0.69-5.2-4.26c0.17-1.8,0.24-3.73,1.52-5.19c2.77-3.17,2.63-6.65,1.28-10.3
			C892.84,420.97,893.04,413.98,892.91,406.99z"/>
		<path class="st7" d="M425.7,235.52c-4.69-2.9-6.25-7.36-6.62-12.29c-0.32-4.14-0.13-8.32-0.22-12.48
			c-0.03-1.44,0.25-3.21-1.8-3.59c-2.17-0.39-3.51,0.75-4.07,2.78c-1.81,6.51-0.94,12.96,1.32,19.11
			c3.62,9.86,7.26,19.64,7.39,30.36c0.08,6.68-0.19,13.29-1.91,19.76c-0.54,2.04-1.26,4.31-3.77,4.88c-2.53,0.57-4-1.2-5.38-2.9
			c-4.36-5.4-7.82-11.69-9.04-18.18c-1.15-6.14,1.39-12.71,3.89-18.69c0.9-2.15,1.29-3.86,0.13-6.07
			c-5.55-10.54-3.86-20.77,2.37-30.25c6.03-9.17,13.76-17.09,20.8-25.48c5.49-6.55,13.81-7.18,21.67-3.94
			c7.38,3.04,10.81,9.19,10.66,17.09c-0.2,10.18-2.75,20.1-3.67,30.2c-0.29,3.19-1.34,6.26,2.33,8.82c2.53,1.77,1.77,5.39,0.78,7.97
			c-3.43,8.9-4.25,18.09-3.79,27.47c0.17,3.33-1.45,5.82-3.56,7.96c-6.02,6.11-12.74,11.17-21.29,13.33
			c-2.61,0.66-5.23,0.64-7.06-1.13c-2-1.94,0.26-4.02,0.98-5.89c2.4-6.2,4.74-12.41,7.58-18.45c2.14-4.53,1.96-9.83,1.55-14.75
			c-1.22-14.76,3.48-27.08,13.85-37.53c3.39-3.42,6.23-7.42,7.26-12.33c0.34-1.61,0.85-3.6-0.71-4.66c-1.88-1.28-3.44,0.2-4.8,1.48
			c-10.67,10.02-20.2,20.8-23.9,35.52C426.55,234.22,426.1,234.76,425.7,235.52z"/>
		<path class="st7" d="M390.09,277.76c9.62-0.4,23.15,8.32,23.41,20.29c0.08,3.64,0.92,7.25,1.29,10.89
			c0.79,7.8,3.92,14.42,9.99,19.44c3.87,3.2,5.58,6.55,4.51,11.99c-2.09,10.58-2.52,21.46-4.93,32.02c-0.36,1.56-0.37,3.7-2.21,4.05
			c-1.52,0.29-2.43-1.54-3.37-2.64c-3.14-3.71-5.66-7.74-7.01-12.53c-1.95-6.88-3.91-13.79-6.41-20.48
			c-4.38-11.73-6.11-23.77-5.52-36.23c0.12-2.64-0.3-5.31-0.44-7.96c-0.08-1.61-0.35-3.04-2.35-3.2c-1.63-0.13-3.1,0.38-3.72,1.93
			c-0.6,1.52-1.02,3.18-1.14,4.8c-0.29,3.82-0.13,7.68-0.6,11.47c-0.32,2.62,0.83,5.92-1.04,7.71c-2,1.9-4.51-1.07-6.94-1.11
			c-1.12-0.02-2.41-0.62-3.16,0.7c-0.77,1.35,0.26,2.18,1.15,2.93c17.16,14.64,24.25,34.54,29.1,55.61
			c0.46,2.01,1.67,4.78-0.31,5.91c-1.54,0.88-3.42-1.5-4.96-2.68c-5.83-4.47-10.63-10.08-12.41-17.14
			c-3.66-14.56-11.5-26.82-19.78-38.91c-2.17-3.17-2.63-6.36-1.9-9.91c1.79-8.8,3.56-17.6,5.44-26.38
			C378.45,280.58,382.17,277.68,390.09,277.76z"/>
		<path class="st7" d="M948.15,374.71c0.69,6.22-1.46,13.22-4.18,20.06c-3.26,8.2-6.39,16.44-8.56,25.01
			c-2.66,10.51-10.49,16.21-19.3,21.03c-2.69,1.47-3.33-0.02-3.07-2.31c0.53-4.78,2.54-8.97,5.79-12.47
			c1.19-1.28,2.19-2.32,1.95-4.25c-0.46-3.8,0.07-7.9-1.21-11.37c-2.55-6.91-0.42-12.26,3.98-17.27c3.69-4.2,4.88-9.46,5.98-14.62
			c1.11-5.24,3.92-9.02,7.89-12.3c9.12-7.55,18.86-14.27,28.51-21.09c4.57-3.23,11.2-2.28,15.89,2.5
			c7.04,7.17,10.25,16.18,11.32,26.04c0.26,2.38-0.95,4.18-2.34,5.86c-5.52,6.66-9.1,14.28-11.36,22.56
			c-1.4,5.12-4.39,9.3-7.71,13.29c-0.95,1.14-1.85,2.39-3.6,2.37c-3.8-0.03-13.05-8.61-13.4-12.38c-0.19-2.04,0.72-3.49,2.12-4.82
			c8.45-8.05,14.99-17.87,23.7-25.69c1.18-1.06,2.78-2.2,1.4-4.19c-1.25-1.8-2.91-1.91-4.86-1.24c-4.95,1.69-9.47,4.07-13.23,7.79
			c-1.25,1.24-2.29,3.38-4.45,2.4c-2.04-0.92-1.43-3.19-1.51-4.95c-0.16-3.49,0.11-7.02-1.32-10.34c-0.82-1.9-1.81-3.74-4.33-3.33
			c-2.43,0.39-3.86,2.04-4.06,4.4C947.98,368.05,948.15,370.73,948.15,374.71z"/>
		<path class="st6" d="M590.6,384.02c-16.47,0-32.95,0.01-49.42-0.03c-1.25,0-2.91,0.66-3.68-0.66c-0.8-1.38,0.67-2.42,1.38-3.45
			c5.3-7.66,10.72-15.24,15.98-22.93c1.56-2.29,3.38-3.19,6.21-3.18c27.62,0.1,55.25,0.12,82.87-0.01c3.63-0.02,4.65,1.14,4.12,4.61
			c-1.15,7.55-2.22,15.13-3.02,22.73c-0.34,3.23-2.27,3.09-4.52,3.09c-16.64-0.02-33.28-0.01-49.92-0.01
			C590.6,384.13,590.6,384.07,590.6,384.02z"/>
		<path class="st7" d="M542.15,529.83c-8.08-9.8-9.8-21.89-12.2-33.75c-0.34-1.67-0.59-3.61-2.96-3.03
			c-2.28,0.55-1.71,2.39-1.43,4.08c0.52,3.11,1.09,6.22,0.69,9.41c-0.33,2.66-1.28,3.62-3.88,1.97c-4.91-3.12-8.76-6.86-10.58-12.72
			c-2.51-8.08-4.7-16.36-9.59-23.48c-0.77-1.12-1.1-3.3-2.96-2.6c-1.6,0.6-0.6,2.35-0.35,3.57c0.6,2.93,1.26,5.85,1.97,8.75
			c0.6,2.44-0.24,3.39-2.75,3.21c-7.95-0.58-14.27-4.08-19.16-10.32c-1.05-1.34-1.78-3.79-4.1-2.67c-1.8,0.87-0.91,2.98-0.86,4.55
			c0.14,4.77,2.38,8.01,6.8,10.11c9.91,4.71,20.18,8.9,28.55,16.24c2.74,2.4,6.98,4.18,6.43,9.25c-2.62-0.31-5.52-3.4-6.98-0.84
			c-1.28,2.25,1.76,4.75,3.54,6.6c3.09,3.21,7.53,4.14,11.46,5.89c3.88,1.72,7.27,4.02,10.13,7.13c0.54,0.59,1.32,1.17,0.83,2.13
			c-0.46,0.9-1.4,0.72-2.2,0.75c-2.76,0.1-5.28-0.9-7.6-2.18c-17.09-9.42-33.62-19.71-48.55-32.36
			c-6.89-5.84-11.06-13.33-11.44-22.5c-0.34-8.22,3.26-12.65,11.2-14.51c5.35-1.25,10.76-2.27,16.02-3.81
			c6.38-1.87,12.18-0.55,15.61,4.73c6.29,9.67,13.78,17.31,24.47,22.22c5.52,2.54,8.1,8.64,10.29,14.31
			c3.38,8.75,5.01,17.93,6.35,27.16c0.43,2.99,0.14,6.02-1.71,8.63c-0.79,1.12-1.83,2.16-3.29,1.78c-1.53-0.4-0.97-1.87-1.01-2.96
			c-0.07-1.61,0.62-3.34-0.77-4.73L542.15,529.83z"/>
		<path class="st7" d="M915.61,212.07c-4.56,4.87-5.1,9.63-4.9,14.47c0.2,4.82,0.92,9.62,2.33,14.25c0.79,2.61,1.18,5.22,0.75,7.87
			c-0.35,2.14,0.68,5.6-1.84,5.98c-2.21,0.33-3.17-3.04-4.07-5.09c-3.85-8.74-6.16-17.97-7.64-27.35c-0.74-4.7,0.98-9.28,3.1-13.45
			c5.24-10.3,12.78-18.58,22.45-24.97c3.13-2.07,5.74-1.78,8.66,0.34c14.56,10.54,19.45,27.81,12.25,44.29
			c-5.31,12.16-8.9,24.67-8.91,38.07c0,2.57,0.39,6.02-2,7.22c-1.98,0.99-3.86-1.97-5.85-3.08c-0.58-0.32-1.07-0.79-1.62-1.17
			c-10.5-7.39-11.27-10.89-4.08-21.83c4.98-7.57,8.84-15.62,11.95-24.09c0.4-1.09,0.78-2.19,1.09-3.31
			c0.52-1.89,1.81-4.55,0.12-5.54c-2.04-1.2-3.31,1.6-4.45,3.04c-3.5,4.46-6.5,9.26-8.87,14.43c-0.7,1.52-0.56,4.03-3.24,3.63
			c-2.33-0.35-1.73-2.51-1.99-4.03C917.81,225.57,916.82,219.4,915.61,212.07z"/>
		<path class="st7" d="M939.7,287.8c-0.15-2.83,1.02-5.81,1.72-8.88c2.12-9.23,4.25-18.46,6.34-27.7c0.74-3.29,1.97-6.31,3.98-9.05
			c3.07-4.17,7.12-5.58,11.85-3.79c9.01,3.41,16.05,9.29,20.79,17.77c3.62,6.47,1.07,12.85-1.02,18.81
			c-2.95,8.43-3.88,16.95-4.74,25.77c-1.53,15.55-10.21,27.08-24.04,34.55c-0.86,0.46-1.74,1.15-2.77,0.51
			c-1.26-0.79-0.94-1.99-0.64-3.13c1.46-5.63,2.81-11.29,4.42-16.88c1.84-6.39,3.99-12.72,4.7-19.36
			c1.19-11.2,6.56-20.45,13.15-29.18c1-1.33,1.94-2.7,2.87-4.09c0.84-1.26,1.8-2.57,0.43-4.03c-1.3-1.38-2.89-1.63-4.54-0.68
			c-6.93,3.98-13.83,8-20.75,11.97c-1.56,0.89-2.05,2.12-1.35,3.76c3.12,7.33,3.64,15.13,4.31,22.93c0.18,2.08,0.46,4.03-1.73,5.23
			c-2.13,1.16-4.26,0.86-6.12-0.48C941.91,298.53,939.6,293.95,939.7,287.8z"/>
		<path class="st7" d="M434.62,351.55c-0.17-3.47-0.45-5.92-0.37-8.36c0.32-10-1.25-19.58-6.36-28.33
			c-2.66-4.56-1.78-8.72,1.29-12.49c8.31-10.22,19.35-16.17,31.95-19.14c5.63-1.33,9.11,2.73,8.37,9.11
			c-0.72,6.28-1.9,12.52-1.58,18.89c0.12,2.33-0.26,4.83,0.45,6.95c3.27,9.73,0.14,18.39-4.14,26.85
			c-6.43,12.71-14.22,24.48-24.71,34.26c-1.88,1.75-4,4.57-6.73,3.16c-2.23-1.15-0.83-4.25-0.82-6.5c0.01-3.38,0.66-6.73,2.5-9.55
			c7.07-10.81,9.99-23.16,13.25-35.35c2.98-11.12,5.91-22.2,12.18-32.06c0.83-1.3,2.33-3.04,0.52-4.42c-1.7-1.29-3.14,0.46-4.3,1.5
			c-4.16,3.7-6.77,8.6-9.85,13.14c-0.72,1.06-1.16,2.69-2.72,2.65c-1.85-0.05-1.39-1.97-1.95-3.06c-0.53-1.03-0.8-2.21-1.42-3.17
			c-1.21-1.89-3.09-3.93-5.2-2.97c-2.2,1.01-0.15,3.33,0.29,4.83c3.07,10.42,5.74,20.87,5.08,31.87
			C440.09,343.77,439.26,347.9,434.62,351.55z"/>
		<path class="st7" d="M852.95,468.98c-2.02,4.74-0.85,9.72-0.85,14.57c0,7.57-0.9,14.89-4.34,21.65c-1.73,3.39-3.1,8.57-8.82,3.97
			c-1.11-0.89-2.45,0.31-3.11,1.62l0,0.03c-2.11,5.74-0.53,11.67-0.87,17.51c-0.19,3.19-0.49,6.25-2.21,8.98
			c-0.99,1.56-2.24,3-4.34,2.73c-2.12-0.27-2.92-2-3.43-3.78c-0.68-2.37-1.39-4.76-1.01-7.29c0.46-3.35,0.25-6.69-0.07-10.03
			c-0.02-5.94,3.2-10.82,5.72-15.77c6.08-11.92,8.92-24.62,10.29-37.76c0.72-6.89,3.86-11.83,10.57-14.31
			c6.09-2.25,11.72-5.5,17.45-8.53c7.54-3.99,15.77,0.15,17.13,8.4c0.92,5.57,2.14,11.1,2.72,16.7c0.54,5.22-0.77,6.43-5.84,5.77
			c-4.52-0.59-6.63,2.43-8.9,5.22c-2.42,2.97-4.73,5.96-9.54,6.01c0.36-2.64,0.26-5.23,1.14-7.44c1.18-2.97,1.69-5.58-1.35-7.4
			C860.07,467.92,856.68,465.55,852.95,468.98L852.95,468.98z"/>
		<path class="st7" d="M472.05,431c0.25-2.89-0.1-6-1.43-8.26c-5.59-9.52-3.36-19.63-3.1-29.67c0.18-6.8,2.1-13.06,4.59-19.26
			c0.6-1.5,2.27-3.57-0.45-4.61c-2.07-0.79-3.91,0.17-5.09,2.11c-1.67,2.75-2.44,5.84-3.13,8.92c-0.9,4.06-1.9,8.13-2.31,12.26
			c-0.42,4.22-1.97,4.32-5.02,2.25c-1.63-1.11-3.48-1.93-5.31-2.72c-0.88-0.38-2.13-0.67-2.79,0.25c-0.69,0.95,0.23,1.85,0.76,2.64
			c4.43,6.66,8.93,13.27,12.38,20.51c0.76,1.59,2.46,3.7,1.22,5c-1.55,1.63-4.07,0.67-6.08-0.22c-4.67-2.07-7.42-6.05-9.91-10.23
			c-2.49-4.19-4.15-8.74-5.05-13.5c-0.86-4.53-0.39-8.85,2.51-12.82c5.42-7.41,11.07-14.59,18.27-20.39
			c6.08-4.89,11.78-4.76,15.73,1.74c8.93,14.69,14.57,30.32,8.85,47.82c-3.53,10.8-4.63,22.13-7.45,33.08
			c-0.56,2.18-0.67,4.35-3.81,4.09c-3.53-0.29-2.4-2.93-2.58-4.88c-0.37-4.11,0.68-8.3-0.68-12.36
			C471.43,432.23,471.53,431.63,472.05,431z"/>
		<path class="st6" d="M793.89,322.08c5.21,7.27,10.41,14.54,15.53,21.7c-1.03,1.72-2.33,1.13-3.36,1.13
			c-26.45,0.04-52.89-0.02-79.34,0.09c-3.17,0.01-4.82-0.54-5.13-4.15c-0.54-6.27-1.62-12.49-2.48-18.74
			c0.51-0.37,1.08-0.53,1.71-0.47c23.79-0.08,47.57,0.09,71.36-0.11C792.82,321.52,793.39,321.7,793.89,322.08z"/>
		<path class="st7" d="M625.04,563.47c13.82-0.26,26.13,4.42,37.74,11.31c2.6,1.54,6.66,3.9,4.65,7c-1.62,2.51-5.83,0.69-8.42-1.22
			c-8.28-6.09-17.24-6.18-26.59-3.28c-11.62,3.61-21.62,10.17-31.36,17.2c-4.18,3.02-8.3,6.12-13.32,7.71
			c-6.58,2.09-10.32,0.76-13.75-5.22c-2.24-3.91-4.64-7.66-7.94-10.79c-1.71-1.62-2.39-3.19,0.48-4.53
			c15.21-7.09,30.15-14.94,47.08-17.34C617.39,563.78,621.23,563.74,625.04,563.47z"/>
		<path class="st6" d="M652.87,322.13c-0.76,6.42-1.49,12.84-2.28,19.26c-0.24,1.98-1.05,3.4-3.45,3.39
			c-27.24-0.11-54.48-0.18-81.72-0.28c-0.14,0-0.27-0.16-1.17-0.73c4.9-6.96,9.78-13.91,14.67-20.86c0.52-0.29,1.06-0.53,1.63-0.71
			c2.45-0.58,4.95-0.58,7.44-0.57c21.12,0.14,42.24-0.32,63.35,0.23C651.89,321.67,652.41,321.76,652.87,322.13z"/>
		<path class="st7" d="M911.9,451.1c2.98,0.42,7.64,0.83,12.18,1.75c8.74,1.77,10.72,5.11,8.3,13.93
			c-2.42,8.83-5.72,17.35-9.64,25.63c-4.22,8.92-9.22,17.32-16.55,24.12c-3.33,3.09-6.95,5.69-11.47,6.76
			c-5.88,1.39-9.19-1.45-8.38-7.44c0.57-4.16,1.93-8.03,5.14-11.09c9.5-9.04,15.5-21.22,26.18-29.27c2.38-1.79,3.16-5.02,4.1-7.87
			c0.47-1.43,0.86-3.08-0.75-4.05c-1.35-0.81-3.02-0.74-4.27,0.17c-2.28,1.66-4.29,3.69-6.58,5.32c-3.3,2.35-7.14,4.93-10.94,2.15
			c-4.09-2.99-3.09-7.82-1.78-11.98C899.16,453.73,904.11,450.79,911.9,451.1z"/>
		<path class="st7" d="M776.7,611.01c-7.41-0.27-14.08-3.54-19.9-8.98c-6.54-6.13-12.73-12.74-21-16.71
			c-13.53-6.49-27.3-8.17-41.45-2.04c-0.84,0.37-1.77,1.35-2.64,0.28c-0.85-1.05-0.4-2.26,0.29-3.23c1.27-1.79,2.92-3.24,4.85-4.24
			c13.05-6.78,26.83-9.61,41.5-7.51c9.02,1.29,16.65,5.25,21.52,13c4.34,6.91,10.18,10.49,18.13,11.3
			c5.12,0.52,9.35,3.16,13.47,6.12c2.76,1.98,2.67,3.87,0.68,6.15C788.22,609.66,783.03,610.97,776.7,611.01z"/>
		<path class="st7" d="M411.33,389.94c8.02,0.49,17.19,2.39,24.11,10.01c5.32,5.86,5.92,11.02,2.2,17.95
			c-3.27,6.09-2.36,12.82,2.58,18.46c5.6,6.38,11.31,12.67,16.84,19.11c1.15,1.34,3.74,2.45,2.25,4.87
			c-1.61,2.62-4.38,2.02-6.8,1.55c-1.04-0.2-2.04-1.1-2.87-1.88c-8.78-8.29-16.64-16.92-19.2-29.55
			c-2.16-10.66-7.83-20.6-6.33-32.01c0.16-1.21-0.17-2.33-1.76-2.46c-1.76-0.14-2.72,0.6-3.28,2.32c-2,6.05-2.84,12.27-3.32,18.61
			c-0.49,6.37-0.72,6.33-6.58,3.6c-4.84-2.26-9.46-4.89-13.84-7.95c-6.94-4.86-7.07-13.11-0.27-18.52
			C398.8,391.05,403,389.87,411.33,389.94z"/>
		<path class="st7" d="M835.96,553.46c-0.14-4.83,1.99-7.19,4.3-9.29c5.28-4.81,10.75-9.42,16.05-14.22
			c1.15-1.04,3.15-2.2,2.26-3.99c-0.84-1.69-3.01-0.92-4.57-0.82c-4.91,0.33-5.77-0.46-5-5.24c0.37-2.32,1.36-4.41,2.53-6.46
			c5.13-9.01,22.36-26.89,30.49-31.41c0,5.66-0.62,11.27,0.13,16.68c1.57,11.37-3.31,19.99-10.5,27.85
			c-5.3,5.79-11.38,10.72-17.84,15.14C848.22,545.54,842.48,549.18,835.96,553.46z"/>
		<path class="st7" d="M712.27,586.15c15.64,0.98,28.03,8.58,38.87,19.26c3.21,3.16,6.16,6.61,8.22,10.62
			c0.8,1.56,3.81,3.65,0.62,5.35c-2.81,1.5-6.02,4.57-9.37,0.85c-3.23-3.58-6.26-7.35-9.39-11.02c-4.46-5.23-9.47-9.81-15.54-13.14
			c-11.19-6.14-22.1-5.17-32.58,1.56c-7.23,4.65-9.12,11.08-5.99,19.06c1.15,2.94,2.63,5.75,3.9,8.65c0.44,1.01,1.53,2.07,0.56,3.19
			c-0.93,1.08-2.29,1.08-3.69,0.83c-3.08-0.56-5.61-1.98-7.55-4.46c-5.72-7.28-4.63-19.31,2.48-25.23
			c5.5-4.58,11.34-8.72,17.51-12.38C704.01,587.11,707.97,586.09,712.27,586.15z"/>
		<path class="st6" d="M684,419.59c-10.96-10.67-20.81-20.29-30.7-29.88c-1.41-1.37-1.27-2.93-1.01-4.61
			c0.96-6.24,1.93-12.47,2.8-18.72c0.35-2.54,0.87-3.91,3.56-1.7c7.7,6.34,15.49,12.58,23.25,18.85c1.2,0.97,2.13,2.02,2.13,3.73
			C683.99,397.53,684,407.8,684,419.59z"/>
		<path class="st7" d="M664.32,591.26c-6.12,2.62-10.69,4.47-15.17,6.53c-2.55,1.18-5.09,2.5-7.39,4.1
			c-7.85,5.44-9.51,9.58-6.7,17.18c0.39,1.05,1.56,2.88-0.06,3.53c-1.97,0.78-2.29-1.41-2.8-2.68c-1.71-4.23-1.96-8.7-2.22-13.2
			c-0.11-2,0.2-4.62-2.93-4.92c-2.81-0.27-3.67,1.91-4.46,3.91c-0.8,2-1.27,4.13-2,6.16c-0.61,1.7-0.05,4.23-3.15,4.22
			c-2.93-0.01-4.76-1.36-5.49-4.09c-1.86-6.92-0.73-13.25,4.34-18.5c9.48-9.8,33.86-11.78,44.84-3.78
			C661.79,590.22,662.63,590.46,664.32,591.26z"/>
		<path class="st6" d="M681.91,361.23c-7.11-6.93-14.19-13.89-21.35-20.76c-1.51-1.45-1.7-3.03-1.52-4.94
			c1.29-13.7,1.27-13.71,14.95-13.56c0.99,0.01,1.98,0.09,2.98,0.13c1.07,0.6,2.32,0.58,3.46,0.98c2.22,0.51,2.82,2.23,2.86,4.14
			c0.21,10.31,0.21,20.62,0,30.93C683.26,359.33,682.92,360.45,681.91,361.23z"/>
		<path class="st7" d="M476.6,522.92c-10.13-0.24-20.93-8.08-24.1-17.29c-0.53-1.55-0.85-3.25-0.86-4.88
			c-0.02-3.45,0.67-6.87,4.17-8.42c3.4-1.5,6.5-0.18,9.17,2.17c1.91,1.67,3.52,3.62,4.31,6.03c1.96,5.98,4.94,11.23,9.97,15.2
			c1.87,1.47,2.51,3.69,1.75,5.86C480.17,523.99,477.76,522.31,476.6,522.92z"/>
		<path class="st7" d="M473.56,532.85c3.83-0.98,6.74,1.21,9.66,2.84c12.89,7.17,26.38,12.62,41.06,14.69
			c5.9,0.83,11.87,1.2,17.71,1.77C529.14,563.09,479.37,549.3,473.56,532.85z"/>
		<path class="st7" d="M408.78,447.08c-5.2-0.39-8.91-2.44-11.83-5.82c-4.01-4.64-6.2-10.12-6.88-16.19c-0.12-1.05-0.52-2.44,1-2.96
			c1.05-0.36,1.92,0.17,2.64,0.93c5.59,5.91,11.6,11.3,18.44,15.77c2.06,1.35,1.33,3.53,0.64,5.42
			C412,446.38,410.43,447.35,408.78,447.08z"/>
		<path class="st7" d="M449.33,422.84c2.89-0.41,5.13,0.76,6.97,2.93c3.48,4.1,5.9,8.78,7.8,13.77c1.34,3.53-0.19,4.49-3.48,4.2
			c-2.65-0.23-4.77-1.49-6.47-3.35c-3.49-3.82-6.15-8.19-8.19-12.96C444.48,423.91,445.48,422.37,449.33,422.84z"/>
		<path class="st7" d="M438.66,470.64c-4.84-0.53-9.19-0.8-12.59-4c-2.36-2.21-3.01-4.83-1.48-7.63c1.44-2.63,3.93-3.52,6.83-2.72
			c5.94,1.64,11.27,4.16,14.33,10c0.89,1.71-0.03,2.63-1.35,3.05C442.36,469.99,440.22,470.3,438.66,470.64z"/>
		<path class="st7" d="M571.79,567.84c0.1,4.58-3.41,8.2-8.08,8.35c-4.94,0.16-8.64-3.37-8.62-8.21c0.02-4.62,3.51-8.06,8.25-8.11
			C567.97,559.82,571.69,563.33,571.79,567.84z"/>
		<path class="st7" d="M934.83,442.14c-2.26-0.14-3.95,0.23-4.79-1.42c-0.78-1.54-0.19-3.05,1.02-4.04
			c5.33-4.33,10.94-8.18,18.1-8.73c1.22-0.09,2.87-0.51,3.39,1.24c0.43,1.45,0.53,3.1-0.86,4.14
			C946.36,437.34,940.81,440.96,934.83,442.14z"/>
		<path class="st7" d="M511.8,539.86c-8.12,0.04-14.2-3.04-18.08-9.94c-0.69-1.22-2.02-2.56-0.65-4.04
			c1.19-1.28,2.79-0.83,4.22-0.37c6.17,1.95,11.27,5.64,15.9,10.03c1.04,0.98,2.86,2,2.28,3.53
			C514.85,540.74,512.83,539.62,511.8,539.86z"/>
		<path class="st7" d="M702.19,604.87c1.01,0.31,2.73-0.44,2.79,1.71c0.11,3.88-5.18,11.41-7.9,10.93
			c-2.46-0.43-4.23-1.96-4.11-4.77C693.12,609.39,698.47,604.82,702.19,604.87z"/>
		<path class="st0" d="M687.03,418.99c-2.13-0.22-2.02-1.8-2.02-3.32c0-9.12,0-18.23,0-27.35c0-1.53-0.09-3.1,2.04-3.3
			c1.22,2.14,1.02,4.5,0.91,6.8C687.57,400.87,689.02,409.99,687.03,418.99z"/>
		<path class="st0" d="M678.99,323.01c-0.68-0.3-1.36-0.61-2.03-0.91c2.29-0.02,4.58-0.04,6.87-0.06c1.28,1.63,0.61,3.53,0.62,5.29
			c0.07,10.29,0.07,20.59,0.01,30.88c-0.01,1.6,0.58,3.33-0.61,4.8c-0.75-0.1-1.52-0.19-1.75-1.11c0.94-11.92,0.1-23.86,0.47-35.78
			C682.66,323.22,680.38,323.8,678.99,323.01z"/>
		<path class="st6" d="M678.99,323.01c2.04-0.1,4.05-0.39,4.03,2.77c-0.08,11.47-0.03,22.94-0.09,34.41c0,0.57-0.54,1.14-0.84,1.7
			c-0.15-0.2-0.21-0.42-0.19-0.66c0.03-10.93-0.06-21.86,0.18-32.78C682.15,325.71,681.17,324.17,678.99,323.01z"/>
		<path class="st0" d="M683.84,363c0-13.66-0.01-27.31-0.02-40.97c1.42,0.84,1.16,2.26,1.17,3.55c0.01,11.28,0.01,22.57,0,33.85
			C684.99,360.73,685.25,362.15,683.84,363z"/>
		<path class="st0" d="M687.03,418.99c0.01-11.32,0.02-22.64,0.02-33.96c0.3-0.04,0.61-0.06,0.91-0.05c0.05,0.37,0.1,0.74,0.15,1.11
			c0.56,10.28,0.65,20.57-0.03,30.85c0.31,0.37,0.63,0.74,0.94,1.11C688.65,418.97,687.87,419.03,687.03,418.99z"/>
		<path class="st7" d="M823.89,518.94c1.7,3.33,1.61,6.68,0.07,10.03C823.29,525.63,822.76,522.29,823.89,518.94z"/>
		<path class="st8" d="M542.14,536.73"/>
		<path class="st8" d="M542.15,529.83c0,0-0.01,0.01-0.01,0.01"/>
		<path class="st9" d="M805.19,702.44c0-1.66-0.01-3.32,0-4.98c0.03-4.93,1.58-6.01,6.33-4.41c4.14,1.4,6.35,6.25,5.27,11.62
			c-0.88,4.36-4.61,7.36-8.85,7.28c-1.81-0.03-2.82-0.56-2.76-2.55C805.24,707.08,805.19,704.76,805.19,702.44z"/>
		<path class="st9" d="M805.17,679.29c0-1.32-0.11-2.65,0.03-3.96c0.16-1.53-0.9-3.72,1.07-4.41c2.05-0.73,4.26-0.07,6,1.41
			c4.42,3.76,2.76,13-2.67,15c-2.95,1.09-4.84,0.76-4.46-3.08C805.31,682.6,805.17,680.94,805.17,679.29z"/>
		<path class="st9" d="M747.97,691c0-5.81,0.11-11.63-0.05-17.43c-0.07-2.65,1.05-3.13,3.27-2.63c3.88,0.88,6.53,3.31,7.98,6.85
			c3.7,9.01,3.67,18.07-0.06,27.1c-0.78,1.89-2.05,3.41-3.59,4.71c-1.83,1.56-4.06,2.93-6.34,2.09c-2.36-0.87-1.1-3.46-1.16-5.25
			C747.86,701.3,747.97,696.15,747.97,691z"/>
		<path class="st9" d="M857.55,681.3c1.47,4.64,2.89,9.13,4.33,13.6c0.72,2.23-0.16,2.78-2.36,2.92c-8.3,0.55-8.36,0.55-5.89-7.19
			c0.9-2.84,1.8-5.67,2.74-8.5C856.45,681.91,856.86,681.78,857.55,681.3z"/>
		<path class="st9" d="M629.58,681.63c1.28,4.11,2.43,8.27,3.87,12.33c0.97,2.71,0.71,3.82-2.58,3.89c-7.79,0.15-7.79,0.3-5.38-7.25
			c0.98-3.08,1.97-6.15,2.96-9.22C628.83,681.46,629.21,681.55,629.58,681.63z"/>
		<path class="st9" d="M637.98,654.21c-0.15,2.55-1.32,3.9-3.74,3.96c-2.46,0.06-3.82-1.36-3.83-3.63c-0.01-2.2,1.24-3.82,3.69-3.84
			C636.51,650.68,637.65,652.15,637.98,654.21z"/>
		<path class="st0" d="M674.15,499.06c0.1,3.5-1.76,5.97-4.32,8.01c-6.07,4.83-17.57,5.32-24.05,1.07
			c-4.59-3.01-6.7-7.33-6.28-12.72c0.48-6.07,2.97-8.91,9.9-11.93c-2.29-1.92-5.34-2.7-6.98-5.45c-3.39-5.69-1.57-13.17,4.25-16.47
			c5.37-3.05,11.09-3.18,16.92-1.67c5.08,1.32,8.66,4.24,9.49,9.68c0.84,5.5-0.91,9.83-6.12,12.41c-0.57,0.28-1.05,0.73-1.89,1.32
			c4.3,2.26,8.85,4.01,8.98,9.65C673.57,494.99,674.15,497.02,674.15,499.06z"/>
		<path class="st0" d="M687.97,471.97c1.46-7.13,7.46-12.17,15.17-12.75c6.97-0.52,14.16,3.74,16.45,10.59
			c3.6,10.74,2.94,21.36-3.02,31.19c-4.69,7.75-11.92,10.72-20.84,9.88c-1.88-0.18-3.63-0.67-5.07-1.86
			c-2.14-1.77-3.32-4.04-1.23-6.46c1.96-2.27,4.43-2.15,6.58-0.1c2.35,2.23,4.19,5.72,8.23,2.81c2.09-1.51,5.16-10.37,4.23-12.4
			c-0.94-2.06-2.6-0.73-3.9-0.53c-7.91,1.23-14.9-3.52-16.57-11.36C688.48,477.98,687.86,474.98,687.97,471.97z"/>
		<path class="st0" d="M752.86,472.21c-0.55-1.56-0.94-3.2-1.69-4.65c-1.46-2.83-3.85-4.33-7-3.13c-3.17,1.22-5.11,3.96-3.63,7.14
			c2.37,5.1-1.75,5.58-4.29,6.01c-3.68,0.62-3.24-2.94-3.47-5.22c-0.42-4.15,1.2-7.39,4.7-9.8c6.23-4.28,15.37-4.52,21.72-0.41
			c5.67,3.67,7.45,10.56,4.21,17.2c-3.26,6.68-8.69,11.72-13.46,17.26c-1.27,1.48-3.04,2.59-3.79,5.02
			c5.13,1.05,10.22,0.18,15.23,0.5c1.37,0.09,3.51-0.59,3.56,1.59c0.07,2.96-0.04,6.23-1.96,8.56c-1.44,1.75-2.74,0.09-3.81-1.4
			c-0.99-1.38-2.76-0.87-4.21-0.87c-5.99-0.04-11.98,0.03-17.98-0.05c-1.37-0.02-3.2,0.73-3.92-1.18c-0.69-1.82,0.42-3.11,1.63-4.37
			c2.76-2.88,5.5-5.79,8.13-8.79c5.26-6.02,8.4-13.09,10.05-20.87c0.44,0.12,0.3,0.71,0.71,0.86c-0.18-1.45,0-2.92-0.09-4.37
			c-0.02-0.4,0.05-0.62,0.47-0.7C752.87,470.63,753.76,472.01,752.86,472.21z"/>
		<path class="st0" d="M620.52,482.28c-0.17,6.38,0.13,12.76-0.06,19.14c0.07-12.18,0.06-24.35,0.09-36.53
			c0.01-1.63-0.41-3.32,0.45-4.88c1.55,3.5,0.63,7.19,0.69,10.78c0.15,9.65,0.09,19.31,0.03,28.97c-0.02,3.03,0.05,5.84,4.11,6
			c1.46,0.06,2.05,0.87,1.97,2.28c-0.09,1.51-1.04,1.95-2.35,1.95c-6.66,0-13.32,0-19.98-0.01c-1.27,0-2.31-0.33-2.44-1.86
			c-0.11-1.38,0.39-2.25,1.88-2.33c3.87-0.2,4.37-2.76,4.34-5.92c-0.07-8.66-0.05-17.32-0.01-25.97c0.02-3.25-0.22-6.14-4.61-6.02
			c-1.27,0.04-2.25-0.61-2.4-2.03c-0.11-1.1,0.27-2.28,1.38-2.3c5.49-0.06,10.21-2.67,15.22-4.31c0.74-0.24,1.67-0.14,2.16,0.76"/>
		<path class="st0" d="M687.97,471.97c1.64,3,1.61,6,0.02,9.01C687.04,477.98,686.76,474.98,687.97,471.97z"/>
		<path class="st0" d="M674.15,499.06c-1.72-2.01-1.69-4.05-0.09-6.11C674.88,494.97,675.15,497.01,674.15,499.06z"/>
		<path class="st0" d="M752.86,472.21c0.1-0.64,0.19-1.29,0.29-1.93c0.14-0.02,0.28-0.03,0.42-0.05c0,2.21,0,4.43,0,6.67
			c-0.91-0.48-0.42-1.45-0.71-2.14C752.86,473.91,752.86,473.06,752.86,472.21z"/>
		<path class="st0" d="M480.34,165.02c1.59,1.45,3.13,2.95,4.78,4.33c0.99,0.83,2.04,1.93,3.52,1.29c1.18-0.51,2.35-1.78,3.42-0.15
			c1.26,1.9-0.81,2.58-1.7,3.54c-2.59,2.8-5.3,5.5-8,8.2c-0.66,0.66-1.32,1.7-2.48,1.07c-1.08-0.58-1.15-1.65-0.53-2.56
			c1.7-2.52-0.01-4-1.56-5.53c-4.02-3.97-8.01-7.96-12.11-11.84c-1.96-1.86-3.84-4.56-7.11-1.82c-0.75,0.63-1.59,0.04-2.04-0.75
			c-0.54-0.93,0.14-1.57,0.69-2.15c3.34-3.47,6.7-6.92,10.08-10.35c1.4-1.42,3.16-0.54,2.6,0.78c-2.82,6.71,4.07,7.67,6.26,12.41
			c1.54-3.39,0.91-5.95,0.86-8.44c-0.7-1.98-0.67-3.97-0.02-5.95c0-0.9-0.27-1.6-1.24-1.87c-1.17-0.32-2.69,1.57-3.5-0.29
			c-0.89-2.05,1.28-2.79,2.26-3.96c1.59-1.9,3.31-3.71,5.05-5.48c0.89-0.91,1.85-2.28,3.33-1.14c1.29,0.99,0.2,2.02-0.27,3.05
			c-0.55,1.2-1.05,2.46-1.31,3.74c-1.78,8.8-0.93,10.47,7.75,11.62c5.7,0.76,11.46,4.25,17.36,0.51c0.35-0.22,1.29,0.16,1.73,0.52
			c0.86,0.71,0.35,1.48-0.24,2.1c-3.67,3.83-7.34,7.66-11.03,11.46c-0.74,0.76-1.64,1.21-2.63,0.39c-0.77-0.64-0.73-1.41-0.17-2.17
			c1.02-1.4,0.86-2.69-0.9-2.96c-4.33-0.66-8.54-2.56-13.06-1.44C479.08,162.52,479.17,163.8,480.34,165.02z"/>
		<path class="st0" d="M836.06,127.7c0-3.21,0.09-5.54-0.03-7.86c-0.09-1.62-1.11-2.91-2.63-3.28c-1.4-0.34-1.93,1.18-2.41,2.14
			c-1.5,3-5.48,5.65-1.54,9.58c0.47,0.47,0.25,1.26-0.3,1.78c-0.77,0.74-1.56,0.36-2.25-0.08c-4.08-2.56-8.16-5.14-12.21-7.74
			c-0.68-0.44-1.45-1-1.09-1.98c0.43-1.16,1.41-1.41,2.43-0.93c2.79,1.34,3.94-0.65,5.12-2.48c2.8-4.33,5.65-8.62,8.28-13.05
			c1.63-2.74,5.26-5.42,1.04-8.95c-0.58-0.49-0.18-1.23,0.26-1.77c0.72-0.87,1.51-0.47,2.21-0.02c6.13,3.98,12.42,7.73,18.3,12.06
			c3.04,2.24,4.54,5.82,3.23,9.79c-1.2,3.64-3.74,5.85-7.73,5.96c-1.68,0.05-2.99,0.31-2.77,2.47c0.5,4.75-0.74,9.69,1.45,14.26
			c0.44,0.92,1.01,1.87,0.19,2.74c-1.14,1.23-2.08-0.08-3.07-0.46C836.45,137.5,834.33,133.1,836.06,127.7z"/>
		<path class="st0" d="M531.11,133.11c-1.67,9.75-12.51,17.64-22.28,16.21c-9.57-1.4-15.99-10.18-14.82-20.27
			c0.99-8.58,10.97-17.03,20.08-17.01c8.62,0.02,15.97,6.48,17.06,14.98C530.75,129.05,530.83,131.08,531.11,133.11z"/>
		<path class="st0" d="M560.34,102.82c-1.83-3.32-3.58-6.7-5.53-9.96c-1.1-1.85-2.8-2.77-5.1-2.13c-0.95,0.26-1.51-0.37-1.86-1.23
			c-0.45-1.12,0.39-1.47,1.09-1.87c2.47-1.39,4.95-2.75,7.43-4.1c0.76-0.41,1.56-0.64,2.27,0.11c0.67,0.71,0.65,1.61,0.08,2.26
			c-2.49,2.84-0.66,5.29,0.66,7.74c3.24,6.01,6.59,11.96,9.79,17.99c0.64,1.21,2.3,2.43,1.12,3.98c-1.4,1.84-3.27,0.98-5.02,0.34
			c-7.98-2.91-15.95-5.8-23.94-8.68c-0.89-0.32-1.83-0.52-3.99-1.11c2.97,5.4,5.35,9.85,7.86,14.24c0.86,1.51,2.27,2.52,4.14,2.25
			c1.21-0.18,2.45-0.59,2.76,1.06c0.28,1.48-1.09,1.87-2.07,2.44c-1.3,0.75-2.57,1.56-3.93,2.17c-1.58,0.7-3.14,2.79-4.91,1.41
			c-2.01-1.57,0.81-2.77,1-4.28c0.2-1.56-0.03-2.96-0.78-4.33c-2.64-4.82-5.29-9.64-7.91-14.46c-1.25-2.3-2.67-4.28-5.77-3.75
			c-1.11,0.19-2.04-0.27-2.26-1.41c-0.25-1.29,0.99-1.55,1.77-2.08c4.54-3.13,8.94-4.92,14.68-2.04c5.56,2.78,11.73,4.33,17.64,6.42
			C559.82,103.47,560.08,103.15,560.34,102.82z"/>
		<path class="st0" d="M590.03,71.3c1.74,0.13,3.83,1.74,4.42-1.78c0.31-1.84,2.03-1.62,2.78-0.01c1.19,2.56,2.08,5.25,3.12,7.88
			c0.35,0.88,0.28,1.65-0.55,2.16c-0.81,0.51-1.61,0.31-2.23-0.38c-4.09-4.56-8.97-6.23-14.08-2.26c-5.56,4.32-2.86,9.98-1.18,15.14
			c0.87,2.65,2.13,5.28,3.71,7.58c2.69,3.91,7.09,4.43,10.94,1.71c1.82-1.28,2.66-2.96,2.19-5.15c-0.42-1.96-0.79-4.05-3.35-4.35
			c-1.21-0.15-2.48-0.27-2.52-1.81c-0.03-1.52,1.38-1.63,2.44-2.02c3.28-1.2,6.53-2.47,9.84-3.58c1.97-0.66,3.98,0.05,2.55,2.21
			c-2.07,3.12-0.4,5.45,0.62,7.92c1.13,2.72,0.62,4.11-2.14,5.35c-3.93,1.76-7.51,4.32-11.46,6.04c-6.87,2.99-14.06,1.23-19.14-4.26
			c-5.11-5.52-6.28-13.48-2.99-20.44C576,74.85,583.06,70.73,590.03,71.3z"/>
		<path class="st0" d="M747.73,82.25c0.18-5.94,3.84-11.8,11.08-14.91c6.7-2.88,13.02-1.45,18.63,3.21c0.87,0.72,1.23,2.8,3.04,1.54
			c0.89-0.62,1.46-2.17,2.81-1.05c1.26,1.05,0.53,2.46,0.2,3.72c-0.47,1.77-0.97,3.53-1.47,5.29c-0.31,1.08-0.3,2.5-1.97,2.35
			c-1.45-0.13-1.79-1.23-1.88-2.51c-0.27-4-2.14-6.94-5.86-8.57c-4.09-1.79-7.72-0.91-10.12,2.72c-3.46,5.23-5.38,11.15-5.14,17.46
			c0.16,4.06,2.98,6.08,6.86,6.68c3.36,0.52,5.34-0.91,6.37-4.14c0.58-1.82,0.45-3.24-1.08-4.44c-0.87-0.68-1.37-1.54-0.8-2.59
			c0.64-1.17,1.65-0.71,2.62-0.41c3.66,1.12,7.32,2.22,10.99,3.31c1.97,0.58,2.76,2.12,0.75,2.91c-3.55,1.4-3.61,4.52-4.54,7.23
			c-0.65,1.9-1.22,3.37-3.72,2.97c-4.59-0.75-9.29-0.99-13.8-2.05C752.57,99.07,747.67,92.48,747.73,82.25z"/>
		<path class="st0" d="M816.8,90.3c-0.66-0.74-1.19-1.69-1.99-2.19c-2.24-1.39-4.86-3.82-7.13-2.83c-2.88,1.25-3.16,5.2-4.53,8
			c-0.55,1.12,0.23,1.95,1.21,2.35c1.49,0.6,3.02,1.64,4.58,0.07c0.9-0.91,1.74-2.34,3.23-0.87c1.14,1.12,0.08,2.17-0.34,3.18
			c-0.57,1.38-1.18,2.76-1.92,4.06c-0.68,1.2-0.75,3.3-2.79,2.93c-1.95-0.35-0.91-2.16-1.11-3.34c-0.34-2.01-1.99-2.62-3.52-3.13
			c-2.17-0.73-2.25,1.37-2.95,2.55c-0.42,0.71-0.82,1.47-1.05,2.26c-0.69,2.37-3.36,4.88-0.25,7.15c3.18,2.32,6.7,3.94,10.55,1.16
			c0.67-0.49,1.3-1.04,1.91-1.6c1.04-0.95,2.2-1.78,3.48-0.62c1.19,1.08-0.01,2.14-0.42,3.13c-0.57,1.38-1.38,2.67-1.91,4.07
			c-0.99,2.62-2.5,3.04-5.02,1.85c-7.37-3.49-14.83-6.77-22.23-10.18c-1.12-0.52-2.86-0.8-2.3-2.65c0.5-1.65,1.89-0.79,2.96-0.7
			c2.11,0.18,2.91-1.38,3.61-2.88c2.79-6.04,5.48-12.12,8.27-18.16c0.87-1.89,0.96-3.48-0.96-4.78c-0.87-0.59-1.56-1.36-0.68-2.44
			c0.63-0.78,1.46-0.64,2.26-0.28c7.56,3.45,15.29,6.6,22.62,10.49c4.11,2.19,0.15,5.26-0.6,7.67c-0.75,2.43-2.1,1.31-2.8-0.47
			C817.46,92.8,818.16,91.51,816.8,90.3z"/>
		<path class="st0" d="M710.82,61.14c-0.55-2.07-4.77-2.08-3.42-4.65c1.15-2.19,3.93-0.14,5.98-0.28c3.45-0.23,5.88,1.26,7.76,4.32
			c3.04,4.95,6.48,9.67,9.8,14.44c0.8,1.15,1.19,2.79,3.49,2.98c0.5-3.73,1.04-7.45,1.46-11.18c0.2-1.78-0.55-3.25-2.05-4.27
			c-0.96-0.66-2.23-1.25-1.44-2.68c0.7-1.26,2.07-0.73,3.18-0.66c1.16,0.07,2.38,0.08,3.44,0.48c1.78,0.67,4.58-0.58,5.26,1.81
			c0.62,2.17-2.32,1.82-3.36,3.02c-1.42,1.63-1.67,3.56-1.93,5.54c-0.93,6.91-1.86,13.83-2.85,20.74c-0.18,1.23,0.19,2.9-1.53,3.32
			c-1.69,0.42-2.75-0.63-3.63-1.99c-4.99-7.66-10.01-15.29-15.03-22.93c-1.79-2.84-2.45-0.75-3.11,0.76
			c-1.02,2.32,0.25,4.93-0.8,7.27l0.04-0.06c-1.15,2.95-0.69,5.94-0.24,8.94c0.66,1.27,1.73,1.97,3.11,2.23
			c0.87,1.9-0.44,2.6-1.74,2.16c-2.69-0.9-5.41-0.75-8.13-0.97c-1.48-0.12-1.87-1.07-1.1-2.39c1.17-0.7,2.35-1.39,3.52-2.09
			c1.88-1.43,0.61-3.98,1.98-5.59c0.21-2.13-0.43-4.31,0.42-6.4l-0.04,0.06C710.27,69.1,712.04,65.24,710.82,61.14z"/>
		<path class="st0" d="M627.52,96.15c-2.68,0.73-5.94-2.59-8.84,0.8c-0.64,0.75-1.76-0.51-2.01-1.53c-0.59-2.42-1.11-4.86-1.61-7.3
			c-0.21-1.04-0.04-2.01,1.09-2.49c1.22-0.52,1.83,0.32,2.4,1.17c1.69,2.52,3.57,4.87,6.6,5.82c2.86,0.9,5.55,0.35,6.74-2.54
			c1.32-3.21-0.82-4.98-3.65-5.89c-3.16-1.02-6.42-1.74-9.53-2.88c-5.44-2.01-7.83-6.4-6.7-11.8c1.04-4.95,6.3-8.62,11.65-8.11
			c1.85,0.18,3.67,1.49,5.42-0.71c0.89-1.12,2.15-0.21,2.59,1.1c0.27,0.78,0.47,1.61,0.51,2.43c0.1,1.9,2.12,4.3,0.2,5.57
			c-2.38,1.58-2.99-1.73-4.48-2.76c-1.22-0.84-2.45-1.83-3.83-2.23c-2.56-0.75-4.77,0.27-5.64,2.77c-0.89,2.58,0.95,4.12,3.13,4.84
			c3.14,1.04,6.43,1.66,9.59,2.66c6.24,1.97,8.96,6.33,7.99,12.5C638.38,92.38,633.47,96.09,627.52,96.15z"/>
		<path class="st0" d="M663.61,78.96c2.46-6.33,4.29-11.69,5.44-17.27c0.25-1.22-0.36-2.26-1.68-2.7c-1.13-0.37-2.43-0.83-1.91-2.34
			c0.35-1,1.58-1.1,2.58-1.2c1.32-0.14,2.65-0.31,3.98-0.28c1.59,0.03,3.66-1.04,4.68,0.53c1.44,2.22-1.65,2.32-2.27,3.65
			c-0.91,1.95-1.9,3.88-2.58,5.91c-2.33,6.93-4.46,13.92-6.86,20.82c-0.64,1.86-0.24,4.75-3.15,5.04c-2.82,0.29-3.28-2.41-4.29-4.19
			c-3.85-6.79-7.58-13.66-11.42-20.45c-1.28-2.26-2.16-4.96-5.28-5.54c-0.87-0.16-1.5-0.8-1.38-1.76c0.13-1.06,1.08-1.12,1.89-1.2
			c4.62-0.47,9.25-0.92,13.87-1.39c0.86-0.09,1.7-0.06,2.16,0.8c0.62,1.18-0.06,1.95-1.05,2.35c-2.82,1.12-2.09,2.89-0.99,4.79
			C657.84,68.85,660.3,73.18,663.61,78.96z"/>
		<path class="st0" d="M895.8,182.02c0.91-0.21,1.71-0.46,2.52-0.56c1.48-0.18,3.34-2.12,4.35,0.15c0.86,1.95-1.47,2.71-2.58,3.76
			c-4.91,4.66-4.99,4.65-9.44-0.23c-4.93-5.41-9.81-10.86-14.66-16.34c-0.69-0.78-2.11-1.5-1.17-2.88c0.93-1.36,1.99-0.63,2.98,0.08
			c2.3,1.66,3.74-0.17,5.16-1.43c4.49-3.96,8.88-8.04,13.34-12.03c1.8-1.62,3.6-3.16,1.9-5.89c-0.52-0.83-0.34-1.64,0.42-2.18
			c0.8-0.56,1.55-0.26,2.17,0.44c3.21,3.6,6.44,7.18,9.63,10.8c0.62,0.7,1.51,1.5,0.49,2.55c-0.95,0.99-1.81,0.42-2.59-0.26
			c-2.14-1.86-3.71-0.38-5.21,0.93c-4.13,3.61-8.3,7.19-12.25,11c-1.63,1.57-4.9,2.71-3.44,5.85
			C889.05,179.25,891.81,181.62,895.8,182.02z"/>
		<path class="st0" d="M892.59,137.59c-0.11,1.62-1.25,2.04-2.38,1.39c-3.09-1.79-4.52,0.36-6.19,2.25
			c-3.41,3.86-6.93,7.63-10.29,11.53c-1.93,2.23-5.32,4.18-2.16,7.91c0.44,0.52,0.03,1.25-0.52,1.73c-0.8,0.7-1.54,0.4-2.2-0.18
			c-3.6-3.2-7.2-6.41-10.77-9.63c-0.62-0.56-1.19-1.22-0.66-2.15c0.6-1.06,1.45-1.33,2.46-0.59c2.55,1.85,3.93-0.06,5.39-1.66
			c4.02-4.43,8.07-8.83,11.99-13.35c1.43-1.65,3.62-3.36,1.26-5.96c-0.62-0.68-0.56-1.5,0.19-2.19c0.78-0.71,1.55-0.52,2.21,0.07
			c3.73,3.31,7.43,6.64,11.13,9.98C892.29,136.93,892.4,137.28,892.59,137.59z"/>
		<path class="st0" d="M691.41,55.26c1.33,0,2.66-0.1,3.98,0.02c1.55,0.14,3.71-0.82,4.45,1.14c0.84,2.22-1.72,1.86-2.75,2.66
			c-1.38,1.08-1.32,2.58-1.38,4.06c-0.22,5.63-0.46,11.26-0.64,16.89c-0.09,2.8-0.51,5.81,3.12,7.01c0.73,0.24,0.98,0.89,0.87,1.58
			c-0.16,1.01-0.98,1.29-1.84,1.25c-4.8-0.17-9.59-0.38-14.39-0.59c-0.73-0.03-1.27-0.46-1.34-1.2c-0.09-0.95,0.46-1.63,1.35-1.78
			c3.19-0.55,3.1-2.99,3.14-5.34c0.12-5.97,0.22-11.94,0.31-17.92c0.03-2.05-0.03-4.05-2.51-4.83c-1.01-0.32-1.89-0.88-1.42-2.13
			c0.45-1.18,1.61-0.96,2.57-0.98c2.16-0.04,4.31-0.01,6.47-0.01C691.41,55.16,691.41,55.21,691.41,55.26z"/>
		<path class="st0" d="M703.99,87.09c2.28,2.46,8.68,3.15,10.97,1.2c1.53,1.34,0.84,2.66-0.67,2.62c-3.46-0.11-6.95-0.57-10.34-1.31
			C702.59,89.29,702.51,87.92,703.99,87.09z"/>
		<path class="st0" d="M712.06,77.18c0.03-2.73-0.54-5.5,0.51-8.14c0.37-0.94,0.13-2.6,1.74-2.46c1.34,0.12,1.62,1.38,1.67,2.58
			c-1.69-1.16-2.21-0.24-2.62,1.32C712.76,72.68,713.56,75.15,712.06,77.18z"/>
		<path class="st0" d="M710.82,61.14c2.25,4.18,0.12,8.02-0.94,11.94C710.19,69.09,710.51,65.11,710.82,61.14z"/>
		<path class="st0" d="M531.11,133.11c-1.61-2.04-1.63-4.07,0.04-6.09C531.91,129.06,531.95,131.09,531.11,133.11z"/>
		<path class="st0" d="M711.85,86.05c-1.31-3.02-1.62-6.01,0.24-8.94C712.02,80.09,711.93,83.07,711.85,86.05z"/>
		<path class="st0" d="M709.92,73.01c0.02,2.36,0.03,4.72,0.05,7.08c-0.37,0.42-0.73,0.39-1.09-0.02
			C709.05,77.69,708.52,75.21,709.92,73.01z"/>
		<path class="st0" d="M708.88,80.07c0.36,0.01,0.73,0.02,1.09,0.02c-1.34,1.37-0.1,4.04-2.45,4.9
			C707.97,83.35,708.43,81.71,708.88,80.07z"/>
		<path class="st10" d="M816.8,90.3c1.59,0.73,1.61,1.28,0.16,3.79C816.91,92.83,816.86,91.56,816.8,90.3z"/>
		<path class="st6" d="M720.01,322.17c24.29,0,48.59,0,72.88,0c-1.56,1.47-3.49,0.82-5.25,0.83c-22.14,0.17-44.27,0.27-66.41,0.4
			C720.39,323.4,720.12,322.87,720.01,322.17z"/>
		<path class="st6" d="M579.93,322.88c0.75-0.83,1.75-0.85,2.75-0.85c23.1,0.05,46.21,0.1,69.31,0.15c-0.14,0.61-0.34,1.77-0.4,1.76
			c-18.29-2.23-36.64-0.31-54.95-0.9C591.08,322.86,585.5,322.93,579.93,322.88z"/>
		<path class="st7" d="M662.35,496.44c-0.18,1.99-0.13,4.36-0.67,6.6c-0.54,2.25-2.18,3.74-4.72,3.69c-2.31-0.05-3.77-1.42-4.3-3.53
			c-1.15-4.58-1.05-9.25-0.2-13.86c0.45-2.43,2.21-3.6,4.76-3.47c2.48,0.13,4.18,1.28,4.59,3.75
			C662.16,491.75,662.16,493.93,662.35,496.44z"/>
		<path class="st7" d="M661.85,471.39c-0.33,2.43-0.57,4.41-0.86,6.38c-0.33,2.28-1.61,3.67-3.98,3.61
			c-2.06-0.05-3.48-1.2-3.83-3.27c-0.64-3.79-0.58-7.62-0.1-11.43c0.26-2.11,1.81-3.2,3.8-3.31c1.81-0.1,3.31,0.88,3.86,2.6
			C661.33,467.86,661.55,469.86,661.85,471.39z"/>
		<path class="st7" d="M709.97,476.69c-0.43,2.77-0.65,5.25-1.23,7.64c-0.44,1.82-1.52,3.36-3.67,3.53
			c-2.4,0.19-3.83-1.33-4.34-3.33c-1.49-5.84-1.35-11.78-0.16-17.66c0.34-1.69,1.63-2.84,3.54-2.99c2.17-0.17,3.64,1,4.09,2.88
			C709.02,470.11,709.44,473.55,709.97,476.69z"/>
		<path class="st7" d="M846.7,108.42c0,3.12-3.9,7.5-6.59,7.18c-2.06-0.24-4.38-0.83-4.8-3.41c-0.26-1.59,5.85-9.38,6.89-8.98
			C844.62,104.15,846.38,105.81,846.7,108.42z"/>
		<path class="st7" d="M524.62,136.11c-0.03,5.42-6.26,9.39-11.03,6.68c-6.14-3.49-10.22-9-12.27-15.66
			c-1.65-5.36,3.64-10.34,9.05-9.04C515.61,119.36,524.64,130.78,524.62,136.11z"/>
		<path class="st0" d="M687.26,82.05c0-7.23,0-14.46,0-21.69c0.15,0,0.29,0,0.44,0c0,7.23,0,14.46,0,21.69
			C687.55,82.04,687.41,82.04,687.26,82.05z"/>
	</g>
</g>
<path class="st6" d="M689.05,419.59c10.96-10.67,20.81-20.29,30.7-29.88c1.41-1.37,1.27-2.93,1.01-4.61
	c-0.96-6.24-1.93-12.47-2.8-18.72c-0.35-2.54-0.87-3.91-3.56-1.7c-7.7,6.34-15.49,12.58-23.25,18.85c-1.2,0.97-2.13,2.02-2.13,3.73
	C689.06,397.53,689.05,407.8,689.05,419.59z"/>
<path class="st6" d="M690.57,361.21c7.11-6.93,14.19-13.89,21.35-20.76c1.51-1.45,1.7-3.03,1.52-4.94
	c-1.29-13.7-1.27-13.71-14.95-13.56c-0.99,0.01-1.98,0.09-2.98,0.13c-1.07,0.6-2.32,0.58-3.46,0.98c-2.22,0.51-2.82,2.23-2.86,4.14
	c-0.21,10.31-0.21,20.62,0,30.93C689.21,359.31,689.55,360.43,690.57,361.21z"/>
<path class="st6" d="M689.45,325.76c0.08,11.47,0.03,22.94,0.09,34.41c0,0.57,0.54,1.14,0.84,1.7c0.15-0.2,0.21-0.42,0.19-0.66
	c-0.03-10.93,0.06-21.86-0.18-32.78c-0.06-2.74,0.92-4.27,3.1-5.44"/>
<path class="st6" d="M784.49,382.67c16.47,0,32.95,0.01,49.42-0.03c1.25,0,2.91,0.66,3.68-0.66c0.8-1.38-0.67-2.42-1.38-3.45
	c-5.3-7.66-10.72-15.24-15.98-22.93c-1.56-2.29-3.38-3.19-6.21-3.18c-27.62,0.1-55.25,0.12-82.87-0.01
	c-3.63-0.02-4.65,1.14-4.12,4.61c1.15,7.55,2.22,15.13,3.02,22.73c0.34,3.23,2.27,3.09,4.52,3.09c16.64-0.02,33.28-0.01,49.92-0.01
	C784.49,382.77,784.49,382.72,784.49,382.67z"/>
<path class="st7" d="M819.68,576.98c0.1,4.58-3.41,8.2-8.08,8.35c-4.94,0.16-8.64-3.37-8.62-8.21c0.02-4.62,3.51-8.06,8.25-8.11
	C815.87,568.96,819.59,572.47,819.68,576.98z"/>
</svg>
